G04 #@! TF.GenerationSoftware,KiCad,Pcbnew,(5.1.5-0-10_14)*
G04 #@! TF.CreationDate,2020-03-12T22:04:08+00:00*
G04 #@! TF.ProjectId,MidiLedController,4d696469-4c65-4644-936f-6e74726f6c6c,C*
G04 #@! TF.SameCoordinates,Original*
G04 #@! TF.FileFunction,Soldermask,Bot*
G04 #@! TF.FilePolarity,Negative*
%FSLAX46Y46*%
G04 Gerber Fmt 4.6, Leading zero omitted, Abs format (unit mm)*
G04 Created by KiCad (PCBNEW (5.1.5-0-10_14)) date 2020-03-12 22:04:08*
%MOMM*%
%LPD*%
G04 APERTURE LIST*
%ADD10C,0.100000*%
G04 APERTURE END LIST*
D10*
G36*
X186138979Y-134003293D02*
G01*
X186272625Y-134043834D01*
X186395784Y-134109664D01*
X186503740Y-134198260D01*
X186592336Y-134306216D01*
X186658166Y-134429375D01*
X186698707Y-134563021D01*
X186713000Y-134708140D01*
X186713000Y-136371860D01*
X186698707Y-136516979D01*
X186658166Y-136650625D01*
X186592336Y-136773784D01*
X186503740Y-136881740D01*
X186395784Y-136970336D01*
X186272625Y-137036166D01*
X186138979Y-137076707D01*
X185993860Y-137091000D01*
X183830140Y-137091000D01*
X183685021Y-137076707D01*
X183551375Y-137036166D01*
X183428216Y-136970336D01*
X183320260Y-136881740D01*
X183231664Y-136773784D01*
X183165834Y-136650625D01*
X183125293Y-136516979D01*
X183111000Y-136371860D01*
X183111000Y-134708140D01*
X183125293Y-134563021D01*
X183165834Y-134429375D01*
X183231664Y-134306216D01*
X183320260Y-134198260D01*
X183428216Y-134109664D01*
X183551375Y-134043834D01*
X183685021Y-134003293D01*
X183830140Y-133989000D01*
X185993860Y-133989000D01*
X186138979Y-134003293D01*
G37*
G36*
X175597979Y-134003293D02*
G01*
X175731625Y-134043834D01*
X175854784Y-134109664D01*
X175962740Y-134198260D01*
X176051336Y-134306216D01*
X176117166Y-134429375D01*
X176157707Y-134563021D01*
X176172000Y-134708140D01*
X176172000Y-136371860D01*
X176157707Y-136516979D01*
X176117166Y-136650625D01*
X176051336Y-136773784D01*
X175962740Y-136881740D01*
X175854784Y-136970336D01*
X175731625Y-137036166D01*
X175597979Y-137076707D01*
X175452860Y-137091000D01*
X173289140Y-137091000D01*
X173144021Y-137076707D01*
X173010375Y-137036166D01*
X172887216Y-136970336D01*
X172779260Y-136881740D01*
X172690664Y-136773784D01*
X172624834Y-136650625D01*
X172584293Y-136516979D01*
X172570000Y-136371860D01*
X172570000Y-134708140D01*
X172584293Y-134563021D01*
X172624834Y-134429375D01*
X172690664Y-134306216D01*
X172779260Y-134198260D01*
X172887216Y-134109664D01*
X173010375Y-134043834D01*
X173144021Y-134003293D01*
X173289140Y-133989000D01*
X175452860Y-133989000D01*
X175597979Y-134003293D01*
G37*
G36*
X165056979Y-134003293D02*
G01*
X165190625Y-134043834D01*
X165313784Y-134109664D01*
X165421740Y-134198260D01*
X165510336Y-134306216D01*
X165576166Y-134429375D01*
X165616707Y-134563021D01*
X165631000Y-134708140D01*
X165631000Y-136371860D01*
X165616707Y-136516979D01*
X165576166Y-136650625D01*
X165510336Y-136773784D01*
X165421740Y-136881740D01*
X165313784Y-136970336D01*
X165190625Y-137036166D01*
X165056979Y-137076707D01*
X164911860Y-137091000D01*
X162748140Y-137091000D01*
X162603021Y-137076707D01*
X162469375Y-137036166D01*
X162346216Y-136970336D01*
X162238260Y-136881740D01*
X162149664Y-136773784D01*
X162083834Y-136650625D01*
X162043293Y-136516979D01*
X162029000Y-136371860D01*
X162029000Y-134708140D01*
X162043293Y-134563021D01*
X162083834Y-134429375D01*
X162149664Y-134306216D01*
X162238260Y-134198260D01*
X162346216Y-134109664D01*
X162469375Y-134043834D01*
X162603021Y-134003293D01*
X162748140Y-133989000D01*
X164911860Y-133989000D01*
X165056979Y-134003293D01*
G37*
G36*
X154515979Y-134003293D02*
G01*
X154649625Y-134043834D01*
X154772784Y-134109664D01*
X154880740Y-134198260D01*
X154969336Y-134306216D01*
X155035166Y-134429375D01*
X155075707Y-134563021D01*
X155090000Y-134708140D01*
X155090000Y-136371860D01*
X155075707Y-136516979D01*
X155035166Y-136650625D01*
X154969336Y-136773784D01*
X154880740Y-136881740D01*
X154772784Y-136970336D01*
X154649625Y-137036166D01*
X154515979Y-137076707D01*
X154370860Y-137091000D01*
X152207140Y-137091000D01*
X152062021Y-137076707D01*
X151928375Y-137036166D01*
X151805216Y-136970336D01*
X151697260Y-136881740D01*
X151608664Y-136773784D01*
X151542834Y-136650625D01*
X151502293Y-136516979D01*
X151488000Y-136371860D01*
X151488000Y-134708140D01*
X151502293Y-134563021D01*
X151542834Y-134429375D01*
X151608664Y-134306216D01*
X151697260Y-134198260D01*
X151805216Y-134109664D01*
X151928375Y-134043834D01*
X152062021Y-134003293D01*
X152207140Y-133989000D01*
X154370860Y-133989000D01*
X154515979Y-134003293D01*
G37*
G36*
X143974979Y-134003293D02*
G01*
X144108625Y-134043834D01*
X144231784Y-134109664D01*
X144339740Y-134198260D01*
X144428336Y-134306216D01*
X144494166Y-134429375D01*
X144534707Y-134563021D01*
X144549000Y-134708140D01*
X144549000Y-136371860D01*
X144534707Y-136516979D01*
X144494166Y-136650625D01*
X144428336Y-136773784D01*
X144339740Y-136881740D01*
X144231784Y-136970336D01*
X144108625Y-137036166D01*
X143974979Y-137076707D01*
X143829860Y-137091000D01*
X141666140Y-137091000D01*
X141521021Y-137076707D01*
X141387375Y-137036166D01*
X141264216Y-136970336D01*
X141156260Y-136881740D01*
X141067664Y-136773784D01*
X141001834Y-136650625D01*
X140961293Y-136516979D01*
X140947000Y-136371860D01*
X140947000Y-134708140D01*
X140961293Y-134563021D01*
X141001834Y-134429375D01*
X141067664Y-134306216D01*
X141156260Y-134198260D01*
X141264216Y-134109664D01*
X141387375Y-134043834D01*
X141521021Y-134003293D01*
X141666140Y-133989000D01*
X143829860Y-133989000D01*
X143974979Y-134003293D01*
G37*
G36*
X133433979Y-134003293D02*
G01*
X133567625Y-134043834D01*
X133690784Y-134109664D01*
X133798740Y-134198260D01*
X133887336Y-134306216D01*
X133953166Y-134429375D01*
X133993707Y-134563021D01*
X134008000Y-134708140D01*
X134008000Y-136371860D01*
X133993707Y-136516979D01*
X133953166Y-136650625D01*
X133887336Y-136773784D01*
X133798740Y-136881740D01*
X133690784Y-136970336D01*
X133567625Y-137036166D01*
X133433979Y-137076707D01*
X133288860Y-137091000D01*
X131125140Y-137091000D01*
X130980021Y-137076707D01*
X130846375Y-137036166D01*
X130723216Y-136970336D01*
X130615260Y-136881740D01*
X130526664Y-136773784D01*
X130460834Y-136650625D01*
X130420293Y-136516979D01*
X130406000Y-136371860D01*
X130406000Y-134708140D01*
X130420293Y-134563021D01*
X130460834Y-134429375D01*
X130526664Y-134306216D01*
X130615260Y-134198260D01*
X130723216Y-134109664D01*
X130846375Y-134043834D01*
X130980021Y-134003293D01*
X131125140Y-133989000D01*
X133288860Y-133989000D01*
X133433979Y-134003293D01*
G37*
G36*
X122892979Y-134003293D02*
G01*
X123026625Y-134043834D01*
X123149784Y-134109664D01*
X123257740Y-134198260D01*
X123346336Y-134306216D01*
X123412166Y-134429375D01*
X123452707Y-134563021D01*
X123467000Y-134708140D01*
X123467000Y-136371860D01*
X123452707Y-136516979D01*
X123412166Y-136650625D01*
X123346336Y-136773784D01*
X123257740Y-136881740D01*
X123149784Y-136970336D01*
X123026625Y-137036166D01*
X122892979Y-137076707D01*
X122747860Y-137091000D01*
X120584140Y-137091000D01*
X120439021Y-137076707D01*
X120305375Y-137036166D01*
X120182216Y-136970336D01*
X120074260Y-136881740D01*
X119985664Y-136773784D01*
X119919834Y-136650625D01*
X119879293Y-136516979D01*
X119865000Y-136371860D01*
X119865000Y-134708140D01*
X119879293Y-134563021D01*
X119919834Y-134429375D01*
X119985664Y-134306216D01*
X120074260Y-134198260D01*
X120182216Y-134109664D01*
X120305375Y-134043834D01*
X120439021Y-134003293D01*
X120584140Y-133989000D01*
X122747860Y-133989000D01*
X122892979Y-134003293D01*
G37*
G36*
X112351979Y-134003293D02*
G01*
X112485625Y-134043834D01*
X112608784Y-134109664D01*
X112716740Y-134198260D01*
X112805336Y-134306216D01*
X112871166Y-134429375D01*
X112911707Y-134563021D01*
X112926000Y-134708140D01*
X112926000Y-136371860D01*
X112911707Y-136516979D01*
X112871166Y-136650625D01*
X112805336Y-136773784D01*
X112716740Y-136881740D01*
X112608784Y-136970336D01*
X112485625Y-137036166D01*
X112351979Y-137076707D01*
X112206860Y-137091000D01*
X110043140Y-137091000D01*
X109898021Y-137076707D01*
X109764375Y-137036166D01*
X109641216Y-136970336D01*
X109533260Y-136881740D01*
X109444664Y-136773784D01*
X109378834Y-136650625D01*
X109338293Y-136516979D01*
X109324000Y-136371860D01*
X109324000Y-134708140D01*
X109338293Y-134563021D01*
X109378834Y-134429375D01*
X109444664Y-134306216D01*
X109533260Y-134198260D01*
X109641216Y-134109664D01*
X109764375Y-134043834D01*
X109898021Y-134003293D01*
X110043140Y-133989000D01*
X112206860Y-133989000D01*
X112351979Y-134003293D01*
G37*
G36*
X101810979Y-134003293D02*
G01*
X101944625Y-134043834D01*
X102067784Y-134109664D01*
X102175740Y-134198260D01*
X102264336Y-134306216D01*
X102330166Y-134429375D01*
X102370707Y-134563021D01*
X102385000Y-134708140D01*
X102385000Y-136371860D01*
X102370707Y-136516979D01*
X102330166Y-136650625D01*
X102264336Y-136773784D01*
X102175740Y-136881740D01*
X102067784Y-136970336D01*
X101944625Y-137036166D01*
X101810979Y-137076707D01*
X101665860Y-137091000D01*
X99502140Y-137091000D01*
X99357021Y-137076707D01*
X99223375Y-137036166D01*
X99100216Y-136970336D01*
X98992260Y-136881740D01*
X98903664Y-136773784D01*
X98837834Y-136650625D01*
X98797293Y-136516979D01*
X98783000Y-136371860D01*
X98783000Y-134708140D01*
X98797293Y-134563021D01*
X98837834Y-134429375D01*
X98903664Y-134306216D01*
X98992260Y-134198260D01*
X99100216Y-134109664D01*
X99223375Y-134043834D01*
X99357021Y-134003293D01*
X99502140Y-133989000D01*
X101665860Y-133989000D01*
X101810979Y-134003293D01*
G37*
G36*
X190738366Y-130755695D02*
G01*
X190895460Y-130803349D01*
X191040231Y-130880731D01*
X191167128Y-130984872D01*
X191271269Y-131111769D01*
X191348651Y-131256540D01*
X191396305Y-131413634D01*
X191413000Y-131583140D01*
X191413000Y-133496860D01*
X191396305Y-133666366D01*
X191348651Y-133823460D01*
X191271269Y-133968231D01*
X191167128Y-134095128D01*
X191040231Y-134199269D01*
X190895460Y-134276651D01*
X190738366Y-134324305D01*
X190568860Y-134341000D01*
X188655140Y-134341000D01*
X188485634Y-134324305D01*
X188328540Y-134276651D01*
X188183769Y-134199269D01*
X188056872Y-134095128D01*
X187952731Y-133968231D01*
X187875349Y-133823460D01*
X187827695Y-133666366D01*
X187811000Y-133496860D01*
X187811000Y-131583140D01*
X187827695Y-131413634D01*
X187875349Y-131256540D01*
X187952731Y-131111769D01*
X188056872Y-130984872D01*
X188183769Y-130880731D01*
X188328540Y-130803349D01*
X188485634Y-130755695D01*
X188655140Y-130739000D01*
X190568860Y-130739000D01*
X190738366Y-130755695D01*
G37*
G36*
X180197366Y-130755695D02*
G01*
X180354460Y-130803349D01*
X180499231Y-130880731D01*
X180626128Y-130984872D01*
X180730269Y-131111769D01*
X180807651Y-131256540D01*
X180855305Y-131413634D01*
X180872000Y-131583140D01*
X180872000Y-133496860D01*
X180855305Y-133666366D01*
X180807651Y-133823460D01*
X180730269Y-133968231D01*
X180626128Y-134095128D01*
X180499231Y-134199269D01*
X180354460Y-134276651D01*
X180197366Y-134324305D01*
X180027860Y-134341000D01*
X178114140Y-134341000D01*
X177944634Y-134324305D01*
X177787540Y-134276651D01*
X177642769Y-134199269D01*
X177515872Y-134095128D01*
X177411731Y-133968231D01*
X177334349Y-133823460D01*
X177286695Y-133666366D01*
X177270000Y-133496860D01*
X177270000Y-131583140D01*
X177286695Y-131413634D01*
X177334349Y-131256540D01*
X177411731Y-131111769D01*
X177515872Y-130984872D01*
X177642769Y-130880731D01*
X177787540Y-130803349D01*
X177944634Y-130755695D01*
X178114140Y-130739000D01*
X180027860Y-130739000D01*
X180197366Y-130755695D01*
G37*
G36*
X169656366Y-130755695D02*
G01*
X169813460Y-130803349D01*
X169958231Y-130880731D01*
X170085128Y-130984872D01*
X170189269Y-131111769D01*
X170266651Y-131256540D01*
X170314305Y-131413634D01*
X170331000Y-131583140D01*
X170331000Y-133496860D01*
X170314305Y-133666366D01*
X170266651Y-133823460D01*
X170189269Y-133968231D01*
X170085128Y-134095128D01*
X169958231Y-134199269D01*
X169813460Y-134276651D01*
X169656366Y-134324305D01*
X169486860Y-134341000D01*
X167573140Y-134341000D01*
X167403634Y-134324305D01*
X167246540Y-134276651D01*
X167101769Y-134199269D01*
X166974872Y-134095128D01*
X166870731Y-133968231D01*
X166793349Y-133823460D01*
X166745695Y-133666366D01*
X166729000Y-133496860D01*
X166729000Y-131583140D01*
X166745695Y-131413634D01*
X166793349Y-131256540D01*
X166870731Y-131111769D01*
X166974872Y-130984872D01*
X167101769Y-130880731D01*
X167246540Y-130803349D01*
X167403634Y-130755695D01*
X167573140Y-130739000D01*
X169486860Y-130739000D01*
X169656366Y-130755695D01*
G37*
G36*
X159115366Y-130755695D02*
G01*
X159272460Y-130803349D01*
X159417231Y-130880731D01*
X159544128Y-130984872D01*
X159648269Y-131111769D01*
X159725651Y-131256540D01*
X159773305Y-131413634D01*
X159790000Y-131583140D01*
X159790000Y-133496860D01*
X159773305Y-133666366D01*
X159725651Y-133823460D01*
X159648269Y-133968231D01*
X159544128Y-134095128D01*
X159417231Y-134199269D01*
X159272460Y-134276651D01*
X159115366Y-134324305D01*
X158945860Y-134341000D01*
X157032140Y-134341000D01*
X156862634Y-134324305D01*
X156705540Y-134276651D01*
X156560769Y-134199269D01*
X156433872Y-134095128D01*
X156329731Y-133968231D01*
X156252349Y-133823460D01*
X156204695Y-133666366D01*
X156188000Y-133496860D01*
X156188000Y-131583140D01*
X156204695Y-131413634D01*
X156252349Y-131256540D01*
X156329731Y-131111769D01*
X156433872Y-130984872D01*
X156560769Y-130880731D01*
X156705540Y-130803349D01*
X156862634Y-130755695D01*
X157032140Y-130739000D01*
X158945860Y-130739000D01*
X159115366Y-130755695D01*
G37*
G36*
X148574366Y-130755695D02*
G01*
X148731460Y-130803349D01*
X148876231Y-130880731D01*
X149003128Y-130984872D01*
X149107269Y-131111769D01*
X149184651Y-131256540D01*
X149232305Y-131413634D01*
X149249000Y-131583140D01*
X149249000Y-133496860D01*
X149232305Y-133666366D01*
X149184651Y-133823460D01*
X149107269Y-133968231D01*
X149003128Y-134095128D01*
X148876231Y-134199269D01*
X148731460Y-134276651D01*
X148574366Y-134324305D01*
X148404860Y-134341000D01*
X146491140Y-134341000D01*
X146321634Y-134324305D01*
X146164540Y-134276651D01*
X146019769Y-134199269D01*
X145892872Y-134095128D01*
X145788731Y-133968231D01*
X145711349Y-133823460D01*
X145663695Y-133666366D01*
X145647000Y-133496860D01*
X145647000Y-131583140D01*
X145663695Y-131413634D01*
X145711349Y-131256540D01*
X145788731Y-131111769D01*
X145892872Y-130984872D01*
X146019769Y-130880731D01*
X146164540Y-130803349D01*
X146321634Y-130755695D01*
X146491140Y-130739000D01*
X148404860Y-130739000D01*
X148574366Y-130755695D01*
G37*
G36*
X106410366Y-130755695D02*
G01*
X106567460Y-130803349D01*
X106712231Y-130880731D01*
X106839128Y-130984872D01*
X106943269Y-131111769D01*
X107020651Y-131256540D01*
X107068305Y-131413634D01*
X107085000Y-131583140D01*
X107085000Y-133496860D01*
X107068305Y-133666366D01*
X107020651Y-133823460D01*
X106943269Y-133968231D01*
X106839128Y-134095128D01*
X106712231Y-134199269D01*
X106567460Y-134276651D01*
X106410366Y-134324305D01*
X106240860Y-134341000D01*
X104327140Y-134341000D01*
X104157634Y-134324305D01*
X104000540Y-134276651D01*
X103855769Y-134199269D01*
X103728872Y-134095128D01*
X103624731Y-133968231D01*
X103547349Y-133823460D01*
X103499695Y-133666366D01*
X103483000Y-133496860D01*
X103483000Y-131583140D01*
X103499695Y-131413634D01*
X103547349Y-131256540D01*
X103624731Y-131111769D01*
X103728872Y-130984872D01*
X103855769Y-130880731D01*
X104000540Y-130803349D01*
X104157634Y-130755695D01*
X104327140Y-130739000D01*
X106240860Y-130739000D01*
X106410366Y-130755695D01*
G37*
G36*
X138033366Y-130755695D02*
G01*
X138190460Y-130803349D01*
X138335231Y-130880731D01*
X138462128Y-130984872D01*
X138566269Y-131111769D01*
X138643651Y-131256540D01*
X138691305Y-131413634D01*
X138708000Y-131583140D01*
X138708000Y-133496860D01*
X138691305Y-133666366D01*
X138643651Y-133823460D01*
X138566269Y-133968231D01*
X138462128Y-134095128D01*
X138335231Y-134199269D01*
X138190460Y-134276651D01*
X138033366Y-134324305D01*
X137863860Y-134341000D01*
X135950140Y-134341000D01*
X135780634Y-134324305D01*
X135623540Y-134276651D01*
X135478769Y-134199269D01*
X135351872Y-134095128D01*
X135247731Y-133968231D01*
X135170349Y-133823460D01*
X135122695Y-133666366D01*
X135106000Y-133496860D01*
X135106000Y-131583140D01*
X135122695Y-131413634D01*
X135170349Y-131256540D01*
X135247731Y-131111769D01*
X135351872Y-130984872D01*
X135478769Y-130880731D01*
X135623540Y-130803349D01*
X135780634Y-130755695D01*
X135950140Y-130739000D01*
X137863860Y-130739000D01*
X138033366Y-130755695D01*
G37*
G36*
X116951366Y-130755695D02*
G01*
X117108460Y-130803349D01*
X117253231Y-130880731D01*
X117380128Y-130984872D01*
X117484269Y-131111769D01*
X117561651Y-131256540D01*
X117609305Y-131413634D01*
X117626000Y-131583140D01*
X117626000Y-133496860D01*
X117609305Y-133666366D01*
X117561651Y-133823460D01*
X117484269Y-133968231D01*
X117380128Y-134095128D01*
X117253231Y-134199269D01*
X117108460Y-134276651D01*
X116951366Y-134324305D01*
X116781860Y-134341000D01*
X114868140Y-134341000D01*
X114698634Y-134324305D01*
X114541540Y-134276651D01*
X114396769Y-134199269D01*
X114269872Y-134095128D01*
X114165731Y-133968231D01*
X114088349Y-133823460D01*
X114040695Y-133666366D01*
X114024000Y-133496860D01*
X114024000Y-131583140D01*
X114040695Y-131413634D01*
X114088349Y-131256540D01*
X114165731Y-131111769D01*
X114269872Y-130984872D01*
X114396769Y-130880731D01*
X114541540Y-130803349D01*
X114698634Y-130755695D01*
X114868140Y-130739000D01*
X116781860Y-130739000D01*
X116951366Y-130755695D01*
G37*
G36*
X127492366Y-130755695D02*
G01*
X127649460Y-130803349D01*
X127794231Y-130880731D01*
X127921128Y-130984872D01*
X128025269Y-131111769D01*
X128102651Y-131256540D01*
X128150305Y-131413634D01*
X128167000Y-131583140D01*
X128167000Y-133496860D01*
X128150305Y-133666366D01*
X128102651Y-133823460D01*
X128025269Y-133968231D01*
X127921128Y-134095128D01*
X127794231Y-134199269D01*
X127649460Y-134276651D01*
X127492366Y-134324305D01*
X127322860Y-134341000D01*
X125409140Y-134341000D01*
X125239634Y-134324305D01*
X125082540Y-134276651D01*
X124937769Y-134199269D01*
X124810872Y-134095128D01*
X124706731Y-133968231D01*
X124629349Y-133823460D01*
X124581695Y-133666366D01*
X124565000Y-133496860D01*
X124565000Y-131583140D01*
X124581695Y-131413634D01*
X124629349Y-131256540D01*
X124706731Y-131111769D01*
X124810872Y-130984872D01*
X124937769Y-130880731D01*
X125082540Y-130803349D01*
X125239634Y-130755695D01*
X125409140Y-130739000D01*
X127322860Y-130739000D01*
X127492366Y-130755695D01*
G37*
G36*
X134008000Y-131341000D02*
G01*
X130406000Y-131341000D01*
X130406000Y-127739000D01*
X134008000Y-127739000D01*
X134008000Y-131341000D01*
G37*
G36*
X123467000Y-131341000D02*
G01*
X119865000Y-131341000D01*
X119865000Y-127739000D01*
X123467000Y-127739000D01*
X123467000Y-131341000D01*
G37*
G36*
X112926000Y-131341000D02*
G01*
X109324000Y-131341000D01*
X109324000Y-127739000D01*
X112926000Y-127739000D01*
X112926000Y-131341000D01*
G37*
G36*
X144549000Y-131341000D02*
G01*
X140947000Y-131341000D01*
X140947000Y-127739000D01*
X144549000Y-127739000D01*
X144549000Y-131341000D01*
G37*
G36*
X186713000Y-131341000D02*
G01*
X183111000Y-131341000D01*
X183111000Y-127739000D01*
X186713000Y-127739000D01*
X186713000Y-131341000D01*
G37*
G36*
X102385000Y-131341000D02*
G01*
X98783000Y-131341000D01*
X98783000Y-127739000D01*
X102385000Y-127739000D01*
X102385000Y-131341000D01*
G37*
G36*
X155090000Y-131341000D02*
G01*
X151488000Y-131341000D01*
X151488000Y-127739000D01*
X155090000Y-127739000D01*
X155090000Y-131341000D01*
G37*
G36*
X165631000Y-131341000D02*
G01*
X162029000Y-131341000D01*
X162029000Y-127739000D01*
X165631000Y-127739000D01*
X165631000Y-131341000D01*
G37*
G36*
X176172000Y-131341000D02*
G01*
X172570000Y-131341000D01*
X172570000Y-127739000D01*
X176172000Y-127739000D01*
X176172000Y-131341000D01*
G37*
G36*
X119950000Y-112584000D02*
G01*
X118048000Y-112584000D01*
X118048000Y-110682000D01*
X119950000Y-110682000D01*
X119950000Y-112584000D01*
G37*
G36*
X115212395Y-110718546D02*
G01*
X115385466Y-110790234D01*
X115385467Y-110790235D01*
X115541227Y-110894310D01*
X115673690Y-111026773D01*
X115673691Y-111026775D01*
X115777766Y-111182534D01*
X115849454Y-111355605D01*
X115886000Y-111539333D01*
X115886000Y-111726667D01*
X115849454Y-111910395D01*
X115777766Y-112083466D01*
X115777765Y-112083467D01*
X115673690Y-112239227D01*
X115541227Y-112371690D01*
X115462818Y-112424081D01*
X115385466Y-112475766D01*
X115212395Y-112547454D01*
X115028667Y-112584000D01*
X114841333Y-112584000D01*
X114657605Y-112547454D01*
X114484534Y-112475766D01*
X114407182Y-112424081D01*
X114328773Y-112371690D01*
X114196310Y-112239227D01*
X114092235Y-112083467D01*
X114092234Y-112083466D01*
X114020546Y-111910395D01*
X113984000Y-111726667D01*
X113984000Y-111539333D01*
X114020546Y-111355605D01*
X114092234Y-111182534D01*
X114196309Y-111026775D01*
X114196310Y-111026773D01*
X114328773Y-110894310D01*
X114484533Y-110790235D01*
X114484534Y-110790234D01*
X114657605Y-110718546D01*
X114841333Y-110682000D01*
X115028667Y-110682000D01*
X115212395Y-110718546D01*
G37*
G36*
X113053395Y-110718546D02*
G01*
X113226466Y-110790234D01*
X113226467Y-110790235D01*
X113382227Y-110894310D01*
X113514690Y-111026773D01*
X113514691Y-111026775D01*
X113618766Y-111182534D01*
X113690454Y-111355605D01*
X113727000Y-111539333D01*
X113727000Y-111726667D01*
X113690454Y-111910395D01*
X113618766Y-112083466D01*
X113618765Y-112083467D01*
X113514690Y-112239227D01*
X113382227Y-112371690D01*
X113303818Y-112424081D01*
X113226466Y-112475766D01*
X113053395Y-112547454D01*
X112869667Y-112584000D01*
X112682333Y-112584000D01*
X112498605Y-112547454D01*
X112325534Y-112475766D01*
X112248182Y-112424081D01*
X112169773Y-112371690D01*
X112037310Y-112239227D01*
X111933235Y-112083467D01*
X111933234Y-112083466D01*
X111861546Y-111910395D01*
X111825000Y-111726667D01*
X111825000Y-111539333D01*
X111861546Y-111355605D01*
X111933234Y-111182534D01*
X112037309Y-111026775D01*
X112037310Y-111026773D01*
X112169773Y-110894310D01*
X112325533Y-110790235D01*
X112325534Y-110790234D01*
X112498605Y-110718546D01*
X112682333Y-110682000D01*
X112869667Y-110682000D01*
X113053395Y-110718546D01*
G37*
G36*
X110894395Y-110718546D02*
G01*
X111067466Y-110790234D01*
X111067467Y-110790235D01*
X111223227Y-110894310D01*
X111355690Y-111026773D01*
X111355691Y-111026775D01*
X111459766Y-111182534D01*
X111531454Y-111355605D01*
X111568000Y-111539333D01*
X111568000Y-111726667D01*
X111531454Y-111910395D01*
X111459766Y-112083466D01*
X111459765Y-112083467D01*
X111355690Y-112239227D01*
X111223227Y-112371690D01*
X111144818Y-112424081D01*
X111067466Y-112475766D01*
X110894395Y-112547454D01*
X110710667Y-112584000D01*
X110523333Y-112584000D01*
X110339605Y-112547454D01*
X110166534Y-112475766D01*
X110089182Y-112424081D01*
X110010773Y-112371690D01*
X109878310Y-112239227D01*
X109774235Y-112083467D01*
X109774234Y-112083466D01*
X109702546Y-111910395D01*
X109666000Y-111726667D01*
X109666000Y-111539333D01*
X109702546Y-111355605D01*
X109774234Y-111182534D01*
X109878309Y-111026775D01*
X109878310Y-111026773D01*
X110010773Y-110894310D01*
X110166533Y-110790235D01*
X110166534Y-110790234D01*
X110339605Y-110718546D01*
X110523333Y-110682000D01*
X110710667Y-110682000D01*
X110894395Y-110718546D01*
G37*
G36*
X109409000Y-112584000D02*
G01*
X107507000Y-112584000D01*
X107507000Y-110682000D01*
X109409000Y-110682000D01*
X109409000Y-112584000D01*
G37*
G36*
X104671395Y-110718546D02*
G01*
X104844466Y-110790234D01*
X104844467Y-110790235D01*
X105000227Y-110894310D01*
X105132690Y-111026773D01*
X105132691Y-111026775D01*
X105236766Y-111182534D01*
X105308454Y-111355605D01*
X105345000Y-111539333D01*
X105345000Y-111726667D01*
X105308454Y-111910395D01*
X105236766Y-112083466D01*
X105236765Y-112083467D01*
X105132690Y-112239227D01*
X105000227Y-112371690D01*
X104921818Y-112424081D01*
X104844466Y-112475766D01*
X104671395Y-112547454D01*
X104487667Y-112584000D01*
X104300333Y-112584000D01*
X104116605Y-112547454D01*
X103943534Y-112475766D01*
X103866182Y-112424081D01*
X103787773Y-112371690D01*
X103655310Y-112239227D01*
X103551235Y-112083467D01*
X103551234Y-112083466D01*
X103479546Y-111910395D01*
X103443000Y-111726667D01*
X103443000Y-111539333D01*
X103479546Y-111355605D01*
X103551234Y-111182534D01*
X103655309Y-111026775D01*
X103655310Y-111026773D01*
X103787773Y-110894310D01*
X103943533Y-110790235D01*
X103943534Y-110790234D01*
X104116605Y-110718546D01*
X104300333Y-110682000D01*
X104487667Y-110682000D01*
X104671395Y-110718546D01*
G37*
G36*
X102512395Y-110718546D02*
G01*
X102685466Y-110790234D01*
X102685467Y-110790235D01*
X102841227Y-110894310D01*
X102973690Y-111026773D01*
X102973691Y-111026775D01*
X103077766Y-111182534D01*
X103149454Y-111355605D01*
X103186000Y-111539333D01*
X103186000Y-111726667D01*
X103149454Y-111910395D01*
X103077766Y-112083466D01*
X103077765Y-112083467D01*
X102973690Y-112239227D01*
X102841227Y-112371690D01*
X102762818Y-112424081D01*
X102685466Y-112475766D01*
X102512395Y-112547454D01*
X102328667Y-112584000D01*
X102141333Y-112584000D01*
X101957605Y-112547454D01*
X101784534Y-112475766D01*
X101707182Y-112424081D01*
X101628773Y-112371690D01*
X101496310Y-112239227D01*
X101392235Y-112083467D01*
X101392234Y-112083466D01*
X101320546Y-111910395D01*
X101284000Y-111726667D01*
X101284000Y-111539333D01*
X101320546Y-111355605D01*
X101392234Y-111182534D01*
X101496309Y-111026775D01*
X101496310Y-111026773D01*
X101628773Y-110894310D01*
X101784533Y-110790235D01*
X101784534Y-110790234D01*
X101957605Y-110718546D01*
X102141333Y-110682000D01*
X102328667Y-110682000D01*
X102512395Y-110718546D01*
G37*
G36*
X100353395Y-110718546D02*
G01*
X100526466Y-110790234D01*
X100526467Y-110790235D01*
X100682227Y-110894310D01*
X100814690Y-111026773D01*
X100814691Y-111026775D01*
X100918766Y-111182534D01*
X100990454Y-111355605D01*
X101027000Y-111539333D01*
X101027000Y-111726667D01*
X100990454Y-111910395D01*
X100918766Y-112083466D01*
X100918765Y-112083467D01*
X100814690Y-112239227D01*
X100682227Y-112371690D01*
X100603818Y-112424081D01*
X100526466Y-112475766D01*
X100353395Y-112547454D01*
X100169667Y-112584000D01*
X99982333Y-112584000D01*
X99798605Y-112547454D01*
X99625534Y-112475766D01*
X99548182Y-112424081D01*
X99469773Y-112371690D01*
X99337310Y-112239227D01*
X99233235Y-112083467D01*
X99233234Y-112083466D01*
X99161546Y-111910395D01*
X99125000Y-111726667D01*
X99125000Y-111539333D01*
X99161546Y-111355605D01*
X99233234Y-111182534D01*
X99337309Y-111026775D01*
X99337310Y-111026773D01*
X99469773Y-110894310D01*
X99625533Y-110790235D01*
X99625534Y-110790234D01*
X99798605Y-110718546D01*
X99982333Y-110682000D01*
X100169667Y-110682000D01*
X100353395Y-110718546D01*
G37*
G36*
X98868000Y-112584000D02*
G01*
X96966000Y-112584000D01*
X96966000Y-110682000D01*
X98868000Y-110682000D01*
X98868000Y-112584000D01*
G37*
G36*
X188999395Y-110718546D02*
G01*
X189172466Y-110790234D01*
X189172467Y-110790235D01*
X189328227Y-110894310D01*
X189460690Y-111026773D01*
X189460691Y-111026775D01*
X189564766Y-111182534D01*
X189636454Y-111355605D01*
X189673000Y-111539333D01*
X189673000Y-111726667D01*
X189636454Y-111910395D01*
X189564766Y-112083466D01*
X189564765Y-112083467D01*
X189460690Y-112239227D01*
X189328227Y-112371690D01*
X189249818Y-112424081D01*
X189172466Y-112475766D01*
X188999395Y-112547454D01*
X188815667Y-112584000D01*
X188628333Y-112584000D01*
X188444605Y-112547454D01*
X188271534Y-112475766D01*
X188194182Y-112424081D01*
X188115773Y-112371690D01*
X187983310Y-112239227D01*
X187879235Y-112083467D01*
X187879234Y-112083466D01*
X187807546Y-111910395D01*
X187771000Y-111726667D01*
X187771000Y-111539333D01*
X187807546Y-111355605D01*
X187879234Y-111182534D01*
X187983309Y-111026775D01*
X187983310Y-111026773D01*
X188115773Y-110894310D01*
X188271533Y-110790235D01*
X188271534Y-110790234D01*
X188444605Y-110718546D01*
X188628333Y-110682000D01*
X188815667Y-110682000D01*
X188999395Y-110718546D01*
G37*
G36*
X186840395Y-110718546D02*
G01*
X187013466Y-110790234D01*
X187013467Y-110790235D01*
X187169227Y-110894310D01*
X187301690Y-111026773D01*
X187301691Y-111026775D01*
X187405766Y-111182534D01*
X187477454Y-111355605D01*
X187514000Y-111539333D01*
X187514000Y-111726667D01*
X187477454Y-111910395D01*
X187405766Y-112083466D01*
X187405765Y-112083467D01*
X187301690Y-112239227D01*
X187169227Y-112371690D01*
X187090818Y-112424081D01*
X187013466Y-112475766D01*
X186840395Y-112547454D01*
X186656667Y-112584000D01*
X186469333Y-112584000D01*
X186285605Y-112547454D01*
X186112534Y-112475766D01*
X186035182Y-112424081D01*
X185956773Y-112371690D01*
X185824310Y-112239227D01*
X185720235Y-112083467D01*
X185720234Y-112083466D01*
X185648546Y-111910395D01*
X185612000Y-111726667D01*
X185612000Y-111539333D01*
X185648546Y-111355605D01*
X185720234Y-111182534D01*
X185824309Y-111026775D01*
X185824310Y-111026773D01*
X185956773Y-110894310D01*
X186112533Y-110790235D01*
X186112534Y-110790234D01*
X186285605Y-110718546D01*
X186469333Y-110682000D01*
X186656667Y-110682000D01*
X186840395Y-110718546D01*
G37*
G36*
X184681395Y-110718546D02*
G01*
X184854466Y-110790234D01*
X184854467Y-110790235D01*
X185010227Y-110894310D01*
X185142690Y-111026773D01*
X185142691Y-111026775D01*
X185246766Y-111182534D01*
X185318454Y-111355605D01*
X185355000Y-111539333D01*
X185355000Y-111726667D01*
X185318454Y-111910395D01*
X185246766Y-112083466D01*
X185246765Y-112083467D01*
X185142690Y-112239227D01*
X185010227Y-112371690D01*
X184931818Y-112424081D01*
X184854466Y-112475766D01*
X184681395Y-112547454D01*
X184497667Y-112584000D01*
X184310333Y-112584000D01*
X184126605Y-112547454D01*
X183953534Y-112475766D01*
X183876182Y-112424081D01*
X183797773Y-112371690D01*
X183665310Y-112239227D01*
X183561235Y-112083467D01*
X183561234Y-112083466D01*
X183489546Y-111910395D01*
X183453000Y-111726667D01*
X183453000Y-111539333D01*
X183489546Y-111355605D01*
X183561234Y-111182534D01*
X183665309Y-111026775D01*
X183665310Y-111026773D01*
X183797773Y-110894310D01*
X183953533Y-110790235D01*
X183953534Y-110790234D01*
X184126605Y-110718546D01*
X184310333Y-110682000D01*
X184497667Y-110682000D01*
X184681395Y-110718546D01*
G37*
G36*
X183196000Y-112584000D02*
G01*
X181294000Y-112584000D01*
X181294000Y-110682000D01*
X183196000Y-110682000D01*
X183196000Y-112584000D01*
G37*
G36*
X178458395Y-110718546D02*
G01*
X178631466Y-110790234D01*
X178631467Y-110790235D01*
X178787227Y-110894310D01*
X178919690Y-111026773D01*
X178919691Y-111026775D01*
X179023766Y-111182534D01*
X179095454Y-111355605D01*
X179132000Y-111539333D01*
X179132000Y-111726667D01*
X179095454Y-111910395D01*
X179023766Y-112083466D01*
X179023765Y-112083467D01*
X178919690Y-112239227D01*
X178787227Y-112371690D01*
X178708818Y-112424081D01*
X178631466Y-112475766D01*
X178458395Y-112547454D01*
X178274667Y-112584000D01*
X178087333Y-112584000D01*
X177903605Y-112547454D01*
X177730534Y-112475766D01*
X177653182Y-112424081D01*
X177574773Y-112371690D01*
X177442310Y-112239227D01*
X177338235Y-112083467D01*
X177338234Y-112083466D01*
X177266546Y-111910395D01*
X177230000Y-111726667D01*
X177230000Y-111539333D01*
X177266546Y-111355605D01*
X177338234Y-111182534D01*
X177442309Y-111026775D01*
X177442310Y-111026773D01*
X177574773Y-110894310D01*
X177730533Y-110790235D01*
X177730534Y-110790234D01*
X177903605Y-110718546D01*
X178087333Y-110682000D01*
X178274667Y-110682000D01*
X178458395Y-110718546D01*
G37*
G36*
X176299395Y-110718546D02*
G01*
X176472466Y-110790234D01*
X176472467Y-110790235D01*
X176628227Y-110894310D01*
X176760690Y-111026773D01*
X176760691Y-111026775D01*
X176864766Y-111182534D01*
X176936454Y-111355605D01*
X176973000Y-111539333D01*
X176973000Y-111726667D01*
X176936454Y-111910395D01*
X176864766Y-112083466D01*
X176864765Y-112083467D01*
X176760690Y-112239227D01*
X176628227Y-112371690D01*
X176549818Y-112424081D01*
X176472466Y-112475766D01*
X176299395Y-112547454D01*
X176115667Y-112584000D01*
X175928333Y-112584000D01*
X175744605Y-112547454D01*
X175571534Y-112475766D01*
X175494182Y-112424081D01*
X175415773Y-112371690D01*
X175283310Y-112239227D01*
X175179235Y-112083467D01*
X175179234Y-112083466D01*
X175107546Y-111910395D01*
X175071000Y-111726667D01*
X175071000Y-111539333D01*
X175107546Y-111355605D01*
X175179234Y-111182534D01*
X175283309Y-111026775D01*
X175283310Y-111026773D01*
X175415773Y-110894310D01*
X175571533Y-110790235D01*
X175571534Y-110790234D01*
X175744605Y-110718546D01*
X175928333Y-110682000D01*
X176115667Y-110682000D01*
X176299395Y-110718546D01*
G37*
G36*
X174140395Y-110718546D02*
G01*
X174313466Y-110790234D01*
X174313467Y-110790235D01*
X174469227Y-110894310D01*
X174601690Y-111026773D01*
X174601691Y-111026775D01*
X174705766Y-111182534D01*
X174777454Y-111355605D01*
X174814000Y-111539333D01*
X174814000Y-111726667D01*
X174777454Y-111910395D01*
X174705766Y-112083466D01*
X174705765Y-112083467D01*
X174601690Y-112239227D01*
X174469227Y-112371690D01*
X174390818Y-112424081D01*
X174313466Y-112475766D01*
X174140395Y-112547454D01*
X173956667Y-112584000D01*
X173769333Y-112584000D01*
X173585605Y-112547454D01*
X173412534Y-112475766D01*
X173335182Y-112424081D01*
X173256773Y-112371690D01*
X173124310Y-112239227D01*
X173020235Y-112083467D01*
X173020234Y-112083466D01*
X172948546Y-111910395D01*
X172912000Y-111726667D01*
X172912000Y-111539333D01*
X172948546Y-111355605D01*
X173020234Y-111182534D01*
X173124309Y-111026775D01*
X173124310Y-111026773D01*
X173256773Y-110894310D01*
X173412533Y-110790235D01*
X173412534Y-110790234D01*
X173585605Y-110718546D01*
X173769333Y-110682000D01*
X173956667Y-110682000D01*
X174140395Y-110718546D01*
G37*
G36*
X172655000Y-112584000D02*
G01*
X170753000Y-112584000D01*
X170753000Y-110682000D01*
X172655000Y-110682000D01*
X172655000Y-112584000D01*
G37*
G36*
X167917395Y-110718546D02*
G01*
X168090466Y-110790234D01*
X168090467Y-110790235D01*
X168246227Y-110894310D01*
X168378690Y-111026773D01*
X168378691Y-111026775D01*
X168482766Y-111182534D01*
X168554454Y-111355605D01*
X168591000Y-111539333D01*
X168591000Y-111726667D01*
X168554454Y-111910395D01*
X168482766Y-112083466D01*
X168482765Y-112083467D01*
X168378690Y-112239227D01*
X168246227Y-112371690D01*
X168167818Y-112424081D01*
X168090466Y-112475766D01*
X167917395Y-112547454D01*
X167733667Y-112584000D01*
X167546333Y-112584000D01*
X167362605Y-112547454D01*
X167189534Y-112475766D01*
X167112182Y-112424081D01*
X167033773Y-112371690D01*
X166901310Y-112239227D01*
X166797235Y-112083467D01*
X166797234Y-112083466D01*
X166725546Y-111910395D01*
X166689000Y-111726667D01*
X166689000Y-111539333D01*
X166725546Y-111355605D01*
X166797234Y-111182534D01*
X166901309Y-111026775D01*
X166901310Y-111026773D01*
X167033773Y-110894310D01*
X167189533Y-110790235D01*
X167189534Y-110790234D01*
X167362605Y-110718546D01*
X167546333Y-110682000D01*
X167733667Y-110682000D01*
X167917395Y-110718546D01*
G37*
G36*
X165758395Y-110718546D02*
G01*
X165931466Y-110790234D01*
X165931467Y-110790235D01*
X166087227Y-110894310D01*
X166219690Y-111026773D01*
X166219691Y-111026775D01*
X166323766Y-111182534D01*
X166395454Y-111355605D01*
X166432000Y-111539333D01*
X166432000Y-111726667D01*
X166395454Y-111910395D01*
X166323766Y-112083466D01*
X166323765Y-112083467D01*
X166219690Y-112239227D01*
X166087227Y-112371690D01*
X166008818Y-112424081D01*
X165931466Y-112475766D01*
X165758395Y-112547454D01*
X165574667Y-112584000D01*
X165387333Y-112584000D01*
X165203605Y-112547454D01*
X165030534Y-112475766D01*
X164953182Y-112424081D01*
X164874773Y-112371690D01*
X164742310Y-112239227D01*
X164638235Y-112083467D01*
X164638234Y-112083466D01*
X164566546Y-111910395D01*
X164530000Y-111726667D01*
X164530000Y-111539333D01*
X164566546Y-111355605D01*
X164638234Y-111182534D01*
X164742309Y-111026775D01*
X164742310Y-111026773D01*
X164874773Y-110894310D01*
X165030533Y-110790235D01*
X165030534Y-110790234D01*
X165203605Y-110718546D01*
X165387333Y-110682000D01*
X165574667Y-110682000D01*
X165758395Y-110718546D01*
G37*
G36*
X163599395Y-110718546D02*
G01*
X163772466Y-110790234D01*
X163772467Y-110790235D01*
X163928227Y-110894310D01*
X164060690Y-111026773D01*
X164060691Y-111026775D01*
X164164766Y-111182534D01*
X164236454Y-111355605D01*
X164273000Y-111539333D01*
X164273000Y-111726667D01*
X164236454Y-111910395D01*
X164164766Y-112083466D01*
X164164765Y-112083467D01*
X164060690Y-112239227D01*
X163928227Y-112371690D01*
X163849818Y-112424081D01*
X163772466Y-112475766D01*
X163599395Y-112547454D01*
X163415667Y-112584000D01*
X163228333Y-112584000D01*
X163044605Y-112547454D01*
X162871534Y-112475766D01*
X162794182Y-112424081D01*
X162715773Y-112371690D01*
X162583310Y-112239227D01*
X162479235Y-112083467D01*
X162479234Y-112083466D01*
X162407546Y-111910395D01*
X162371000Y-111726667D01*
X162371000Y-111539333D01*
X162407546Y-111355605D01*
X162479234Y-111182534D01*
X162583309Y-111026775D01*
X162583310Y-111026773D01*
X162715773Y-110894310D01*
X162871533Y-110790235D01*
X162871534Y-110790234D01*
X163044605Y-110718546D01*
X163228333Y-110682000D01*
X163415667Y-110682000D01*
X163599395Y-110718546D01*
G37*
G36*
X162114000Y-112584000D02*
G01*
X160212000Y-112584000D01*
X160212000Y-110682000D01*
X162114000Y-110682000D01*
X162114000Y-112584000D01*
G37*
G36*
X157376395Y-110718546D02*
G01*
X157549466Y-110790234D01*
X157549467Y-110790235D01*
X157705227Y-110894310D01*
X157837690Y-111026773D01*
X157837691Y-111026775D01*
X157941766Y-111182534D01*
X158013454Y-111355605D01*
X158050000Y-111539333D01*
X158050000Y-111726667D01*
X158013454Y-111910395D01*
X157941766Y-112083466D01*
X157941765Y-112083467D01*
X157837690Y-112239227D01*
X157705227Y-112371690D01*
X157626818Y-112424081D01*
X157549466Y-112475766D01*
X157376395Y-112547454D01*
X157192667Y-112584000D01*
X157005333Y-112584000D01*
X156821605Y-112547454D01*
X156648534Y-112475766D01*
X156571182Y-112424081D01*
X156492773Y-112371690D01*
X156360310Y-112239227D01*
X156256235Y-112083467D01*
X156256234Y-112083466D01*
X156184546Y-111910395D01*
X156148000Y-111726667D01*
X156148000Y-111539333D01*
X156184546Y-111355605D01*
X156256234Y-111182534D01*
X156360309Y-111026775D01*
X156360310Y-111026773D01*
X156492773Y-110894310D01*
X156648533Y-110790235D01*
X156648534Y-110790234D01*
X156821605Y-110718546D01*
X157005333Y-110682000D01*
X157192667Y-110682000D01*
X157376395Y-110718546D01*
G37*
G36*
X155217395Y-110718546D02*
G01*
X155390466Y-110790234D01*
X155390467Y-110790235D01*
X155546227Y-110894310D01*
X155678690Y-111026773D01*
X155678691Y-111026775D01*
X155782766Y-111182534D01*
X155854454Y-111355605D01*
X155891000Y-111539333D01*
X155891000Y-111726667D01*
X155854454Y-111910395D01*
X155782766Y-112083466D01*
X155782765Y-112083467D01*
X155678690Y-112239227D01*
X155546227Y-112371690D01*
X155467818Y-112424081D01*
X155390466Y-112475766D01*
X155217395Y-112547454D01*
X155033667Y-112584000D01*
X154846333Y-112584000D01*
X154662605Y-112547454D01*
X154489534Y-112475766D01*
X154412182Y-112424081D01*
X154333773Y-112371690D01*
X154201310Y-112239227D01*
X154097235Y-112083467D01*
X154097234Y-112083466D01*
X154025546Y-111910395D01*
X153989000Y-111726667D01*
X153989000Y-111539333D01*
X154025546Y-111355605D01*
X154097234Y-111182534D01*
X154201309Y-111026775D01*
X154201310Y-111026773D01*
X154333773Y-110894310D01*
X154489533Y-110790235D01*
X154489534Y-110790234D01*
X154662605Y-110718546D01*
X154846333Y-110682000D01*
X155033667Y-110682000D01*
X155217395Y-110718546D01*
G37*
G36*
X153058395Y-110718546D02*
G01*
X153231466Y-110790234D01*
X153231467Y-110790235D01*
X153387227Y-110894310D01*
X153519690Y-111026773D01*
X153519691Y-111026775D01*
X153623766Y-111182534D01*
X153695454Y-111355605D01*
X153732000Y-111539333D01*
X153732000Y-111726667D01*
X153695454Y-111910395D01*
X153623766Y-112083466D01*
X153623765Y-112083467D01*
X153519690Y-112239227D01*
X153387227Y-112371690D01*
X153308818Y-112424081D01*
X153231466Y-112475766D01*
X153058395Y-112547454D01*
X152874667Y-112584000D01*
X152687333Y-112584000D01*
X152503605Y-112547454D01*
X152330534Y-112475766D01*
X152253182Y-112424081D01*
X152174773Y-112371690D01*
X152042310Y-112239227D01*
X151938235Y-112083467D01*
X151938234Y-112083466D01*
X151866546Y-111910395D01*
X151830000Y-111726667D01*
X151830000Y-111539333D01*
X151866546Y-111355605D01*
X151938234Y-111182534D01*
X152042309Y-111026775D01*
X152042310Y-111026773D01*
X152174773Y-110894310D01*
X152330533Y-110790235D01*
X152330534Y-110790234D01*
X152503605Y-110718546D01*
X152687333Y-110682000D01*
X152874667Y-110682000D01*
X153058395Y-110718546D01*
G37*
G36*
X151573000Y-112584000D02*
G01*
X149671000Y-112584000D01*
X149671000Y-110682000D01*
X151573000Y-110682000D01*
X151573000Y-112584000D01*
G37*
G36*
X146708395Y-110718546D02*
G01*
X146881466Y-110790234D01*
X146881467Y-110790235D01*
X147037227Y-110894310D01*
X147169690Y-111026773D01*
X147169691Y-111026775D01*
X147273766Y-111182534D01*
X147345454Y-111355605D01*
X147382000Y-111539333D01*
X147382000Y-111726667D01*
X147345454Y-111910395D01*
X147273766Y-112083466D01*
X147273765Y-112083467D01*
X147169690Y-112239227D01*
X147037227Y-112371690D01*
X146958818Y-112424081D01*
X146881466Y-112475766D01*
X146708395Y-112547454D01*
X146524667Y-112584000D01*
X146337333Y-112584000D01*
X146153605Y-112547454D01*
X145980534Y-112475766D01*
X145903182Y-112424081D01*
X145824773Y-112371690D01*
X145692310Y-112239227D01*
X145588235Y-112083467D01*
X145588234Y-112083466D01*
X145516546Y-111910395D01*
X145480000Y-111726667D01*
X145480000Y-111539333D01*
X145516546Y-111355605D01*
X145588234Y-111182534D01*
X145692309Y-111026775D01*
X145692310Y-111026773D01*
X145824773Y-110894310D01*
X145980533Y-110790235D01*
X145980534Y-110790234D01*
X146153605Y-110718546D01*
X146337333Y-110682000D01*
X146524667Y-110682000D01*
X146708395Y-110718546D01*
G37*
G36*
X144549395Y-110718546D02*
G01*
X144722466Y-110790234D01*
X144722467Y-110790235D01*
X144878227Y-110894310D01*
X145010690Y-111026773D01*
X145010691Y-111026775D01*
X145114766Y-111182534D01*
X145186454Y-111355605D01*
X145223000Y-111539333D01*
X145223000Y-111726667D01*
X145186454Y-111910395D01*
X145114766Y-112083466D01*
X145114765Y-112083467D01*
X145010690Y-112239227D01*
X144878227Y-112371690D01*
X144799818Y-112424081D01*
X144722466Y-112475766D01*
X144549395Y-112547454D01*
X144365667Y-112584000D01*
X144178333Y-112584000D01*
X143994605Y-112547454D01*
X143821534Y-112475766D01*
X143744182Y-112424081D01*
X143665773Y-112371690D01*
X143533310Y-112239227D01*
X143429235Y-112083467D01*
X143429234Y-112083466D01*
X143357546Y-111910395D01*
X143321000Y-111726667D01*
X143321000Y-111539333D01*
X143357546Y-111355605D01*
X143429234Y-111182534D01*
X143533309Y-111026775D01*
X143533310Y-111026773D01*
X143665773Y-110894310D01*
X143821533Y-110790235D01*
X143821534Y-110790234D01*
X143994605Y-110718546D01*
X144178333Y-110682000D01*
X144365667Y-110682000D01*
X144549395Y-110718546D01*
G37*
G36*
X142390395Y-110718546D02*
G01*
X142563466Y-110790234D01*
X142563467Y-110790235D01*
X142719227Y-110894310D01*
X142851690Y-111026773D01*
X142851691Y-111026775D01*
X142955766Y-111182534D01*
X143027454Y-111355605D01*
X143064000Y-111539333D01*
X143064000Y-111726667D01*
X143027454Y-111910395D01*
X142955766Y-112083466D01*
X142955765Y-112083467D01*
X142851690Y-112239227D01*
X142719227Y-112371690D01*
X142640818Y-112424081D01*
X142563466Y-112475766D01*
X142390395Y-112547454D01*
X142206667Y-112584000D01*
X142019333Y-112584000D01*
X141835605Y-112547454D01*
X141662534Y-112475766D01*
X141585182Y-112424081D01*
X141506773Y-112371690D01*
X141374310Y-112239227D01*
X141270235Y-112083467D01*
X141270234Y-112083466D01*
X141198546Y-111910395D01*
X141162000Y-111726667D01*
X141162000Y-111539333D01*
X141198546Y-111355605D01*
X141270234Y-111182534D01*
X141374309Y-111026775D01*
X141374310Y-111026773D01*
X141506773Y-110894310D01*
X141662533Y-110790235D01*
X141662534Y-110790234D01*
X141835605Y-110718546D01*
X142019333Y-110682000D01*
X142206667Y-110682000D01*
X142390395Y-110718546D01*
G37*
G36*
X140905000Y-112584000D02*
G01*
X139003000Y-112584000D01*
X139003000Y-110682000D01*
X140905000Y-110682000D01*
X140905000Y-112584000D01*
G37*
G36*
X136294395Y-110718546D02*
G01*
X136467466Y-110790234D01*
X136467467Y-110790235D01*
X136623227Y-110894310D01*
X136755690Y-111026773D01*
X136755691Y-111026775D01*
X136859766Y-111182534D01*
X136931454Y-111355605D01*
X136968000Y-111539333D01*
X136968000Y-111726667D01*
X136931454Y-111910395D01*
X136859766Y-112083466D01*
X136859765Y-112083467D01*
X136755690Y-112239227D01*
X136623227Y-112371690D01*
X136544818Y-112424081D01*
X136467466Y-112475766D01*
X136294395Y-112547454D01*
X136110667Y-112584000D01*
X135923333Y-112584000D01*
X135739605Y-112547454D01*
X135566534Y-112475766D01*
X135489182Y-112424081D01*
X135410773Y-112371690D01*
X135278310Y-112239227D01*
X135174235Y-112083467D01*
X135174234Y-112083466D01*
X135102546Y-111910395D01*
X135066000Y-111726667D01*
X135066000Y-111539333D01*
X135102546Y-111355605D01*
X135174234Y-111182534D01*
X135278309Y-111026775D01*
X135278310Y-111026773D01*
X135410773Y-110894310D01*
X135566533Y-110790235D01*
X135566534Y-110790234D01*
X135739605Y-110718546D01*
X135923333Y-110682000D01*
X136110667Y-110682000D01*
X136294395Y-110718546D01*
G37*
G36*
X134135395Y-110718546D02*
G01*
X134308466Y-110790234D01*
X134308467Y-110790235D01*
X134464227Y-110894310D01*
X134596690Y-111026773D01*
X134596691Y-111026775D01*
X134700766Y-111182534D01*
X134772454Y-111355605D01*
X134809000Y-111539333D01*
X134809000Y-111726667D01*
X134772454Y-111910395D01*
X134700766Y-112083466D01*
X134700765Y-112083467D01*
X134596690Y-112239227D01*
X134464227Y-112371690D01*
X134385818Y-112424081D01*
X134308466Y-112475766D01*
X134135395Y-112547454D01*
X133951667Y-112584000D01*
X133764333Y-112584000D01*
X133580605Y-112547454D01*
X133407534Y-112475766D01*
X133330182Y-112424081D01*
X133251773Y-112371690D01*
X133119310Y-112239227D01*
X133015235Y-112083467D01*
X133015234Y-112083466D01*
X132943546Y-111910395D01*
X132907000Y-111726667D01*
X132907000Y-111539333D01*
X132943546Y-111355605D01*
X133015234Y-111182534D01*
X133119309Y-111026775D01*
X133119310Y-111026773D01*
X133251773Y-110894310D01*
X133407533Y-110790235D01*
X133407534Y-110790234D01*
X133580605Y-110718546D01*
X133764333Y-110682000D01*
X133951667Y-110682000D01*
X134135395Y-110718546D01*
G37*
G36*
X131976395Y-110718546D02*
G01*
X132149466Y-110790234D01*
X132149467Y-110790235D01*
X132305227Y-110894310D01*
X132437690Y-111026773D01*
X132437691Y-111026775D01*
X132541766Y-111182534D01*
X132613454Y-111355605D01*
X132650000Y-111539333D01*
X132650000Y-111726667D01*
X132613454Y-111910395D01*
X132541766Y-112083466D01*
X132541765Y-112083467D01*
X132437690Y-112239227D01*
X132305227Y-112371690D01*
X132226818Y-112424081D01*
X132149466Y-112475766D01*
X131976395Y-112547454D01*
X131792667Y-112584000D01*
X131605333Y-112584000D01*
X131421605Y-112547454D01*
X131248534Y-112475766D01*
X131171182Y-112424081D01*
X131092773Y-112371690D01*
X130960310Y-112239227D01*
X130856235Y-112083467D01*
X130856234Y-112083466D01*
X130784546Y-111910395D01*
X130748000Y-111726667D01*
X130748000Y-111539333D01*
X130784546Y-111355605D01*
X130856234Y-111182534D01*
X130960309Y-111026775D01*
X130960310Y-111026773D01*
X131092773Y-110894310D01*
X131248533Y-110790235D01*
X131248534Y-110790234D01*
X131421605Y-110718546D01*
X131605333Y-110682000D01*
X131792667Y-110682000D01*
X131976395Y-110718546D01*
G37*
G36*
X130491000Y-112584000D02*
G01*
X128589000Y-112584000D01*
X128589000Y-110682000D01*
X130491000Y-110682000D01*
X130491000Y-112584000D01*
G37*
G36*
X125753395Y-110718546D02*
G01*
X125926466Y-110790234D01*
X125926467Y-110790235D01*
X126082227Y-110894310D01*
X126214690Y-111026773D01*
X126214691Y-111026775D01*
X126318766Y-111182534D01*
X126390454Y-111355605D01*
X126427000Y-111539333D01*
X126427000Y-111726667D01*
X126390454Y-111910395D01*
X126318766Y-112083466D01*
X126318765Y-112083467D01*
X126214690Y-112239227D01*
X126082227Y-112371690D01*
X126003818Y-112424081D01*
X125926466Y-112475766D01*
X125753395Y-112547454D01*
X125569667Y-112584000D01*
X125382333Y-112584000D01*
X125198605Y-112547454D01*
X125025534Y-112475766D01*
X124948182Y-112424081D01*
X124869773Y-112371690D01*
X124737310Y-112239227D01*
X124633235Y-112083467D01*
X124633234Y-112083466D01*
X124561546Y-111910395D01*
X124525000Y-111726667D01*
X124525000Y-111539333D01*
X124561546Y-111355605D01*
X124633234Y-111182534D01*
X124737309Y-111026775D01*
X124737310Y-111026773D01*
X124869773Y-110894310D01*
X125025533Y-110790235D01*
X125025534Y-110790234D01*
X125198605Y-110718546D01*
X125382333Y-110682000D01*
X125569667Y-110682000D01*
X125753395Y-110718546D01*
G37*
G36*
X123594395Y-110718546D02*
G01*
X123767466Y-110790234D01*
X123767467Y-110790235D01*
X123923227Y-110894310D01*
X124055690Y-111026773D01*
X124055691Y-111026775D01*
X124159766Y-111182534D01*
X124231454Y-111355605D01*
X124268000Y-111539333D01*
X124268000Y-111726667D01*
X124231454Y-111910395D01*
X124159766Y-112083466D01*
X124159765Y-112083467D01*
X124055690Y-112239227D01*
X123923227Y-112371690D01*
X123844818Y-112424081D01*
X123767466Y-112475766D01*
X123594395Y-112547454D01*
X123410667Y-112584000D01*
X123223333Y-112584000D01*
X123039605Y-112547454D01*
X122866534Y-112475766D01*
X122789182Y-112424081D01*
X122710773Y-112371690D01*
X122578310Y-112239227D01*
X122474235Y-112083467D01*
X122474234Y-112083466D01*
X122402546Y-111910395D01*
X122366000Y-111726667D01*
X122366000Y-111539333D01*
X122402546Y-111355605D01*
X122474234Y-111182534D01*
X122578309Y-111026775D01*
X122578310Y-111026773D01*
X122710773Y-110894310D01*
X122866533Y-110790235D01*
X122866534Y-110790234D01*
X123039605Y-110718546D01*
X123223333Y-110682000D01*
X123410667Y-110682000D01*
X123594395Y-110718546D01*
G37*
G36*
X121435395Y-110718546D02*
G01*
X121608466Y-110790234D01*
X121608467Y-110790235D01*
X121764227Y-110894310D01*
X121896690Y-111026773D01*
X121896691Y-111026775D01*
X122000766Y-111182534D01*
X122072454Y-111355605D01*
X122109000Y-111539333D01*
X122109000Y-111726667D01*
X122072454Y-111910395D01*
X122000766Y-112083466D01*
X122000765Y-112083467D01*
X121896690Y-112239227D01*
X121764227Y-112371690D01*
X121685818Y-112424081D01*
X121608466Y-112475766D01*
X121435395Y-112547454D01*
X121251667Y-112584000D01*
X121064333Y-112584000D01*
X120880605Y-112547454D01*
X120707534Y-112475766D01*
X120630182Y-112424081D01*
X120551773Y-112371690D01*
X120419310Y-112239227D01*
X120315235Y-112083467D01*
X120315234Y-112083466D01*
X120243546Y-111910395D01*
X120207000Y-111726667D01*
X120207000Y-111539333D01*
X120243546Y-111355605D01*
X120315234Y-111182534D01*
X120419309Y-111026775D01*
X120419310Y-111026773D01*
X120551773Y-110894310D01*
X120707533Y-110790235D01*
X120707534Y-110790234D01*
X120880605Y-110718546D01*
X121064333Y-110682000D01*
X121251667Y-110682000D01*
X121435395Y-110718546D01*
G37*
G36*
X190500000Y-95885000D02*
G01*
X181610000Y-95885000D01*
X181610000Y-86995000D01*
X190500000Y-86995000D01*
X190500000Y-95885000D01*
G37*
G36*
X179705000Y-95885000D02*
G01*
X171450000Y-95885000D01*
X171450000Y-86995000D01*
X179705000Y-86995000D01*
X179705000Y-95885000D01*
G37*
G36*
X169545000Y-95885000D02*
G01*
X160655000Y-95885000D01*
X160655000Y-86995000D01*
X169545000Y-86995000D01*
X169545000Y-95885000D01*
G37*
G36*
X158750000Y-95885000D02*
G01*
X149860000Y-95885000D01*
X149860000Y-86995000D01*
X158750000Y-86995000D01*
X158750000Y-95885000D01*
G37*
G36*
X148590000Y-95885000D02*
G01*
X139700000Y-95885000D01*
X139700000Y-86995000D01*
X148590000Y-86995000D01*
X148590000Y-95885000D01*
G37*
G36*
X137795000Y-95885000D02*
G01*
X128905000Y-95885000D01*
X128905000Y-86995000D01*
X137795000Y-86995000D01*
X137795000Y-95885000D01*
G37*
G36*
X127000000Y-95885000D02*
G01*
X118745000Y-95885000D01*
X118745000Y-86995000D01*
X127000000Y-86995000D01*
X127000000Y-95885000D01*
G37*
G36*
X116840000Y-95885000D02*
G01*
X107950000Y-95885000D01*
X107950000Y-86995000D01*
X116840000Y-86995000D01*
X116840000Y-95885000D01*
G37*
G36*
X106680000Y-95885000D02*
G01*
X97790000Y-95885000D01*
X97790000Y-86995000D01*
X106680000Y-86995000D01*
X106680000Y-95885000D01*
G37*
G36*
X135241512Y-81907927D02*
G01*
X135390812Y-81937624D01*
X135554784Y-82005544D01*
X135702354Y-82104147D01*
X135827853Y-82229646D01*
X135926456Y-82377216D01*
X135994376Y-82541188D01*
X136029000Y-82715259D01*
X136029000Y-82892741D01*
X135994376Y-83066812D01*
X135926456Y-83230784D01*
X135827853Y-83378354D01*
X135702354Y-83503853D01*
X135554784Y-83602456D01*
X135390812Y-83670376D01*
X135241512Y-83700073D01*
X135216742Y-83705000D01*
X135039258Y-83705000D01*
X135014488Y-83700073D01*
X134865188Y-83670376D01*
X134701216Y-83602456D01*
X134553646Y-83503853D01*
X134428147Y-83378354D01*
X134329544Y-83230784D01*
X134261624Y-83066812D01*
X134227000Y-82892741D01*
X134227000Y-82715259D01*
X134261624Y-82541188D01*
X134329544Y-82377216D01*
X134428147Y-82229646D01*
X134553646Y-82104147D01*
X134701216Y-82005544D01*
X134865188Y-81937624D01*
X135014488Y-81907927D01*
X135039258Y-81903000D01*
X135216742Y-81903000D01*
X135241512Y-81907927D01*
G37*
G36*
X135241512Y-79367927D02*
G01*
X135390812Y-79397624D01*
X135554784Y-79465544D01*
X135702354Y-79564147D01*
X135827853Y-79689646D01*
X135926456Y-79837216D01*
X135994376Y-80001188D01*
X136029000Y-80175259D01*
X136029000Y-80352741D01*
X135994376Y-80526812D01*
X135926456Y-80690784D01*
X135827853Y-80838354D01*
X135702354Y-80963853D01*
X135554784Y-81062456D01*
X135390812Y-81130376D01*
X135241512Y-81160073D01*
X135216742Y-81165000D01*
X135039258Y-81165000D01*
X135014488Y-81160073D01*
X134865188Y-81130376D01*
X134701216Y-81062456D01*
X134553646Y-80963853D01*
X134428147Y-80838354D01*
X134329544Y-80690784D01*
X134261624Y-80526812D01*
X134227000Y-80352741D01*
X134227000Y-80175259D01*
X134261624Y-80001188D01*
X134329544Y-79837216D01*
X134428147Y-79689646D01*
X134553646Y-79564147D01*
X134701216Y-79465544D01*
X134865188Y-79397624D01*
X135014488Y-79367927D01*
X135039258Y-79363000D01*
X135216742Y-79363000D01*
X135241512Y-79367927D01*
G37*
G36*
X135241512Y-76827927D02*
G01*
X135390812Y-76857624D01*
X135554784Y-76925544D01*
X135702354Y-77024147D01*
X135827853Y-77149646D01*
X135926456Y-77297216D01*
X135994376Y-77461188D01*
X136029000Y-77635259D01*
X136029000Y-77812741D01*
X135994376Y-77986812D01*
X135926456Y-78150784D01*
X135827853Y-78298354D01*
X135702354Y-78423853D01*
X135554784Y-78522456D01*
X135390812Y-78590376D01*
X135241512Y-78620073D01*
X135216742Y-78625000D01*
X135039258Y-78625000D01*
X135014488Y-78620073D01*
X134865188Y-78590376D01*
X134701216Y-78522456D01*
X134553646Y-78423853D01*
X134428147Y-78298354D01*
X134329544Y-78150784D01*
X134261624Y-77986812D01*
X134227000Y-77812741D01*
X134227000Y-77635259D01*
X134261624Y-77461188D01*
X134329544Y-77297216D01*
X134428147Y-77149646D01*
X134553646Y-77024147D01*
X134701216Y-76925544D01*
X134865188Y-76857624D01*
X135014488Y-76827927D01*
X135039258Y-76823000D01*
X135216742Y-76823000D01*
X135241512Y-76827927D01*
G37*
G36*
X136029000Y-76085000D02*
G01*
X134227000Y-76085000D01*
X134227000Y-74283000D01*
X136029000Y-74283000D01*
X136029000Y-76085000D01*
G37*
G36*
X122254674Y-72412465D02*
G01*
X122292367Y-72423899D01*
X122327103Y-72442466D01*
X122357548Y-72467452D01*
X122382534Y-72497897D01*
X122401101Y-72532633D01*
X122412535Y-72570326D01*
X122417000Y-72615661D01*
X122417000Y-73452339D01*
X122412535Y-73497674D01*
X122401101Y-73535367D01*
X122382534Y-73570103D01*
X122357548Y-73600548D01*
X122327103Y-73625534D01*
X122292367Y-73644101D01*
X122254674Y-73655535D01*
X122209339Y-73660000D01*
X121122661Y-73660000D01*
X121077326Y-73655535D01*
X121039633Y-73644101D01*
X121004897Y-73625534D01*
X120974452Y-73600548D01*
X120949466Y-73570103D01*
X120930899Y-73535367D01*
X120919465Y-73497674D01*
X120915000Y-73452339D01*
X120915000Y-72615661D01*
X120919465Y-72570326D01*
X120930899Y-72532633D01*
X120949466Y-72497897D01*
X120974452Y-72467452D01*
X121004897Y-72442466D01*
X121039633Y-72423899D01*
X121077326Y-72412465D01*
X121122661Y-72408000D01*
X122209339Y-72408000D01*
X122254674Y-72412465D01*
G37*
G36*
X131398674Y-72158465D02*
G01*
X131436367Y-72169899D01*
X131471103Y-72188466D01*
X131501548Y-72213452D01*
X131526534Y-72243897D01*
X131545101Y-72278633D01*
X131556535Y-72316326D01*
X131561000Y-72361661D01*
X131561000Y-73198339D01*
X131556535Y-73243674D01*
X131545101Y-73281367D01*
X131526534Y-73316103D01*
X131501548Y-73346548D01*
X131471103Y-73371534D01*
X131436367Y-73390101D01*
X131398674Y-73401535D01*
X131353339Y-73406000D01*
X130266661Y-73406000D01*
X130221326Y-73401535D01*
X130183633Y-73390101D01*
X130148897Y-73371534D01*
X130118452Y-73346548D01*
X130093466Y-73316103D01*
X130074899Y-73281367D01*
X130063465Y-73243674D01*
X130059000Y-73198339D01*
X130059000Y-72361661D01*
X130063465Y-72316326D01*
X130074899Y-72278633D01*
X130093466Y-72243897D01*
X130118452Y-72213452D01*
X130148897Y-72188466D01*
X130183633Y-72169899D01*
X130221326Y-72158465D01*
X130266661Y-72154000D01*
X131353339Y-72154000D01*
X131398674Y-72158465D01*
G37*
G36*
X129366674Y-72158465D02*
G01*
X129404367Y-72169899D01*
X129439103Y-72188466D01*
X129469548Y-72213452D01*
X129494534Y-72243897D01*
X129513101Y-72278633D01*
X129524535Y-72316326D01*
X129529000Y-72361661D01*
X129529000Y-73198339D01*
X129524535Y-73243674D01*
X129513101Y-73281367D01*
X129494534Y-73316103D01*
X129469548Y-73346548D01*
X129439103Y-73371534D01*
X129404367Y-73390101D01*
X129366674Y-73401535D01*
X129321339Y-73406000D01*
X128234661Y-73406000D01*
X128189326Y-73401535D01*
X128151633Y-73390101D01*
X128116897Y-73371534D01*
X128086452Y-73346548D01*
X128061466Y-73316103D01*
X128042899Y-73281367D01*
X128031465Y-73243674D01*
X128027000Y-73198339D01*
X128027000Y-72361661D01*
X128031465Y-72316326D01*
X128042899Y-72278633D01*
X128061466Y-72243897D01*
X128086452Y-72213452D01*
X128116897Y-72188466D01*
X128151633Y-72169899D01*
X128189326Y-72158465D01*
X128234661Y-72154000D01*
X129321339Y-72154000D01*
X129366674Y-72158465D01*
G37*
G36*
X126064674Y-72158465D02*
G01*
X126102367Y-72169899D01*
X126137103Y-72188466D01*
X126167548Y-72213452D01*
X126192534Y-72243897D01*
X126211101Y-72278633D01*
X126222535Y-72316326D01*
X126227000Y-72361661D01*
X126227000Y-73198339D01*
X126222535Y-73243674D01*
X126211101Y-73281367D01*
X126192534Y-73316103D01*
X126167548Y-73346548D01*
X126137103Y-73371534D01*
X126102367Y-73390101D01*
X126064674Y-73401535D01*
X126019339Y-73406000D01*
X124932661Y-73406000D01*
X124887326Y-73401535D01*
X124849633Y-73390101D01*
X124814897Y-73371534D01*
X124784452Y-73346548D01*
X124759466Y-73316103D01*
X124740899Y-73281367D01*
X124729465Y-73243674D01*
X124725000Y-73198339D01*
X124725000Y-72361661D01*
X124729465Y-72316326D01*
X124740899Y-72278633D01*
X124759466Y-72243897D01*
X124784452Y-72213452D01*
X124814897Y-72188466D01*
X124849633Y-72169899D01*
X124887326Y-72158465D01*
X124932661Y-72154000D01*
X126019339Y-72154000D01*
X126064674Y-72158465D01*
G37*
G36*
X122254674Y-70362465D02*
G01*
X122292367Y-70373899D01*
X122327103Y-70392466D01*
X122357548Y-70417452D01*
X122382534Y-70447897D01*
X122401101Y-70482633D01*
X122412535Y-70520326D01*
X122417000Y-70565661D01*
X122417000Y-71402339D01*
X122412535Y-71447674D01*
X122401101Y-71485367D01*
X122382534Y-71520103D01*
X122357548Y-71550548D01*
X122327103Y-71575534D01*
X122292367Y-71594101D01*
X122254674Y-71605535D01*
X122209339Y-71610000D01*
X121122661Y-71610000D01*
X121077326Y-71605535D01*
X121039633Y-71594101D01*
X121004897Y-71575534D01*
X120974452Y-71550548D01*
X120949466Y-71520103D01*
X120930899Y-71485367D01*
X120919465Y-71447674D01*
X120915000Y-71402339D01*
X120915000Y-70565661D01*
X120919465Y-70520326D01*
X120930899Y-70482633D01*
X120949466Y-70447897D01*
X120974452Y-70417452D01*
X121004897Y-70392466D01*
X121039633Y-70373899D01*
X121077326Y-70362465D01*
X121122661Y-70358000D01*
X122209339Y-70358000D01*
X122254674Y-70362465D01*
G37*
G36*
X131398674Y-70108465D02*
G01*
X131436367Y-70119899D01*
X131471103Y-70138466D01*
X131501548Y-70163452D01*
X131526534Y-70193897D01*
X131545101Y-70228633D01*
X131556535Y-70266326D01*
X131561000Y-70311661D01*
X131561000Y-71148339D01*
X131556535Y-71193674D01*
X131545101Y-71231367D01*
X131526534Y-71266103D01*
X131501548Y-71296548D01*
X131471103Y-71321534D01*
X131436367Y-71340101D01*
X131398674Y-71351535D01*
X131353339Y-71356000D01*
X130266661Y-71356000D01*
X130221326Y-71351535D01*
X130183633Y-71340101D01*
X130148897Y-71321534D01*
X130118452Y-71296548D01*
X130093466Y-71266103D01*
X130074899Y-71231367D01*
X130063465Y-71193674D01*
X130059000Y-71148339D01*
X130059000Y-70311661D01*
X130063465Y-70266326D01*
X130074899Y-70228633D01*
X130093466Y-70193897D01*
X130118452Y-70163452D01*
X130148897Y-70138466D01*
X130183633Y-70119899D01*
X130221326Y-70108465D01*
X130266661Y-70104000D01*
X131353339Y-70104000D01*
X131398674Y-70108465D01*
G37*
G36*
X126064674Y-70108465D02*
G01*
X126102367Y-70119899D01*
X126137103Y-70138466D01*
X126167548Y-70163452D01*
X126192534Y-70193897D01*
X126211101Y-70228633D01*
X126222535Y-70266326D01*
X126227000Y-70311661D01*
X126227000Y-71148339D01*
X126222535Y-71193674D01*
X126211101Y-71231367D01*
X126192534Y-71266103D01*
X126167548Y-71296548D01*
X126137103Y-71321534D01*
X126102367Y-71340101D01*
X126064674Y-71351535D01*
X126019339Y-71356000D01*
X124932661Y-71356000D01*
X124887326Y-71351535D01*
X124849633Y-71340101D01*
X124814897Y-71321534D01*
X124784452Y-71296548D01*
X124759466Y-71266103D01*
X124740899Y-71231367D01*
X124729465Y-71193674D01*
X124725000Y-71148339D01*
X124725000Y-70311661D01*
X124729465Y-70266326D01*
X124740899Y-70228633D01*
X124759466Y-70193897D01*
X124784452Y-70163452D01*
X124814897Y-70138466D01*
X124849633Y-70119899D01*
X124887326Y-70108465D01*
X124932661Y-70104000D01*
X126019339Y-70104000D01*
X126064674Y-70108465D01*
G37*
G36*
X129366674Y-70108465D02*
G01*
X129404367Y-70119899D01*
X129439103Y-70138466D01*
X129469548Y-70163452D01*
X129494534Y-70193897D01*
X129513101Y-70228633D01*
X129524535Y-70266326D01*
X129529000Y-70311661D01*
X129529000Y-71148339D01*
X129524535Y-71193674D01*
X129513101Y-71231367D01*
X129494534Y-71266103D01*
X129469548Y-71296548D01*
X129439103Y-71321534D01*
X129404367Y-71340101D01*
X129366674Y-71351535D01*
X129321339Y-71356000D01*
X128234661Y-71356000D01*
X128189326Y-71351535D01*
X128151633Y-71340101D01*
X128116897Y-71321534D01*
X128086452Y-71296548D01*
X128061466Y-71266103D01*
X128042899Y-71231367D01*
X128031465Y-71193674D01*
X128027000Y-71148339D01*
X128027000Y-70311661D01*
X128031465Y-70266326D01*
X128042899Y-70228633D01*
X128061466Y-70193897D01*
X128086452Y-70163452D01*
X128116897Y-70138466D01*
X128151633Y-70119899D01*
X128189326Y-70108465D01*
X128234661Y-70104000D01*
X129321339Y-70104000D01*
X129366674Y-70108465D01*
G37*
G36*
X167195500Y-69850000D02*
G01*
X149098000Y-69850000D01*
X149098000Y-51562000D01*
X167195500Y-51562000D01*
X167195500Y-69850000D01*
G37*
G36*
X129620674Y-64792465D02*
G01*
X129658367Y-64803899D01*
X129693103Y-64822466D01*
X129723548Y-64847452D01*
X129748534Y-64877897D01*
X129767101Y-64912633D01*
X129778535Y-64950326D01*
X129783000Y-64995661D01*
X129783000Y-65832339D01*
X129778535Y-65877674D01*
X129767101Y-65915367D01*
X129748534Y-65950103D01*
X129723548Y-65980548D01*
X129693103Y-66005534D01*
X129658367Y-66024101D01*
X129620674Y-66035535D01*
X129575339Y-66040000D01*
X128488661Y-66040000D01*
X128443326Y-66035535D01*
X128405633Y-66024101D01*
X128370897Y-66005534D01*
X128340452Y-65980548D01*
X128315466Y-65950103D01*
X128296899Y-65915367D01*
X128285465Y-65877674D01*
X128281000Y-65832339D01*
X128281000Y-64995661D01*
X128285465Y-64950326D01*
X128296899Y-64912633D01*
X128315466Y-64877897D01*
X128340452Y-64847452D01*
X128370897Y-64822466D01*
X128405633Y-64803899D01*
X128443326Y-64792465D01*
X128488661Y-64788000D01*
X129575339Y-64788000D01*
X129620674Y-64792465D01*
G37*
G36*
X131652674Y-64792465D02*
G01*
X131690367Y-64803899D01*
X131725103Y-64822466D01*
X131755548Y-64847452D01*
X131780534Y-64877897D01*
X131799101Y-64912633D01*
X131810535Y-64950326D01*
X131815000Y-64995661D01*
X131815000Y-65832339D01*
X131810535Y-65877674D01*
X131799101Y-65915367D01*
X131780534Y-65950103D01*
X131755548Y-65980548D01*
X131725103Y-66005534D01*
X131690367Y-66024101D01*
X131652674Y-66035535D01*
X131607339Y-66040000D01*
X130520661Y-66040000D01*
X130475326Y-66035535D01*
X130437633Y-66024101D01*
X130402897Y-66005534D01*
X130372452Y-65980548D01*
X130347466Y-65950103D01*
X130328899Y-65915367D01*
X130317465Y-65877674D01*
X130313000Y-65832339D01*
X130313000Y-64995661D01*
X130317465Y-64950326D01*
X130328899Y-64912633D01*
X130347466Y-64877897D01*
X130372452Y-64847452D01*
X130402897Y-64822466D01*
X130437633Y-64803899D01*
X130475326Y-64792465D01*
X130520661Y-64788000D01*
X131607339Y-64788000D01*
X131652674Y-64792465D01*
G37*
G36*
X131652674Y-62742465D02*
G01*
X131690367Y-62753899D01*
X131725103Y-62772466D01*
X131755548Y-62797452D01*
X131780534Y-62827897D01*
X131799101Y-62862633D01*
X131810535Y-62900326D01*
X131815000Y-62945661D01*
X131815000Y-63782339D01*
X131810535Y-63827674D01*
X131799101Y-63865367D01*
X131780534Y-63900103D01*
X131755548Y-63930548D01*
X131725103Y-63955534D01*
X131690367Y-63974101D01*
X131652674Y-63985535D01*
X131607339Y-63990000D01*
X130520661Y-63990000D01*
X130475326Y-63985535D01*
X130437633Y-63974101D01*
X130402897Y-63955534D01*
X130372452Y-63930548D01*
X130347466Y-63900103D01*
X130328899Y-63865367D01*
X130317465Y-63827674D01*
X130313000Y-63782339D01*
X130313000Y-62945661D01*
X130317465Y-62900326D01*
X130328899Y-62862633D01*
X130347466Y-62827897D01*
X130372452Y-62797452D01*
X130402897Y-62772466D01*
X130437633Y-62753899D01*
X130475326Y-62742465D01*
X130520661Y-62738000D01*
X131607339Y-62738000D01*
X131652674Y-62742465D01*
G37*
G36*
X129620674Y-62742465D02*
G01*
X129658367Y-62753899D01*
X129693103Y-62772466D01*
X129723548Y-62797452D01*
X129748534Y-62827897D01*
X129767101Y-62862633D01*
X129778535Y-62900326D01*
X129783000Y-62945661D01*
X129783000Y-63782339D01*
X129778535Y-63827674D01*
X129767101Y-63865367D01*
X129748534Y-63900103D01*
X129723548Y-63930548D01*
X129693103Y-63955534D01*
X129658367Y-63974101D01*
X129620674Y-63985535D01*
X129575339Y-63990000D01*
X128488661Y-63990000D01*
X128443326Y-63985535D01*
X128405633Y-63974101D01*
X128370897Y-63955534D01*
X128340452Y-63930548D01*
X128315466Y-63900103D01*
X128296899Y-63865367D01*
X128285465Y-63827674D01*
X128281000Y-63782339D01*
X128281000Y-62945661D01*
X128285465Y-62900326D01*
X128296899Y-62862633D01*
X128315466Y-62827897D01*
X128340452Y-62797452D01*
X128370897Y-62772466D01*
X128405633Y-62753899D01*
X128443326Y-62742465D01*
X128488661Y-62738000D01*
X129575339Y-62738000D01*
X129620674Y-62742465D01*
G37*
G36*
X102537585Y-57152802D02*
G01*
X102687410Y-57182604D01*
X102969674Y-57299521D01*
X103223705Y-57469259D01*
X103439741Y-57685295D01*
X103609479Y-57939326D01*
X103699720Y-58157189D01*
X103726396Y-58221591D01*
X103786000Y-58521239D01*
X103786000Y-58826761D01*
X103782017Y-58846784D01*
X103726396Y-59126410D01*
X103609479Y-59408674D01*
X103439741Y-59662705D01*
X103223705Y-59878741D01*
X102969674Y-60048479D01*
X102687410Y-60165396D01*
X102537585Y-60195198D01*
X102387761Y-60225000D01*
X102082239Y-60225000D01*
X101932415Y-60195198D01*
X101782590Y-60165396D01*
X101500326Y-60048479D01*
X101246295Y-59878741D01*
X101030259Y-59662705D01*
X100860521Y-59408674D01*
X100743604Y-59126410D01*
X100687983Y-58846784D01*
X100684000Y-58826761D01*
X100684000Y-58521239D01*
X100743604Y-58221591D01*
X100770280Y-58157189D01*
X100860521Y-57939326D01*
X101030259Y-57685295D01*
X101246295Y-57469259D01*
X101500326Y-57299521D01*
X101782590Y-57182604D01*
X101932415Y-57152802D01*
X102082239Y-57123000D01*
X102387761Y-57123000D01*
X102537585Y-57152802D01*
G37*
G36*
X112697585Y-57152802D02*
G01*
X112847410Y-57182604D01*
X113129674Y-57299521D01*
X113383705Y-57469259D01*
X113599741Y-57685295D01*
X113769479Y-57939326D01*
X113859720Y-58157189D01*
X113886396Y-58221591D01*
X113946000Y-58521239D01*
X113946000Y-58826761D01*
X113942017Y-58846784D01*
X113886396Y-59126410D01*
X113769479Y-59408674D01*
X113599741Y-59662705D01*
X113383705Y-59878741D01*
X113129674Y-60048479D01*
X112847410Y-60165396D01*
X112697585Y-60195198D01*
X112547761Y-60225000D01*
X112242239Y-60225000D01*
X112092415Y-60195198D01*
X111942590Y-60165396D01*
X111660326Y-60048479D01*
X111406295Y-59878741D01*
X111190259Y-59662705D01*
X111020521Y-59408674D01*
X110903604Y-59126410D01*
X110847983Y-58846784D01*
X110844000Y-58826761D01*
X110844000Y-58521239D01*
X110903604Y-58221591D01*
X110930280Y-58157189D01*
X111020521Y-57939326D01*
X111190259Y-57685295D01*
X111406295Y-57469259D01*
X111660326Y-57299521D01*
X111942590Y-57182604D01*
X112092415Y-57152802D01*
X112242239Y-57123000D01*
X112547761Y-57123000D01*
X112697585Y-57152802D01*
G37*
G36*
X131177512Y-57523927D02*
G01*
X131326812Y-57553624D01*
X131490784Y-57621544D01*
X131638354Y-57720147D01*
X131763853Y-57845646D01*
X131862456Y-57993216D01*
X131930376Y-58157188D01*
X131965000Y-58331259D01*
X131965000Y-58508741D01*
X131930376Y-58682812D01*
X131862456Y-58846784D01*
X131763853Y-58994354D01*
X131638354Y-59119853D01*
X131490784Y-59218456D01*
X131326812Y-59286376D01*
X131177512Y-59316073D01*
X131152742Y-59321000D01*
X130975258Y-59321000D01*
X130950488Y-59316073D01*
X130801188Y-59286376D01*
X130637216Y-59218456D01*
X130489646Y-59119853D01*
X130364147Y-58994354D01*
X130265544Y-58846784D01*
X130197624Y-58682812D01*
X130163000Y-58508741D01*
X130163000Y-58331259D01*
X130197624Y-58157188D01*
X130265544Y-57993216D01*
X130364147Y-57845646D01*
X130489646Y-57720147D01*
X130637216Y-57621544D01*
X130801188Y-57553624D01*
X130950488Y-57523927D01*
X130975258Y-57519000D01*
X131152742Y-57519000D01*
X131177512Y-57523927D01*
G37*
G36*
X128637512Y-57523927D02*
G01*
X128786812Y-57553624D01*
X128950784Y-57621544D01*
X129098354Y-57720147D01*
X129223853Y-57845646D01*
X129322456Y-57993216D01*
X129390376Y-58157188D01*
X129425000Y-58331259D01*
X129425000Y-58508741D01*
X129390376Y-58682812D01*
X129322456Y-58846784D01*
X129223853Y-58994354D01*
X129098354Y-59119853D01*
X128950784Y-59218456D01*
X128786812Y-59286376D01*
X128637512Y-59316073D01*
X128612742Y-59321000D01*
X128435258Y-59321000D01*
X128410488Y-59316073D01*
X128261188Y-59286376D01*
X128097216Y-59218456D01*
X127949646Y-59119853D01*
X127824147Y-58994354D01*
X127725544Y-58846784D01*
X127657624Y-58682812D01*
X127623000Y-58508741D01*
X127623000Y-58331259D01*
X127657624Y-58157188D01*
X127725544Y-57993216D01*
X127824147Y-57845646D01*
X127949646Y-57720147D01*
X128097216Y-57621544D01*
X128261188Y-57553624D01*
X128410488Y-57523927D01*
X128435258Y-57519000D01*
X128612742Y-57519000D01*
X128637512Y-57523927D01*
G37*
G36*
X126097512Y-57523927D02*
G01*
X126246812Y-57553624D01*
X126410784Y-57621544D01*
X126558354Y-57720147D01*
X126683853Y-57845646D01*
X126782456Y-57993216D01*
X126850376Y-58157188D01*
X126885000Y-58331259D01*
X126885000Y-58508741D01*
X126850376Y-58682812D01*
X126782456Y-58846784D01*
X126683853Y-58994354D01*
X126558354Y-59119853D01*
X126410784Y-59218456D01*
X126246812Y-59286376D01*
X126097512Y-59316073D01*
X126072742Y-59321000D01*
X125895258Y-59321000D01*
X125870488Y-59316073D01*
X125721188Y-59286376D01*
X125557216Y-59218456D01*
X125409646Y-59119853D01*
X125284147Y-58994354D01*
X125185544Y-58846784D01*
X125117624Y-58682812D01*
X125083000Y-58508741D01*
X125083000Y-58331259D01*
X125117624Y-58157188D01*
X125185544Y-57993216D01*
X125284147Y-57845646D01*
X125409646Y-57720147D01*
X125557216Y-57621544D01*
X125721188Y-57553624D01*
X125870488Y-57523927D01*
X125895258Y-57519000D01*
X126072742Y-57519000D01*
X126097512Y-57523927D01*
G37*
G36*
X123557512Y-57523927D02*
G01*
X123706812Y-57553624D01*
X123870784Y-57621544D01*
X124018354Y-57720147D01*
X124143853Y-57845646D01*
X124242456Y-57993216D01*
X124310376Y-58157188D01*
X124345000Y-58331259D01*
X124345000Y-58508741D01*
X124310376Y-58682812D01*
X124242456Y-58846784D01*
X124143853Y-58994354D01*
X124018354Y-59119853D01*
X123870784Y-59218456D01*
X123706812Y-59286376D01*
X123557512Y-59316073D01*
X123532742Y-59321000D01*
X123355258Y-59321000D01*
X123330488Y-59316073D01*
X123181188Y-59286376D01*
X123017216Y-59218456D01*
X122869646Y-59119853D01*
X122744147Y-58994354D01*
X122645544Y-58846784D01*
X122577624Y-58682812D01*
X122543000Y-58508741D01*
X122543000Y-58331259D01*
X122577624Y-58157188D01*
X122645544Y-57993216D01*
X122744147Y-57845646D01*
X122869646Y-57720147D01*
X123017216Y-57621544D01*
X123181188Y-57553624D01*
X123330488Y-57523927D01*
X123355258Y-57519000D01*
X123532742Y-57519000D01*
X123557512Y-57523927D01*
G37*
G36*
X121805000Y-59321000D02*
G01*
X120003000Y-59321000D01*
X120003000Y-57519000D01*
X121805000Y-57519000D01*
X121805000Y-59321000D01*
G37*
G36*
X186649500Y-59205000D02*
G01*
X183047500Y-59205000D01*
X183047500Y-55603000D01*
X186649500Y-55603000D01*
X186649500Y-59205000D01*
G37*
G36*
X115184019Y-54602147D02*
G01*
X115387410Y-54642604D01*
X115669674Y-54759521D01*
X115923705Y-54929259D01*
X116139741Y-55145295D01*
X116309479Y-55399326D01*
X116426396Y-55681590D01*
X116486000Y-55981240D01*
X116486000Y-56286760D01*
X116426396Y-56586410D01*
X116309479Y-56868674D01*
X116139741Y-57122705D01*
X115923705Y-57338741D01*
X115669674Y-57508479D01*
X115387410Y-57625396D01*
X115237585Y-57655198D01*
X115087761Y-57685000D01*
X114782239Y-57685000D01*
X114632415Y-57655198D01*
X114482590Y-57625396D01*
X114200326Y-57508479D01*
X113946295Y-57338741D01*
X113730259Y-57122705D01*
X113560521Y-56868674D01*
X113443604Y-56586410D01*
X113384000Y-56286760D01*
X113384000Y-55981240D01*
X113443604Y-55681590D01*
X113560521Y-55399326D01*
X113730259Y-55145295D01*
X113946295Y-54929259D01*
X114200326Y-54759521D01*
X114482590Y-54642604D01*
X114685981Y-54602147D01*
X114782239Y-54583000D01*
X115087761Y-54583000D01*
X115184019Y-54602147D01*
G37*
G36*
X107564019Y-54602147D02*
G01*
X107767410Y-54642604D01*
X108049674Y-54759521D01*
X108303705Y-54929259D01*
X108519741Y-55145295D01*
X108689479Y-55399326D01*
X108806396Y-55681590D01*
X108866000Y-55981240D01*
X108866000Y-56286760D01*
X108806396Y-56586410D01*
X108689479Y-56868674D01*
X108519741Y-57122705D01*
X108303705Y-57338741D01*
X108049674Y-57508479D01*
X107767410Y-57625396D01*
X107617585Y-57655198D01*
X107467761Y-57685000D01*
X107162239Y-57685000D01*
X107012415Y-57655198D01*
X106862590Y-57625396D01*
X106580326Y-57508479D01*
X106326295Y-57338741D01*
X106110259Y-57122705D01*
X105940521Y-56868674D01*
X105823604Y-56586410D01*
X105764000Y-56286760D01*
X105764000Y-55981240D01*
X105823604Y-55681590D01*
X105940521Y-55399326D01*
X106110259Y-55145295D01*
X106326295Y-54929259D01*
X106580326Y-54759521D01*
X106862590Y-54642604D01*
X107065981Y-54602147D01*
X107162239Y-54583000D01*
X107467761Y-54583000D01*
X107564019Y-54602147D01*
G37*
G36*
X99944019Y-54602147D02*
G01*
X100147410Y-54642604D01*
X100429674Y-54759521D01*
X100683705Y-54929259D01*
X100899741Y-55145295D01*
X101069479Y-55399326D01*
X101186396Y-55681590D01*
X101246000Y-55981240D01*
X101246000Y-56286760D01*
X101186396Y-56586410D01*
X101069479Y-56868674D01*
X100899741Y-57122705D01*
X100683705Y-57338741D01*
X100429674Y-57508479D01*
X100147410Y-57625396D01*
X99997585Y-57655198D01*
X99847761Y-57685000D01*
X99542239Y-57685000D01*
X99392415Y-57655198D01*
X99242590Y-57625396D01*
X98960326Y-57508479D01*
X98706295Y-57338741D01*
X98490259Y-57122705D01*
X98320521Y-56868674D01*
X98203604Y-56586410D01*
X98144000Y-56286760D01*
X98144000Y-55981240D01*
X98203604Y-55681590D01*
X98320521Y-55399326D01*
X98490259Y-55145295D01*
X98706295Y-54929259D01*
X98960326Y-54759521D01*
X99242590Y-54642604D01*
X99445981Y-54602147D01*
X99542239Y-54583000D01*
X99847761Y-54583000D01*
X99944019Y-54602147D01*
G37*
G36*
X181274866Y-52619695D02*
G01*
X181431960Y-52667349D01*
X181576731Y-52744731D01*
X181703628Y-52848872D01*
X181807769Y-52975769D01*
X181885151Y-53120540D01*
X181932805Y-53277634D01*
X181949500Y-53447140D01*
X181949500Y-55360860D01*
X181932805Y-55530366D01*
X181885151Y-55687460D01*
X181807769Y-55832231D01*
X181703628Y-55959128D01*
X181576731Y-56063269D01*
X181431960Y-56140651D01*
X181274866Y-56188305D01*
X181105360Y-56205000D01*
X179191640Y-56205000D01*
X179022134Y-56188305D01*
X178865040Y-56140651D01*
X178720269Y-56063269D01*
X178593372Y-55959128D01*
X178489231Y-55832231D01*
X178411849Y-55687460D01*
X178364195Y-55530366D01*
X178347500Y-55360860D01*
X178347500Y-53447140D01*
X178364195Y-53277634D01*
X178411849Y-53120540D01*
X178489231Y-52975769D01*
X178593372Y-52848872D01*
X178720269Y-52744731D01*
X178865040Y-52667349D01*
X179022134Y-52619695D01*
X179191640Y-52603000D01*
X181105360Y-52603000D01*
X181274866Y-52619695D01*
G37*
G36*
X139948228Y-53029703D02*
G01*
X140103100Y-53093853D01*
X140242481Y-53186985D01*
X140361015Y-53305519D01*
X140454147Y-53444900D01*
X140518297Y-53599772D01*
X140551000Y-53764184D01*
X140551000Y-53931816D01*
X140518297Y-54096228D01*
X140454147Y-54251100D01*
X140361015Y-54390481D01*
X140242481Y-54509015D01*
X140103100Y-54602147D01*
X139948228Y-54666297D01*
X139783816Y-54699000D01*
X139616184Y-54699000D01*
X139451772Y-54666297D01*
X139296900Y-54602147D01*
X139157519Y-54509015D01*
X139038985Y-54390481D01*
X138945853Y-54251100D01*
X138881703Y-54096228D01*
X138849000Y-53931816D01*
X138849000Y-53764184D01*
X138881703Y-53599772D01*
X138945853Y-53444900D01*
X139038985Y-53305519D01*
X139157519Y-53186985D01*
X139296900Y-53093853D01*
X139451772Y-53029703D01*
X139616184Y-52997000D01*
X139783816Y-52997000D01*
X139948228Y-53029703D01*
G37*
G36*
X142488228Y-53029703D02*
G01*
X142643100Y-53093853D01*
X142782481Y-53186985D01*
X142901015Y-53305519D01*
X142994147Y-53444900D01*
X143058297Y-53599772D01*
X143091000Y-53764184D01*
X143091000Y-53931816D01*
X143058297Y-54096228D01*
X142994147Y-54251100D01*
X142901015Y-54390481D01*
X142782481Y-54509015D01*
X142643100Y-54602147D01*
X142488228Y-54666297D01*
X142323816Y-54699000D01*
X142156184Y-54699000D01*
X141991772Y-54666297D01*
X141836900Y-54602147D01*
X141697519Y-54509015D01*
X141578985Y-54390481D01*
X141485853Y-54251100D01*
X141421703Y-54096228D01*
X141389000Y-53931816D01*
X141389000Y-53764184D01*
X141421703Y-53599772D01*
X141485853Y-53444900D01*
X141578985Y-53305519D01*
X141697519Y-53186985D01*
X141836900Y-53093853D01*
X141991772Y-53029703D01*
X142156184Y-52997000D01*
X142323816Y-52997000D01*
X142488228Y-53029703D01*
G37*
G36*
X145028228Y-53029703D02*
G01*
X145183100Y-53093853D01*
X145322481Y-53186985D01*
X145441015Y-53305519D01*
X145534147Y-53444900D01*
X145598297Y-53599772D01*
X145631000Y-53764184D01*
X145631000Y-53931816D01*
X145598297Y-54096228D01*
X145534147Y-54251100D01*
X145441015Y-54390481D01*
X145322481Y-54509015D01*
X145183100Y-54602147D01*
X145028228Y-54666297D01*
X144863816Y-54699000D01*
X144696184Y-54699000D01*
X144531772Y-54666297D01*
X144376900Y-54602147D01*
X144237519Y-54509015D01*
X144118985Y-54390481D01*
X144025853Y-54251100D01*
X143961703Y-54096228D01*
X143929000Y-53931816D01*
X143929000Y-53764184D01*
X143961703Y-53599772D01*
X144025853Y-53444900D01*
X144118985Y-53305519D01*
X144237519Y-53186985D01*
X144376900Y-53093853D01*
X144531772Y-53029703D01*
X144696184Y-52997000D01*
X144863816Y-52997000D01*
X145028228Y-53029703D01*
G37*
G36*
X147568228Y-53029703D02*
G01*
X147723100Y-53093853D01*
X147862481Y-53186985D01*
X147981015Y-53305519D01*
X148074147Y-53444900D01*
X148138297Y-53599772D01*
X148171000Y-53764184D01*
X148171000Y-53931816D01*
X148138297Y-54096228D01*
X148074147Y-54251100D01*
X147981015Y-54390481D01*
X147862481Y-54509015D01*
X147723100Y-54602147D01*
X147568228Y-54666297D01*
X147403816Y-54699000D01*
X147236184Y-54699000D01*
X147071772Y-54666297D01*
X146916900Y-54602147D01*
X146777519Y-54509015D01*
X146658985Y-54390481D01*
X146565853Y-54251100D01*
X146501703Y-54096228D01*
X146469000Y-53931816D01*
X146469000Y-53764184D01*
X146501703Y-53599772D01*
X146565853Y-53444900D01*
X146658985Y-53305519D01*
X146777519Y-53186985D01*
X146916900Y-53093853D01*
X147071772Y-53029703D01*
X147236184Y-52997000D01*
X147403816Y-52997000D01*
X147568228Y-53029703D01*
G37*
G36*
X126163564Y-52456389D02*
G01*
X126354833Y-52535615D01*
X126354835Y-52535616D01*
X126526973Y-52650635D01*
X126673365Y-52797027D01*
X126768963Y-52940099D01*
X126788385Y-52969167D01*
X126867611Y-53160436D01*
X126908000Y-53363484D01*
X126908000Y-53570516D01*
X126867611Y-53773564D01*
X126802061Y-53931815D01*
X126788384Y-53964835D01*
X126673365Y-54136973D01*
X126526973Y-54283365D01*
X126354835Y-54398384D01*
X126354834Y-54398385D01*
X126354833Y-54398385D01*
X126163564Y-54477611D01*
X125960516Y-54518000D01*
X125753484Y-54518000D01*
X125550436Y-54477611D01*
X125359167Y-54398385D01*
X125359166Y-54398385D01*
X125359165Y-54398384D01*
X125187027Y-54283365D01*
X125040635Y-54136973D01*
X124925616Y-53964835D01*
X124911939Y-53931815D01*
X124846389Y-53773564D01*
X124806000Y-53570516D01*
X124806000Y-53363484D01*
X124846389Y-53160436D01*
X124925615Y-52969167D01*
X124945038Y-52940099D01*
X125040635Y-52797027D01*
X125187027Y-52650635D01*
X125359165Y-52535616D01*
X125359167Y-52535615D01*
X125550436Y-52456389D01*
X125753484Y-52416000D01*
X125960516Y-52416000D01*
X126163564Y-52456389D01*
G37*
G36*
X128703564Y-52456389D02*
G01*
X128894833Y-52535615D01*
X128894835Y-52535616D01*
X129066973Y-52650635D01*
X129213365Y-52797027D01*
X129308963Y-52940099D01*
X129328385Y-52969167D01*
X129407611Y-53160436D01*
X129448000Y-53363484D01*
X129448000Y-53570516D01*
X129407611Y-53773564D01*
X129342061Y-53931815D01*
X129328384Y-53964835D01*
X129213365Y-54136973D01*
X129066973Y-54283365D01*
X128894835Y-54398384D01*
X128894834Y-54398385D01*
X128894833Y-54398385D01*
X128703564Y-54477611D01*
X128500516Y-54518000D01*
X128293484Y-54518000D01*
X128090436Y-54477611D01*
X127899167Y-54398385D01*
X127899166Y-54398385D01*
X127899165Y-54398384D01*
X127727027Y-54283365D01*
X127580635Y-54136973D01*
X127465616Y-53964835D01*
X127451939Y-53931815D01*
X127386389Y-53773564D01*
X127346000Y-53570516D01*
X127346000Y-53363484D01*
X127386389Y-53160436D01*
X127465615Y-52969167D01*
X127485038Y-52940099D01*
X127580635Y-52797027D01*
X127727027Y-52650635D01*
X127899165Y-52535616D01*
X127899167Y-52535615D01*
X128090436Y-52456389D01*
X128293484Y-52416000D01*
X128500516Y-52416000D01*
X128703564Y-52456389D01*
G37*
G36*
X123623564Y-52456389D02*
G01*
X123814833Y-52535615D01*
X123814835Y-52535616D01*
X123986973Y-52650635D01*
X124133365Y-52797027D01*
X124228963Y-52940099D01*
X124248385Y-52969167D01*
X124327611Y-53160436D01*
X124368000Y-53363484D01*
X124368000Y-53570516D01*
X124327611Y-53773564D01*
X124262061Y-53931815D01*
X124248384Y-53964835D01*
X124133365Y-54136973D01*
X123986973Y-54283365D01*
X123814835Y-54398384D01*
X123814834Y-54398385D01*
X123814833Y-54398385D01*
X123623564Y-54477611D01*
X123420516Y-54518000D01*
X123213484Y-54518000D01*
X123010436Y-54477611D01*
X122819167Y-54398385D01*
X122819166Y-54398385D01*
X122819165Y-54398384D01*
X122647027Y-54283365D01*
X122500635Y-54136973D01*
X122385616Y-53964835D01*
X122371939Y-53931815D01*
X122306389Y-53773564D01*
X122266000Y-53570516D01*
X122266000Y-53363484D01*
X122306389Y-53160436D01*
X122385615Y-52969167D01*
X122405038Y-52940099D01*
X122500635Y-52797027D01*
X122647027Y-52650635D01*
X122819165Y-52535616D01*
X122819167Y-52535615D01*
X123010436Y-52456389D01*
X123213484Y-52416000D01*
X123420516Y-52416000D01*
X123623564Y-52456389D01*
G37*
G36*
X186075479Y-49867293D02*
G01*
X186209125Y-49907834D01*
X186332284Y-49973664D01*
X186440240Y-50062260D01*
X186528836Y-50170216D01*
X186594666Y-50293375D01*
X186635207Y-50427021D01*
X186649500Y-50572140D01*
X186649500Y-52235860D01*
X186635207Y-52380979D01*
X186594666Y-52514625D01*
X186528836Y-52637784D01*
X186440240Y-52745740D01*
X186332284Y-52834336D01*
X186209125Y-52900166D01*
X186075479Y-52940707D01*
X185930360Y-52955000D01*
X183766640Y-52955000D01*
X183621521Y-52940707D01*
X183487875Y-52900166D01*
X183364716Y-52834336D01*
X183256760Y-52745740D01*
X183168164Y-52637784D01*
X183102334Y-52514625D01*
X183061793Y-52380979D01*
X183047500Y-52235860D01*
X183047500Y-50572140D01*
X183061793Y-50427021D01*
X183102334Y-50293375D01*
X183168164Y-50170216D01*
X183256760Y-50062260D01*
X183364716Y-49973664D01*
X183487875Y-49907834D01*
X183621521Y-49867293D01*
X183766640Y-49853000D01*
X185930360Y-49853000D01*
X186075479Y-49867293D01*
G37*
G36*
X135589674Y-51203465D02*
G01*
X135627367Y-51214899D01*
X135662103Y-51233466D01*
X135692548Y-51258452D01*
X135717534Y-51288897D01*
X135736101Y-51323633D01*
X135747535Y-51361326D01*
X135752000Y-51406661D01*
X135752000Y-52243339D01*
X135747535Y-52288674D01*
X135736101Y-52326367D01*
X135717534Y-52361103D01*
X135692548Y-52391548D01*
X135662103Y-52416534D01*
X135627367Y-52435101D01*
X135589674Y-52446535D01*
X135544339Y-52451000D01*
X134457661Y-52451000D01*
X134412326Y-52446535D01*
X134374633Y-52435101D01*
X134339897Y-52416534D01*
X134309452Y-52391548D01*
X134284466Y-52361103D01*
X134265899Y-52326367D01*
X134254465Y-52288674D01*
X134250000Y-52243339D01*
X134250000Y-51406661D01*
X134254465Y-51361326D01*
X134265899Y-51323633D01*
X134284466Y-51288897D01*
X134309452Y-51258452D01*
X134339897Y-51233466D01*
X134374633Y-51214899D01*
X134412326Y-51203465D01*
X134457661Y-51199000D01*
X135544339Y-51199000D01*
X135589674Y-51203465D01*
G37*
G36*
X132287674Y-51203465D02*
G01*
X132325367Y-51214899D01*
X132360103Y-51233466D01*
X132390548Y-51258452D01*
X132415534Y-51288897D01*
X132434101Y-51323633D01*
X132445535Y-51361326D01*
X132450000Y-51406661D01*
X132450000Y-52243339D01*
X132445535Y-52288674D01*
X132434101Y-52326367D01*
X132415534Y-52361103D01*
X132390548Y-52391548D01*
X132360103Y-52416534D01*
X132325367Y-52435101D01*
X132287674Y-52446535D01*
X132242339Y-52451000D01*
X131155661Y-52451000D01*
X131110326Y-52446535D01*
X131072633Y-52435101D01*
X131037897Y-52416534D01*
X131007452Y-52391548D01*
X130982466Y-52361103D01*
X130963899Y-52326367D01*
X130952465Y-52288674D01*
X130948000Y-52243339D01*
X130948000Y-51406661D01*
X130952465Y-51361326D01*
X130963899Y-51323633D01*
X130982466Y-51288897D01*
X131007452Y-51258452D01*
X131037897Y-51233466D01*
X131072633Y-51214899D01*
X131110326Y-51203465D01*
X131155661Y-51199000D01*
X132242339Y-51199000D01*
X132287674Y-51203465D01*
G37*
G36*
X132287674Y-49153465D02*
G01*
X132325367Y-49164899D01*
X132360103Y-49183466D01*
X132390548Y-49208452D01*
X132415534Y-49238897D01*
X132434101Y-49273633D01*
X132445535Y-49311326D01*
X132450000Y-49356661D01*
X132450000Y-50193339D01*
X132445535Y-50238674D01*
X132434101Y-50276367D01*
X132415534Y-50311103D01*
X132390548Y-50341548D01*
X132360103Y-50366534D01*
X132325367Y-50385101D01*
X132287674Y-50396535D01*
X132242339Y-50401000D01*
X131155661Y-50401000D01*
X131110326Y-50396535D01*
X131072633Y-50385101D01*
X131037897Y-50366534D01*
X131007452Y-50341548D01*
X130982466Y-50311103D01*
X130963899Y-50276367D01*
X130952465Y-50238674D01*
X130948000Y-50193339D01*
X130948000Y-49356661D01*
X130952465Y-49311326D01*
X130963899Y-49273633D01*
X130982466Y-49238897D01*
X131007452Y-49208452D01*
X131037897Y-49183466D01*
X131072633Y-49164899D01*
X131110326Y-49153465D01*
X131155661Y-49149000D01*
X132242339Y-49149000D01*
X132287674Y-49153465D01*
G37*
G36*
X135589674Y-49153465D02*
G01*
X135627367Y-49164899D01*
X135662103Y-49183466D01*
X135692548Y-49208452D01*
X135717534Y-49238897D01*
X135736101Y-49273633D01*
X135747535Y-49311326D01*
X135752000Y-49356661D01*
X135752000Y-50193339D01*
X135747535Y-50238674D01*
X135736101Y-50276367D01*
X135717534Y-50311103D01*
X135692548Y-50341548D01*
X135662103Y-50366534D01*
X135627367Y-50385101D01*
X135589674Y-50396535D01*
X135544339Y-50401000D01*
X134457661Y-50401000D01*
X134412326Y-50396535D01*
X134374633Y-50385101D01*
X134339897Y-50366534D01*
X134309452Y-50341548D01*
X134284466Y-50311103D01*
X134265899Y-50276367D01*
X134254465Y-50238674D01*
X134250000Y-50193339D01*
X134250000Y-49356661D01*
X134254465Y-49311326D01*
X134265899Y-49273633D01*
X134284466Y-49238897D01*
X134309452Y-49208452D01*
X134339897Y-49183466D01*
X134374633Y-49164899D01*
X134412326Y-49153465D01*
X134457661Y-49149000D01*
X135544339Y-49149000D01*
X135589674Y-49153465D01*
G37*
G36*
X175885760Y-47635165D02*
G01*
X176007150Y-47659311D01*
X176207520Y-47742307D01*
X176387844Y-47862795D01*
X176541205Y-48016156D01*
X176661693Y-48196480D01*
X176678276Y-48236516D01*
X176744689Y-48396850D01*
X176787000Y-48609561D01*
X176787000Y-48826439D01*
X176744689Y-49039150D01*
X176734236Y-49064385D01*
X176661693Y-49239520D01*
X176541205Y-49419844D01*
X176387844Y-49573205D01*
X176207520Y-49693693D01*
X176007150Y-49776689D01*
X175900794Y-49797845D01*
X175794440Y-49819000D01*
X175577560Y-49819000D01*
X175471205Y-49797844D01*
X175364850Y-49776689D01*
X175264666Y-49735191D01*
X175164480Y-49693693D01*
X174984156Y-49573205D01*
X174830795Y-49419844D01*
X174710307Y-49239520D01*
X174637764Y-49064385D01*
X174627311Y-49039150D01*
X174585000Y-48826439D01*
X174585000Y-48609561D01*
X174627311Y-48396850D01*
X174693724Y-48236516D01*
X174710307Y-48196480D01*
X174830795Y-48016156D01*
X174984156Y-47862795D01*
X175164480Y-47742307D01*
X175264666Y-47700809D01*
X175364850Y-47659311D01*
X175486240Y-47635165D01*
X175577560Y-47617000D01*
X175794440Y-47617000D01*
X175885760Y-47635165D01*
G37*
G36*
X168875760Y-47635165D02*
G01*
X168997150Y-47659311D01*
X169197520Y-47742307D01*
X169377844Y-47862795D01*
X169531205Y-48016156D01*
X169651693Y-48196480D01*
X169668276Y-48236516D01*
X169734689Y-48396850D01*
X169777000Y-48609561D01*
X169777000Y-48826439D01*
X169734689Y-49039150D01*
X169724236Y-49064385D01*
X169651693Y-49239520D01*
X169531205Y-49419844D01*
X169377844Y-49573205D01*
X169197520Y-49693693D01*
X168997150Y-49776689D01*
X168890794Y-49797845D01*
X168784440Y-49819000D01*
X168567560Y-49819000D01*
X168461205Y-49797844D01*
X168354850Y-49776689D01*
X168254666Y-49735191D01*
X168154480Y-49693693D01*
X167974156Y-49573205D01*
X167820795Y-49419844D01*
X167700307Y-49239520D01*
X167627764Y-49064385D01*
X167617311Y-49039150D01*
X167575000Y-48826439D01*
X167575000Y-48609561D01*
X167617311Y-48396850D01*
X167683724Y-48236516D01*
X167700307Y-48196480D01*
X167820795Y-48016156D01*
X167974156Y-47862795D01*
X168154480Y-47742307D01*
X168254666Y-47700809D01*
X168354850Y-47659311D01*
X168476240Y-47635165D01*
X168567560Y-47617000D01*
X168784440Y-47617000D01*
X168875760Y-47635165D01*
G37*
G36*
X128703564Y-47122389D02*
G01*
X128894833Y-47201615D01*
X128894835Y-47201616D01*
X129066973Y-47316635D01*
X129213365Y-47463027D01*
X129316247Y-47617000D01*
X129328385Y-47635167D01*
X129407611Y-47826436D01*
X129448000Y-48029484D01*
X129448000Y-48236516D01*
X129407611Y-48439564D01*
X129337196Y-48609561D01*
X129328384Y-48630835D01*
X129213365Y-48802973D01*
X129066973Y-48949365D01*
X128894835Y-49064384D01*
X128894834Y-49064385D01*
X128894833Y-49064385D01*
X128703564Y-49143611D01*
X128500516Y-49184000D01*
X128293484Y-49184000D01*
X128090436Y-49143611D01*
X127899167Y-49064385D01*
X127899166Y-49064385D01*
X127899165Y-49064384D01*
X127727027Y-48949365D01*
X127580635Y-48802973D01*
X127465616Y-48630835D01*
X127456804Y-48609561D01*
X127386389Y-48439564D01*
X127346000Y-48236516D01*
X127346000Y-48029484D01*
X127386389Y-47826436D01*
X127465615Y-47635167D01*
X127477754Y-47617000D01*
X127580635Y-47463027D01*
X127727027Y-47316635D01*
X127899165Y-47201616D01*
X127899167Y-47201615D01*
X128090436Y-47122389D01*
X128293484Y-47082000D01*
X128500516Y-47082000D01*
X128703564Y-47122389D01*
G37*
G36*
X123623564Y-47122389D02*
G01*
X123814833Y-47201615D01*
X123814835Y-47201616D01*
X123986973Y-47316635D01*
X124133365Y-47463027D01*
X124236247Y-47617000D01*
X124248385Y-47635167D01*
X124327611Y-47826436D01*
X124368000Y-48029484D01*
X124368000Y-48236516D01*
X124327611Y-48439564D01*
X124257196Y-48609561D01*
X124248384Y-48630835D01*
X124133365Y-48802973D01*
X123986973Y-48949365D01*
X123814835Y-49064384D01*
X123814834Y-49064385D01*
X123814833Y-49064385D01*
X123623564Y-49143611D01*
X123420516Y-49184000D01*
X123213484Y-49184000D01*
X123010436Y-49143611D01*
X122819167Y-49064385D01*
X122819166Y-49064385D01*
X122819165Y-49064384D01*
X122647027Y-48949365D01*
X122500635Y-48802973D01*
X122385616Y-48630835D01*
X122376804Y-48609561D01*
X122306389Y-48439564D01*
X122266000Y-48236516D01*
X122266000Y-48029484D01*
X122306389Y-47826436D01*
X122385615Y-47635167D01*
X122397754Y-47617000D01*
X122500635Y-47463027D01*
X122647027Y-47316635D01*
X122819165Y-47201616D01*
X122819167Y-47201615D01*
X123010436Y-47122389D01*
X123213484Y-47082000D01*
X123420516Y-47082000D01*
X123623564Y-47122389D01*
G37*
G36*
X126163564Y-47122389D02*
G01*
X126354833Y-47201615D01*
X126354835Y-47201616D01*
X126526973Y-47316635D01*
X126673365Y-47463027D01*
X126776247Y-47617000D01*
X126788385Y-47635167D01*
X126867611Y-47826436D01*
X126908000Y-48029484D01*
X126908000Y-48236516D01*
X126867611Y-48439564D01*
X126797196Y-48609561D01*
X126788384Y-48630835D01*
X126673365Y-48802973D01*
X126526973Y-48949365D01*
X126354835Y-49064384D01*
X126354834Y-49064385D01*
X126354833Y-49064385D01*
X126163564Y-49143611D01*
X125960516Y-49184000D01*
X125753484Y-49184000D01*
X125550436Y-49143611D01*
X125359167Y-49064385D01*
X125359166Y-49064385D01*
X125359165Y-49064384D01*
X125187027Y-48949365D01*
X125040635Y-48802973D01*
X124925616Y-48630835D01*
X124916804Y-48609561D01*
X124846389Y-48439564D01*
X124806000Y-48236516D01*
X124806000Y-48029484D01*
X124846389Y-47826436D01*
X124925615Y-47635167D01*
X124937754Y-47617000D01*
X125040635Y-47463027D01*
X125187027Y-47316635D01*
X125359165Y-47201616D01*
X125359167Y-47201615D01*
X125550436Y-47122389D01*
X125753484Y-47082000D01*
X125960516Y-47082000D01*
X126163564Y-47122389D01*
G37*
G36*
X135589674Y-47139465D02*
G01*
X135627367Y-47150899D01*
X135662103Y-47169466D01*
X135692548Y-47194452D01*
X135717534Y-47224897D01*
X135736101Y-47259633D01*
X135747535Y-47297326D01*
X135752000Y-47342661D01*
X135752000Y-48179339D01*
X135747535Y-48224674D01*
X135736101Y-48262367D01*
X135717534Y-48297103D01*
X135692548Y-48327548D01*
X135662103Y-48352534D01*
X135627367Y-48371101D01*
X135589674Y-48382535D01*
X135544339Y-48387000D01*
X134457661Y-48387000D01*
X134412326Y-48382535D01*
X134374633Y-48371101D01*
X134339897Y-48352534D01*
X134309452Y-48327548D01*
X134284466Y-48297103D01*
X134265899Y-48262367D01*
X134254465Y-48224674D01*
X134250000Y-48179339D01*
X134250000Y-47342661D01*
X134254465Y-47297326D01*
X134265899Y-47259633D01*
X134284466Y-47224897D01*
X134309452Y-47194452D01*
X134339897Y-47169466D01*
X134374633Y-47150899D01*
X134412326Y-47139465D01*
X134457661Y-47135000D01*
X135544339Y-47135000D01*
X135589674Y-47139465D01*
G37*
G36*
X132287674Y-47139465D02*
G01*
X132325367Y-47150899D01*
X132360103Y-47169466D01*
X132390548Y-47194452D01*
X132415534Y-47224897D01*
X132434101Y-47259633D01*
X132445535Y-47297326D01*
X132450000Y-47342661D01*
X132450000Y-48179339D01*
X132445535Y-48224674D01*
X132434101Y-48262367D01*
X132415534Y-48297103D01*
X132390548Y-48327548D01*
X132360103Y-48352534D01*
X132325367Y-48371101D01*
X132287674Y-48382535D01*
X132242339Y-48387000D01*
X131155661Y-48387000D01*
X131110326Y-48382535D01*
X131072633Y-48371101D01*
X131037897Y-48352534D01*
X131007452Y-48327548D01*
X130982466Y-48297103D01*
X130963899Y-48262367D01*
X130952465Y-48224674D01*
X130948000Y-48179339D01*
X130948000Y-47342661D01*
X130952465Y-47297326D01*
X130963899Y-47259633D01*
X130982466Y-47224897D01*
X131007452Y-47194452D01*
X131037897Y-47169466D01*
X131072633Y-47150899D01*
X131110326Y-47139465D01*
X131155661Y-47135000D01*
X132242339Y-47135000D01*
X132287674Y-47139465D01*
G37*
G36*
X102537585Y-44452802D02*
G01*
X102687410Y-44482604D01*
X102969674Y-44599521D01*
X103223705Y-44769259D01*
X103439741Y-44985295D01*
X103609479Y-45239326D01*
X103726396Y-45521590D01*
X103749493Y-45637709D01*
X103779662Y-45789374D01*
X103786000Y-45821240D01*
X103786000Y-46126760D01*
X103726396Y-46426410D01*
X103609479Y-46708674D01*
X103439741Y-46962705D01*
X103223705Y-47178741D01*
X102969674Y-47348479D01*
X102687410Y-47465396D01*
X102537585Y-47495198D01*
X102387761Y-47525000D01*
X102082239Y-47525000D01*
X101932415Y-47495198D01*
X101782590Y-47465396D01*
X101500326Y-47348479D01*
X101246295Y-47178741D01*
X101030259Y-46962705D01*
X100860521Y-46708674D01*
X100743604Y-46426410D01*
X100684000Y-46126760D01*
X100684000Y-45821240D01*
X100690339Y-45789374D01*
X100720507Y-45637709D01*
X100743604Y-45521590D01*
X100860521Y-45239326D01*
X101030259Y-44985295D01*
X101246295Y-44769259D01*
X101500326Y-44599521D01*
X101782590Y-44482604D01*
X101932415Y-44452802D01*
X102082239Y-44423000D01*
X102387761Y-44423000D01*
X102537585Y-44452802D01*
G37*
G36*
X112697585Y-44452802D02*
G01*
X112847410Y-44482604D01*
X113129674Y-44599521D01*
X113383705Y-44769259D01*
X113599741Y-44985295D01*
X113769479Y-45239326D01*
X113886396Y-45521590D01*
X113909493Y-45637709D01*
X113939662Y-45789374D01*
X113946000Y-45821240D01*
X113946000Y-46126760D01*
X113886396Y-46426410D01*
X113769479Y-46708674D01*
X113599741Y-46962705D01*
X113383705Y-47178741D01*
X113129674Y-47348479D01*
X112847410Y-47465396D01*
X112697585Y-47495198D01*
X112547761Y-47525000D01*
X112242239Y-47525000D01*
X112092415Y-47495198D01*
X111942590Y-47465396D01*
X111660326Y-47348479D01*
X111406295Y-47178741D01*
X111190259Y-46962705D01*
X111020521Y-46708674D01*
X110903604Y-46426410D01*
X110844000Y-46126760D01*
X110844000Y-45821240D01*
X110850339Y-45789374D01*
X110880507Y-45637709D01*
X110903604Y-45521590D01*
X111020521Y-45239326D01*
X111190259Y-44985295D01*
X111406295Y-44769259D01*
X111660326Y-44599521D01*
X111942590Y-44482604D01*
X112092415Y-44452802D01*
X112242239Y-44423000D01*
X112547761Y-44423000D01*
X112697585Y-44452802D01*
G37*
G36*
X174696104Y-45337585D02*
G01*
X174864626Y-45407389D01*
X175016291Y-45508728D01*
X175145272Y-45637709D01*
X175246611Y-45789374D01*
X175316415Y-45957896D01*
X175352000Y-46136797D01*
X175352000Y-46319203D01*
X175316415Y-46498104D01*
X175246611Y-46666626D01*
X175145272Y-46818291D01*
X175016291Y-46947272D01*
X174864626Y-47048611D01*
X174696104Y-47118415D01*
X174517203Y-47154000D01*
X174334797Y-47154000D01*
X174155896Y-47118415D01*
X173987374Y-47048611D01*
X173835709Y-46947272D01*
X173706728Y-46818291D01*
X173605389Y-46666626D01*
X173535585Y-46498104D01*
X173500000Y-46319203D01*
X173500000Y-46136797D01*
X173535585Y-45957896D01*
X173605389Y-45789374D01*
X173706728Y-45637709D01*
X173835709Y-45508728D01*
X173987374Y-45407389D01*
X174155896Y-45337585D01*
X174334797Y-45302000D01*
X174517203Y-45302000D01*
X174696104Y-45337585D01*
G37*
G36*
X170196104Y-45337585D02*
G01*
X170364626Y-45407389D01*
X170516291Y-45508728D01*
X170645272Y-45637709D01*
X170746611Y-45789374D01*
X170816415Y-45957896D01*
X170852000Y-46136797D01*
X170852000Y-46319203D01*
X170816415Y-46498104D01*
X170746611Y-46666626D01*
X170645272Y-46818291D01*
X170516291Y-46947272D01*
X170364626Y-47048611D01*
X170196104Y-47118415D01*
X170017203Y-47154000D01*
X169834797Y-47154000D01*
X169655896Y-47118415D01*
X169487374Y-47048611D01*
X169335709Y-46947272D01*
X169206728Y-46818291D01*
X169105389Y-46666626D01*
X169035585Y-46498104D01*
X169000000Y-46319203D01*
X169000000Y-46136797D01*
X169035585Y-45957896D01*
X169105389Y-45789374D01*
X169206728Y-45637709D01*
X169335709Y-45508728D01*
X169487374Y-45407389D01*
X169655896Y-45337585D01*
X169834797Y-45302000D01*
X170017203Y-45302000D01*
X170196104Y-45337585D01*
G37*
G36*
X142488228Y-45409703D02*
G01*
X142643100Y-45473853D01*
X142782481Y-45566985D01*
X142901015Y-45685519D01*
X142994147Y-45824900D01*
X143058297Y-45979772D01*
X143091000Y-46144184D01*
X143091000Y-46311816D01*
X143058297Y-46476228D01*
X142994147Y-46631100D01*
X142901015Y-46770481D01*
X142782481Y-46889015D01*
X142643100Y-46982147D01*
X142488228Y-47046297D01*
X142323816Y-47079000D01*
X142156184Y-47079000D01*
X141991772Y-47046297D01*
X141836900Y-46982147D01*
X141697519Y-46889015D01*
X141578985Y-46770481D01*
X141485853Y-46631100D01*
X141421703Y-46476228D01*
X141389000Y-46311816D01*
X141389000Y-46144184D01*
X141421703Y-45979772D01*
X141485853Y-45824900D01*
X141578985Y-45685519D01*
X141697519Y-45566985D01*
X141836900Y-45473853D01*
X141991772Y-45409703D01*
X142156184Y-45377000D01*
X142323816Y-45377000D01*
X142488228Y-45409703D01*
G37*
G36*
X139948228Y-45409703D02*
G01*
X140103100Y-45473853D01*
X140242481Y-45566985D01*
X140361015Y-45685519D01*
X140454147Y-45824900D01*
X140518297Y-45979772D01*
X140551000Y-46144184D01*
X140551000Y-46311816D01*
X140518297Y-46476228D01*
X140454147Y-46631100D01*
X140361015Y-46770481D01*
X140242481Y-46889015D01*
X140103100Y-46982147D01*
X139948228Y-47046297D01*
X139783816Y-47079000D01*
X139616184Y-47079000D01*
X139451772Y-47046297D01*
X139296900Y-46982147D01*
X139157519Y-46889015D01*
X139038985Y-46770481D01*
X138945853Y-46631100D01*
X138881703Y-46476228D01*
X138849000Y-46311816D01*
X138849000Y-46144184D01*
X138881703Y-45979772D01*
X138945853Y-45824900D01*
X139038985Y-45685519D01*
X139157519Y-45566985D01*
X139296900Y-45473853D01*
X139451772Y-45409703D01*
X139616184Y-45377000D01*
X139783816Y-45377000D01*
X139948228Y-45409703D01*
G37*
G36*
X145028228Y-45409703D02*
G01*
X145183100Y-45473853D01*
X145322481Y-45566985D01*
X145441015Y-45685519D01*
X145534147Y-45824900D01*
X145598297Y-45979772D01*
X145631000Y-46144184D01*
X145631000Y-46311816D01*
X145598297Y-46476228D01*
X145534147Y-46631100D01*
X145441015Y-46770481D01*
X145322481Y-46889015D01*
X145183100Y-46982147D01*
X145028228Y-47046297D01*
X144863816Y-47079000D01*
X144696184Y-47079000D01*
X144531772Y-47046297D01*
X144376900Y-46982147D01*
X144237519Y-46889015D01*
X144118985Y-46770481D01*
X144025853Y-46631100D01*
X143961703Y-46476228D01*
X143929000Y-46311816D01*
X143929000Y-46144184D01*
X143961703Y-45979772D01*
X144025853Y-45824900D01*
X144118985Y-45685519D01*
X144237519Y-45566985D01*
X144376900Y-45473853D01*
X144531772Y-45409703D01*
X144696184Y-45377000D01*
X144863816Y-45377000D01*
X145028228Y-45409703D01*
G37*
G36*
X148171000Y-47079000D02*
G01*
X146469000Y-47079000D01*
X146469000Y-45377000D01*
X148171000Y-45377000D01*
X148171000Y-47079000D01*
G37*
G36*
X135589674Y-45089465D02*
G01*
X135627367Y-45100899D01*
X135662103Y-45119466D01*
X135692548Y-45144452D01*
X135717534Y-45174897D01*
X135736101Y-45209633D01*
X135747535Y-45247326D01*
X135752000Y-45292661D01*
X135752000Y-46129339D01*
X135747535Y-46174674D01*
X135736101Y-46212367D01*
X135717534Y-46247103D01*
X135692548Y-46277548D01*
X135662103Y-46302534D01*
X135627367Y-46321101D01*
X135589674Y-46332535D01*
X135544339Y-46337000D01*
X134457661Y-46337000D01*
X134412326Y-46332535D01*
X134374633Y-46321101D01*
X134339897Y-46302534D01*
X134309452Y-46277548D01*
X134284466Y-46247103D01*
X134265899Y-46212367D01*
X134254465Y-46174674D01*
X134250000Y-46129339D01*
X134250000Y-45292661D01*
X134254465Y-45247326D01*
X134265899Y-45209633D01*
X134284466Y-45174897D01*
X134309452Y-45144452D01*
X134339897Y-45119466D01*
X134374633Y-45100899D01*
X134412326Y-45089465D01*
X134457661Y-45085000D01*
X135544339Y-45085000D01*
X135589674Y-45089465D01*
G37*
G36*
X132287674Y-45089465D02*
G01*
X132325367Y-45100899D01*
X132360103Y-45119466D01*
X132390548Y-45144452D01*
X132415534Y-45174897D01*
X132434101Y-45209633D01*
X132445535Y-45247326D01*
X132450000Y-45292661D01*
X132450000Y-46129339D01*
X132445535Y-46174674D01*
X132434101Y-46212367D01*
X132415534Y-46247103D01*
X132390548Y-46277548D01*
X132360103Y-46302534D01*
X132325367Y-46321101D01*
X132287674Y-46332535D01*
X132242339Y-46337000D01*
X131155661Y-46337000D01*
X131110326Y-46332535D01*
X131072633Y-46321101D01*
X131037897Y-46302534D01*
X131007452Y-46277548D01*
X130982466Y-46247103D01*
X130963899Y-46212367D01*
X130952465Y-46174674D01*
X130948000Y-46129339D01*
X130948000Y-45292661D01*
X130952465Y-45247326D01*
X130963899Y-45209633D01*
X130982466Y-45174897D01*
X131007452Y-45144452D01*
X131037897Y-45119466D01*
X131072633Y-45100899D01*
X131110326Y-45089465D01*
X131155661Y-45085000D01*
X132242339Y-45085000D01*
X132287674Y-45089465D01*
G37*
M02*
