M48
; DRILL file {KiCad (5.1.5-0-10_14)} date Thursday, 12 March 2020 at 22:04:11
; FORMAT={-:-/ absolute / inch / decimal}
; #@! TF.CreationDate,2020-03-12T22:04:11+00:00
; #@! TF.GenerationSoftware,Kicad,Pcbnew,(5.1.5-0-10_14)
; #@! TF.FileFunction,Plated,1,2,PTH
FMAT,2
INCH
T1C0.0079
T2C0.0157
T3C0.0276
T4C0.0315
T5C0.0354
T6C0.0390
T7C0.0394
T8C0.0472
T9C0.0512
T10C0.0591
%
G90
G05
T1
X4.065Y-4.085
X4.2275Y-3.3975
X4.2275Y-3.64
X4.2711Y-4.6006
X4.4507Y-4.2643
X4.4774Y-4.0742
X4.6325Y-3.3775
X4.6325Y-3.65
X4.6861Y-4.6006
X4.77Y-1.835
X4.8657Y-4.2643
X4.8925Y-4.0775
X4.935Y-2.6
X4.965Y-2.6
X5.025Y-3.655
X5.0275Y-3.4
X5.0956Y-4.6006
X5.14Y-4.03
X5.155Y-2.655
X5.155Y-2.705
X5.16Y-2.6125
X5.25Y-2.155
X5.255Y-2.085
X5.2593Y-2.6993
X5.2593Y-2.7307
X5.2602Y-2.7622
X5.2612Y-2.7937
X5.2807Y-4.2643
X5.3074Y-4.0742
X5.32Y-2.33
X5.3696Y-1.9596
X5.4075Y-2.3
X5.4625Y-3.4375
X5.4625Y-3.64
X5.5075Y-2.3
X5.5106Y-4.6006
X5.6075Y-2.2996
X5.6957Y-4.2643
X5.7075Y-2.2996
X5.7225Y-4.0775
X5.875Y-3.4125
X5.875Y-3.635
X5.9Y-1.82
X5.925Y-2.775
X5.925Y-2.825
X5.925Y-2.875
X5.9256Y-4.6006
X5.975Y-2.775
X5.975Y-2.825
X5.975Y-2.875
X6.025Y-2.775
X6.025Y-2.825
X6.025Y-2.875
X6.1Y-2.8
X6.1Y-2.85
X6.11Y-3.115
X6.1107Y-4.2643
X6.1375Y-4.0768
X6.15Y-2.8
X6.15Y-2.85
X6.2Y-2.8
X6.2Y-2.85
X6.25Y-2.8
X6.285Y-2.915
X6.295Y-3.4025
X6.295Y-3.6475
X6.325Y-2.99
X6.3406Y-4.6006
X6.39Y-3.08
X6.39Y-3.12
X6.39Y-3.16
X6.44Y-3.08
X6.44Y-3.12
X6.44Y-3.16
X6.48Y-3.08
X6.48Y-3.12
X6.48Y-3.16
X6.5257Y-4.2643
X6.5525Y-4.0775
X6.57Y-3.07
X6.61Y-3.07
X6.69Y-3.07
X6.7075Y-3.3875
X6.71Y-3.6475
X6.73Y-3.07
X6.75Y-2.71
X6.755Y-4.6006
X6.875Y-2.475
X6.9407Y-4.2643
X6.9675Y-4.0775
X7.115Y-3.3575
X7.12Y-3.6425
X7.17Y-4.6
X7.355Y-4.26
X7.3824Y-4.0775
X7.515Y-4.815
T2
X3.8456Y-4.6006
X3.87Y-4.075
X3.9Y-3.475
X3.9Y-3.57
X3.9Y-3.65
X3.9Y-3.725
X3.9094Y-3.8894
X3.915Y-4.75
X3.915Y-4.945
X3.97Y-3.65
X3.975Y-3.475
X4.0357Y-4.275
X4.05Y-3.475
X4.05Y-3.65
X4.11Y-4.945
X4.1104Y-4.7554
X4.124Y-3.576
X4.125Y-3.475
X4.125Y-3.65
X4.125Y-3.725
X4.29Y-4.065
X4.3194Y-3.8994
X4.324Y-3.576
X4.325Y-3.475
X4.325Y-3.65
X4.325Y-3.725
X4.34Y-4.75
X4.34Y-4.945
X4.4Y-3.475
X4.4Y-3.65
X4.475Y-3.475
X4.48Y-2.92
X4.48Y-3.65
X4.525Y-4.945
X4.5254Y-4.7654
X4.55Y-3.475
X4.56Y-3.576
X4.56Y-3.65
X4.56Y-3.725
X4.705Y-4.07
X4.724Y-3.576
X4.725Y-3.475
X4.725Y-3.65
X4.725Y-3.725
X4.7294Y-3.8994
X4.755Y-4.745
X4.755Y-4.945
X4.8Y-3.475
X4.8Y-3.65
X4.8387Y-2.7937
X4.875Y-3.475
X4.8758Y-2.8533
X4.88Y-3.65
X4.89Y-2.555
X4.9398Y-2.9348
X4.94Y-4.945
X4.9404Y-4.7654
X4.949Y-3.576
X4.95Y-3.475
X4.95Y-3.65
X4.95Y-3.725
X5.015Y-2.48
X5.0575Y-3.655
X5.0575Y-3.365
X5.065Y-2.38
X5.0657Y-2.9307
X5.07Y-4.06
X5.1066Y-3.0601
X5.125Y-3.475
X5.13Y-3.576
X5.13Y-3.65
X5.13Y-3.725
X5.1394Y-3.8994
X5.17Y-4.75
X5.17Y-4.945
X5.2Y-3.475
X5.2Y-3.65
X5.215Y-2.565
X5.275Y-3.475
X5.28Y-3.65
X5.35Y-3.475
X5.355Y-4.945
X5.3554Y-4.7672
X5.37Y-3.576
X5.37Y-3.65
X5.37Y-3.725
X5.52Y-4.07
X5.55Y-3.576
X5.55Y-3.65
X5.55Y-3.725
X5.56Y-3.905
X5.575Y-3.475
X5.585Y-4.755
X5.585Y-4.945
X5.64Y-3.65
X5.65Y-3.475
X5.72Y-3.65
X5.725Y-3.475
X5.77Y-4.945
X5.7704Y-4.7654
X5.8Y-3.475
X5.8Y-3.576
X5.8Y-3.65
X5.8Y-3.725
X5.95Y-4.06
X5.96Y-3.576
X5.96Y-3.65
X5.96Y-3.725
X5.9694Y-3.8994
X5.97Y-2.24
X5.97Y-2.3281
X5.97Y-2.4462
X5.97Y-2.5643
X5.97Y-2.6524
X5.975Y-3.475
X6.0Y-4.75
X6.0Y-4.945
X6.035Y-3.09
X6.04Y-3.65
X6.05Y-3.475
X6.0881Y-2.24
X6.0881Y-2.3281
X6.0881Y-2.4462
X6.0881Y-2.5643
X6.0881Y-2.6524
X6.125Y-3.475
X6.13Y-3.65
X6.185Y-4.945
X6.1854Y-4.7654
X6.2Y-3.475
X6.2062Y-2.24
X6.2062Y-2.3281
X6.2062Y-2.4462
X6.2062Y-2.5643
X6.2062Y-2.6524
X6.21Y-3.576
X6.21Y-3.65
X6.21Y-3.725
X6.3243Y-2.24
X6.3243Y-2.3281
X6.3243Y-2.4462
X6.3243Y-2.5643
X6.3243Y-2.6524
X6.36Y-4.06
X6.38Y-3.576
X6.38Y-3.65
X6.38Y-3.725
X6.382Y-1.918
X6.3894Y-3.9094
X6.4Y-3.475
X6.41Y-4.75
X6.415Y-4.945
X6.4424Y-2.24
X6.4424Y-2.3281
X6.4424Y-2.4462
X6.4424Y-2.5643
X6.4424Y-2.6524
X6.45Y-3.65
X6.475Y-3.475
X6.54Y-3.65
X6.55Y-3.475
X6.6Y-4.945
X6.6004Y-4.7654
X6.625Y-3.475
X6.63Y-3.576
X6.63Y-3.65
X6.63Y-3.725
X6.73Y-2.99
X6.76Y-2.39
X6.765Y-4.065
X6.79Y-3.576
X6.79Y-3.65
X6.79Y-3.725
X6.7994Y-3.8994
X6.8Y-3.475
X6.83Y-4.75
X6.83Y-4.945
X6.86Y-3.65
X6.875Y-3.475
X6.94Y-3.65
X6.95Y-2.49
X6.95Y-3.475
X7.015Y-4.945
X7.0154Y-4.7654
X7.025Y-3.475
X7.03Y-3.576
X7.03Y-3.65
X7.03Y-3.725
X7.185Y-4.065
X7.2094Y-3.8994
X7.22Y-3.576
X7.22Y-3.65
X7.22Y-3.725
X7.225Y-3.48
X7.245Y-4.755
X7.245Y-4.945
X7.3Y-3.48
X7.3Y-3.65
X7.37Y-3.65
X7.375Y-3.48
X7.43Y-4.945
X7.4304Y-4.7654
X7.44Y-3.48
X7.44Y-3.58
X7.44Y-3.65
X7.44Y-3.725
X7.445Y-2.43
T3
X6.2775Y-3.1875
X6.94Y-2.65
X7.2225Y-2.65
T4
X5.5Y-1.82
X5.5Y-2.12
X5.6Y-1.82
X5.6Y-2.12
X5.7Y-1.82
X5.7Y-2.12
X5.8Y-1.82
X5.8Y-2.12
T5
X4.685Y-4.395
X4.77Y-4.395
X4.855Y-4.395
X4.94Y-4.395
X6.76Y-4.395
X6.845Y-4.395
X6.93Y-4.395
X7.015Y-4.395
X5.1Y-4.395
X5.185Y-4.395
X5.27Y-4.395
X5.355Y-4.395
X7.175Y-4.395
X7.26Y-4.395
X7.345Y-4.395
X7.43Y-4.395
X5.93Y-4.395
X6.015Y-4.395
X6.1Y-4.395
X6.185Y-4.395
X5.51Y-4.395
X5.595Y-4.395
X5.68Y-4.395
X5.765Y-4.395
X6.345Y-4.395
X6.43Y-4.395
X6.515Y-4.395
X6.6Y-4.395
X3.855Y-4.395
X3.94Y-4.395
X4.025Y-4.395
X4.11Y-4.395
X4.27Y-4.395
X4.355Y-4.395
X4.44Y-4.395
X4.525Y-4.395
T6
X6.69Y-1.82
X6.8672Y-1.82
T7
X4.76Y-2.3
X4.86Y-2.3
X4.96Y-2.3
X5.06Y-2.3
X5.16Y-2.3
X5.32Y-2.96
X5.32Y-3.06
X5.32Y-3.16
X5.32Y-3.26
T8
X4.855Y-1.895
X4.855Y-2.105
X4.955Y-1.895
X4.955Y-2.105
X5.055Y-1.895
X5.055Y-2.105
T9
X6.6408Y-1.918
X6.9168Y-1.918
T10
X3.925Y-2.21
X4.025Y-1.81
X4.025Y-2.31
X4.225Y-2.21
X4.425Y-1.81
X4.425Y-2.31
X4.525Y-2.21
T7
G00X4.7506Y-5.1
M15
G01X4.8294Y-5.1
M16
G05
G00X4.7506Y-5.3362
M15
G01X4.8294Y-5.3362
M16
G05
G00X4.975Y-5.2575
M15
G01X4.975Y-5.1787
M16
G05
G00X7.2406Y-5.1
M15
G01X7.3194Y-5.1
M16
G05
G00X7.2406Y-5.3362
M15
G01X7.3194Y-5.3362
M16
G05
G00X7.465Y-5.2575
M15
G01X7.465Y-5.1787
M16
G05
G00X4.3356Y-5.1
M15
G01X4.4144Y-5.1
M16
G05
G00X4.3356Y-5.3362
M15
G01X4.4144Y-5.3362
M16
G05
G00X4.56Y-5.2575
M15
G01X4.56Y-5.1787
M16
G05
G00X6.8256Y-5.1
M15
G01X6.9044Y-5.1
M16
G05
G00X6.8256Y-5.3362
M15
G01X6.9044Y-5.3362
M16
G05
G00X7.05Y-5.2575
M15
G01X7.05Y-5.1787
M16
G05
G00X3.9206Y-5.1
M15
G01X3.9994Y-5.1
M16
G05
G00X3.9206Y-5.3362
M15
G01X3.9994Y-5.3362
M16
G05
G00X4.145Y-5.2575
M15
G01X4.145Y-5.1787
M16
G05
G00X6.4106Y-5.1
M15
G01X6.4894Y-5.1
M16
G05
G00X6.4106Y-5.3362
M15
G01X6.4894Y-5.3362
M16
G05
G00X6.635Y-5.2575
M15
G01X6.635Y-5.1787
M16
G05
G00X7.0925Y-2.1025
M15
G01X7.0925Y-2.1813
M16
G05
G00X7.3169Y-2.0238
M15
G01X7.2381Y-2.0238
M16
G05
G00X7.3169Y-2.26
M15
G01X7.2381Y-2.26
M16
G05
G00X5.9956Y-5.1
M15
G01X6.0744Y-5.1
M16
G05
G00X5.9956Y-5.3362
M15
G01X6.0744Y-5.3362
M16
G05
G00X6.22Y-5.2575
M15
G01X6.22Y-5.1787
M16
G05
G00X5.5806Y-5.1
M15
G01X5.6594Y-5.1
M16
G05
G00X5.5806Y-5.3362
M15
G01X5.6594Y-5.3362
M16
G05
G00X5.805Y-5.2575
M15
G01X5.805Y-5.1787
M16
G05
G00X5.1656Y-5.1
M15
G01X5.2444Y-5.1
M16
G05
G00X5.1656Y-5.3362
M15
G01X5.2444Y-5.3362
M16
G05
G00X5.39Y-5.2575
M15
G01X5.39Y-5.1787
M16
G05
T0
M30
