<?xml version="1.0" standalone="no"?>
 <!DOCTYPE svg PUBLIC "-//W3C//DTD SVG 1.1//EN" 
 "http://www.w3.org/Graphics/SVG/1.1/DTD/svg11.dtd"> 
<svg xmlns="http://www.w3.org/2000/svg" version="1.1" 
    width="29.7002cm" height="21.0007cm" viewBox="0 0 116930 82680 ">
<title>SVG Picture created as ChannelNMOS-ChannelNMOS7.svg date 2020/01/18 01:24:58 </title>
  <desc>Picture generated by Eeschema-SVG </desc>
<g style="fill:#000000; fill-opacity:1;stroke:#000000; stroke-opacity:1;
stroke-linecap:round; stroke-linejoin:round; "
 transform="translate(0 0) scale(1 1)">
</g>
<g style="fill:#000000; fill-opacity:0.0; 
stroke:#000000; stroke-width:-10; stroke-opacity:1; 
stroke-linecap:round; stroke-linejoin:round;">
</g>
<g style="fill:#840000; fill-opacity:0.0; 
stroke:#840000; stroke-width:-10; stroke-opacity:1; 
stroke-linecap:round; stroke-linejoin:round;">
</g>
<g style="fill:#840000; fill-opacity:0.0; 
stroke:#840000; stroke-width:100; stroke-opacity:1; 
stroke-linecap:round; stroke-linejoin:round;">
</g>
<g style="fill:#840000; fill-opacity:0.0; 
stroke:#840000; stroke-width:60; stroke-opacity:1; 
stroke-linecap:round; stroke-linejoin:round;">
<rect x="69690" y="65360" width="42520" height="12600" rx="0" />
</g>
<g style="fill:#840000; fill-opacity:0.0; 
stroke:#840000; stroke-width:100; stroke-opacity:1; 
stroke-linecap:round; stroke-linejoin:round;">
</g>
<g style="fill:#840000; fill-opacity:0.0; 
stroke:#840000; stroke-width:60; stroke-opacity:1; 
stroke-linecap:round; stroke-linejoin:round;">
<rect x="3940" y="3940" width="109050" height="74800" rx="0" />
</g>
<g style="fill:#840000; fill-opacity:0.0; 
stroke:#840000; stroke-width:100; stroke-opacity:1; 
stroke-linecap:round; stroke-linejoin:round;">
</g>
<g style="fill:#840000; fill-opacity:0.0; 
stroke:#840000; stroke-width:60; stroke-opacity:1; 
stroke-linecap:round; stroke-linejoin:round;">
<rect x="4720" y="4720" width="107490" height="73240" rx="0" />
</g>
<g style="fill:#840000; fill-opacity:0.0; 
stroke:#840000; stroke-width:100; stroke-opacity:1; 
stroke-linecap:round; stroke-linejoin:round;">
</g>
<g style="fill:#840000; fill-opacity:0.0; 
stroke:#840000; stroke-width:60; stroke-opacity:1; 
stroke-linecap:round; stroke-linejoin:round;">
<path d="M23620 4720
L23620 3940
" />
</g>
<g style="fill:#840000; fill-opacity:0.0; 
stroke:#840000; stroke-width:100; stroke-opacity:1; 
stroke-linecap:round; stroke-linejoin:round;">
</g>
<g style="fill:#840000; fill-opacity:0.0; 
stroke:#840000; stroke-width:60; stroke-opacity:1; 
stroke-linecap:round; stroke-linejoin:round;">
<path d="M43310 4720
L43310 3940
" />
</g>
<g style="fill:#840000; fill-opacity:0.0; 
stroke:#840000; stroke-width:100; stroke-opacity:1; 
stroke-linecap:round; stroke-linejoin:round;">
</g>
<g style="fill:#840000; fill-opacity:0.0; 
stroke:#840000; stroke-width:60; stroke-opacity:1; 
stroke-linecap:round; stroke-linejoin:round;">
<path d="M62990 4720
L62990 3940
" />
</g>
<g style="fill:#840000; fill-opacity:0.0; 
stroke:#840000; stroke-width:100; stroke-opacity:1; 
stroke-linecap:round; stroke-linejoin:round;">
</g>
<g style="fill:#840000; fill-opacity:0.0; 
stroke:#840000; stroke-width:60; stroke-opacity:1; 
stroke-linecap:round; stroke-linejoin:round;">
<path d="M82680 4720
L82680 3940
" />
</g>
<g style="fill:#840000; fill-opacity:0.0; 
stroke:#840000; stroke-width:100; stroke-opacity:1; 
stroke-linecap:round; stroke-linejoin:round;">
</g>
<g style="fill:#840000; fill-opacity:0.0; 
stroke:#840000; stroke-width:60; stroke-opacity:1; 
stroke-linecap:round; stroke-linejoin:round;">
<path d="M102360 4720
L102360 3940
" />
</g>
<g style="fill:#840000; fill-opacity:0.0; 
stroke:#840000; stroke-width:100; stroke-opacity:1; 
stroke-linecap:round; stroke-linejoin:round;">
</g>
<g style="fill:#840000; fill-opacity:0.0; 
stroke:#840000; stroke-width:60; stroke-opacity:1; 
stroke-linecap:round; stroke-linejoin:round;">
<text x="13780" y="4580"
textLength="550" font-size="680" lengthAdjust="spacingAndGlyphs"
text-anchor="start" opacity="0">1</text>
<path d="M14190 4560
L13900 4560
" />
<path d="M14050 4560
L14050 4050
L14000 4120
L13950 4170
L13900 4190
" />
</g>
<g style="fill:#840000; fill-opacity:0.0; 
stroke:#840000; stroke-width:100; stroke-opacity:1; 
stroke-linecap:round; stroke-linejoin:round;">
</g>
<g style="fill:#840000; fill-opacity:0.0; 
stroke:#840000; stroke-width:60; stroke-opacity:1; 
stroke-linecap:round; stroke-linejoin:round;">
<text x="33460" y="4580"
textLength="550" font-size="680" lengthAdjust="spacingAndGlyphs"
text-anchor="start" opacity="0">2</text>
<path d="M33580 4090
L33610 4070
L33660 4050
L33780 4050
L33830 4070
L33850 4090
L33870 4140
L33870 4190
L33850 4260
L33560 4560
L33870 4560
" />
</g>
<g style="fill:#840000; fill-opacity:0.0; 
stroke:#840000; stroke-width:100; stroke-opacity:1; 
stroke-linecap:round; stroke-linejoin:round;">
</g>
<g style="fill:#840000; fill-opacity:0.0; 
stroke:#840000; stroke-width:60; stroke-opacity:1; 
stroke-linecap:round; stroke-linejoin:round;">
<text x="53150" y="4580"
textLength="550" font-size="680" lengthAdjust="spacingAndGlyphs"
text-anchor="start" opacity="0">3</text>
<path d="M53250 4050
L53560 4050
L53390 4240
L53470 4240
L53520 4260
L53540 4290
L53560 4340
L53560 4460
L53540 4510
L53520 4530
L53470 4560
L53320 4560
L53270 4530
L53250 4510
" />
</g>
<g style="fill:#840000; fill-opacity:0.0; 
stroke:#840000; stroke-width:100; stroke-opacity:1; 
stroke-linecap:round; stroke-linejoin:round;">
</g>
<g style="fill:#840000; fill-opacity:0.0; 
stroke:#840000; stroke-width:60; stroke-opacity:1; 
stroke-linecap:round; stroke-linejoin:round;">
<text x="72830" y="4580"
textLength="550" font-size="680" lengthAdjust="spacingAndGlyphs"
text-anchor="start" opacity="0">4</text>
<path d="M73200 4220
L73200 4560
" />
<path d="M73070 4020
L72950 4390
L73270 4390
" />
</g>
<g style="fill:#840000; fill-opacity:0.0; 
stroke:#840000; stroke-width:100; stroke-opacity:1; 
stroke-linecap:round; stroke-linejoin:round;">
</g>
<g style="fill:#840000; fill-opacity:0.0; 
stroke:#840000; stroke-width:60; stroke-opacity:1; 
stroke-linecap:round; stroke-linejoin:round;">
<text x="92520" y="4580"
textLength="550" font-size="680" lengthAdjust="spacingAndGlyphs"
text-anchor="start" opacity="0">5</text>
<path d="M92910 4050
L92670 4050
L92640 4290
L92670 4260
L92720 4240
L92840 4240
L92890 4260
L92910 4290
L92930 4340
L92930 4460
L92910 4510
L92890 4530
L92840 4560
L92720 4560
L92670 4530
L92640 4510
" />
</g>
<g style="fill:#840000; fill-opacity:0.0; 
stroke:#840000; stroke-width:100; stroke-opacity:1; 
stroke-linecap:round; stroke-linejoin:round;">
</g>
<g style="fill:#840000; fill-opacity:0.0; 
stroke:#840000; stroke-width:60; stroke-opacity:1; 
stroke-linecap:round; stroke-linejoin:round;">
<text x="112200" y="4580"
textLength="550" font-size="680" lengthAdjust="spacingAndGlyphs"
text-anchor="start" opacity="0">6</text>
<path d="M112570 4050
L112470 4050
L112420 4070
L112400 4090
L112350 4170
L112320 4260
L112320 4460
L112350 4510
L112370 4530
L112420 4560
L112520 4560
L112570 4530
L112590 4510
L112610 4460
L112610 4340
L112590 4290
L112570 4260
L112520 4240
L112420 4240
L112370 4260
L112350 4290
L112320 4340
" />
</g>
<g style="fill:#840000; fill-opacity:0.0; 
stroke:#840000; stroke-width:100; stroke-opacity:1; 
stroke-linecap:round; stroke-linejoin:round;">
</g>
<g style="fill:#840000; fill-opacity:0.0; 
stroke:#840000; stroke-width:60; stroke-opacity:1; 
stroke-linecap:round; stroke-linejoin:round;">
<path d="M23620 77960
L23620 78740
" />
</g>
<g style="fill:#840000; fill-opacity:0.0; 
stroke:#840000; stroke-width:100; stroke-opacity:1; 
stroke-linecap:round; stroke-linejoin:round;">
</g>
<g style="fill:#840000; fill-opacity:0.0; 
stroke:#840000; stroke-width:60; stroke-opacity:1; 
stroke-linecap:round; stroke-linejoin:round;">
<path d="M43310 77960
L43310 78740
" />
</g>
<g style="fill:#840000; fill-opacity:0.0; 
stroke:#840000; stroke-width:100; stroke-opacity:1; 
stroke-linecap:round; stroke-linejoin:round;">
</g>
<g style="fill:#840000; fill-opacity:0.0; 
stroke:#840000; stroke-width:60; stroke-opacity:1; 
stroke-linecap:round; stroke-linejoin:round;">
<path d="M62990 77960
L62990 78740
" />
</g>
<g style="fill:#840000; fill-opacity:0.0; 
stroke:#840000; stroke-width:100; stroke-opacity:1; 
stroke-linecap:round; stroke-linejoin:round;">
</g>
<g style="fill:#840000; fill-opacity:0.0; 
stroke:#840000; stroke-width:60; stroke-opacity:1; 
stroke-linecap:round; stroke-linejoin:round;">
<path d="M82680 77960
L82680 78740
" />
</g>
<g style="fill:#840000; fill-opacity:0.0; 
stroke:#840000; stroke-width:100; stroke-opacity:1; 
stroke-linecap:round; stroke-linejoin:round;">
</g>
<g style="fill:#840000; fill-opacity:0.0; 
stroke:#840000; stroke-width:60; stroke-opacity:1; 
stroke-linecap:round; stroke-linejoin:round;">
<path d="M102360 77960
L102360 78740
" />
</g>
<g style="fill:#840000; fill-opacity:0.0; 
stroke:#840000; stroke-width:100; stroke-opacity:1; 
stroke-linecap:round; stroke-linejoin:round;">
</g>
<g style="fill:#840000; fill-opacity:0.0; 
stroke:#840000; stroke-width:60; stroke-opacity:1; 
stroke-linecap:round; stroke-linejoin:round;">
<text x="13780" y="78600"
textLength="550" font-size="680" lengthAdjust="spacingAndGlyphs"
text-anchor="start" opacity="0">1</text>
<path d="M14190 78580
L13900 78580
" />
<path d="M14050 78580
L14050 78070
L14000 78140
L13950 78190
L13900 78210
" />
</g>
<g style="fill:#840000; fill-opacity:0.0; 
stroke:#840000; stroke-width:100; stroke-opacity:1; 
stroke-linecap:round; stroke-linejoin:round;">
</g>
<g style="fill:#840000; fill-opacity:0.0; 
stroke:#840000; stroke-width:60; stroke-opacity:1; 
stroke-linecap:round; stroke-linejoin:round;">
<text x="33460" y="78600"
textLength="550" font-size="680" lengthAdjust="spacingAndGlyphs"
text-anchor="start" opacity="0">2</text>
<path d="M33580 78110
L33610 78090
L33660 78070
L33780 78070
L33830 78090
L33850 78110
L33870 78160
L33870 78210
L33850 78280
L33560 78580
L33870 78580
" />
</g>
<g style="fill:#840000; fill-opacity:0.0; 
stroke:#840000; stroke-width:100; stroke-opacity:1; 
stroke-linecap:round; stroke-linejoin:round;">
</g>
<g style="fill:#840000; fill-opacity:0.0; 
stroke:#840000; stroke-width:60; stroke-opacity:1; 
stroke-linecap:round; stroke-linejoin:round;">
<text x="53150" y="78600"
textLength="550" font-size="680" lengthAdjust="spacingAndGlyphs"
text-anchor="start" opacity="0">3</text>
<path d="M53250 78070
L53560 78070
L53390 78260
L53470 78260
L53520 78280
L53540 78310
L53560 78360
L53560 78480
L53540 78530
L53520 78550
L53470 78580
L53320 78580
L53270 78550
L53250 78530
" />
</g>
<g style="fill:#840000; fill-opacity:0.0; 
stroke:#840000; stroke-width:100; stroke-opacity:1; 
stroke-linecap:round; stroke-linejoin:round;">
</g>
<g style="fill:#840000; fill-opacity:0.0; 
stroke:#840000; stroke-width:60; stroke-opacity:1; 
stroke-linecap:round; stroke-linejoin:round;">
<text x="72830" y="78600"
textLength="550" font-size="680" lengthAdjust="spacingAndGlyphs"
text-anchor="start" opacity="0">4</text>
<path d="M73200 78240
L73200 78580
" />
<path d="M73070 78040
L72950 78410
L73270 78410
" />
</g>
<g style="fill:#840000; fill-opacity:0.0; 
stroke:#840000; stroke-width:100; stroke-opacity:1; 
stroke-linecap:round; stroke-linejoin:round;">
</g>
<g style="fill:#840000; fill-opacity:0.0; 
stroke:#840000; stroke-width:60; stroke-opacity:1; 
stroke-linecap:round; stroke-linejoin:round;">
<text x="92520" y="78600"
textLength="550" font-size="680" lengthAdjust="spacingAndGlyphs"
text-anchor="start" opacity="0">5</text>
<path d="M92910 78070
L92670 78070
L92640 78310
L92670 78280
L92720 78260
L92840 78260
L92890 78280
L92910 78310
L92930 78360
L92930 78480
L92910 78530
L92890 78550
L92840 78580
L92720 78580
L92670 78550
L92640 78530
" />
</g>
<g style="fill:#840000; fill-opacity:0.0; 
stroke:#840000; stroke-width:100; stroke-opacity:1; 
stroke-linecap:round; stroke-linejoin:round;">
</g>
<g style="fill:#840000; fill-opacity:0.0; 
stroke:#840000; stroke-width:60; stroke-opacity:1; 
stroke-linecap:round; stroke-linejoin:round;">
<text x="112200" y="78600"
textLength="550" font-size="680" lengthAdjust="spacingAndGlyphs"
text-anchor="start" opacity="0">6</text>
<path d="M112570 78070
L112470 78070
L112420 78090
L112400 78110
L112350 78190
L112320 78280
L112320 78480
L112350 78530
L112370 78550
L112420 78580
L112520 78580
L112570 78550
L112590 78530
L112610 78480
L112610 78360
L112590 78310
L112570 78280
L112520 78260
L112420 78260
L112370 78280
L112350 78310
L112320 78360
" />
</g>
<g style="fill:#840000; fill-opacity:0.0; 
stroke:#840000; stroke-width:100; stroke-opacity:1; 
stroke-linecap:round; stroke-linejoin:round;">
</g>
<g style="fill:#840000; fill-opacity:0.0; 
stroke:#840000; stroke-width:60; stroke-opacity:1; 
stroke-linecap:round; stroke-linejoin:round;">
<path d="M3940 23620
L4720 23620
" />
</g>
<g style="fill:#840000; fill-opacity:0.0; 
stroke:#840000; stroke-width:100; stroke-opacity:1; 
stroke-linecap:round; stroke-linejoin:round;">
</g>
<g style="fill:#840000; fill-opacity:0.0; 
stroke:#840000; stroke-width:60; stroke-opacity:1; 
stroke-linecap:round; stroke-linejoin:round;">
<path d="M3940 43310
L4720 43310
" />
</g>
<g style="fill:#840000; fill-opacity:0.0; 
stroke:#840000; stroke-width:100; stroke-opacity:1; 
stroke-linecap:round; stroke-linejoin:round;">
</g>
<g style="fill:#840000; fill-opacity:0.0; 
stroke:#840000; stroke-width:60; stroke-opacity:1; 
stroke-linecap:round; stroke-linejoin:round;">
<path d="M3940 62990
L4720 62990
" />
</g>
<g style="fill:#840000; fill-opacity:0.0; 
stroke:#840000; stroke-width:100; stroke-opacity:1; 
stroke-linecap:round; stroke-linejoin:round;">
</g>
<g style="fill:#840000; fill-opacity:0.0; 
stroke:#840000; stroke-width:60; stroke-opacity:1; 
stroke-linecap:round; stroke-linejoin:round;">
<text x="4330" y="14030"
textLength="500" font-size="680" lengthAdjust="spacingAndGlyphs"
text-anchor="middle" opacity="0">A</text>
<path d="M4200 13860
L4450 13860
" />
<path d="M4160 14010
L4330 13500
L4500 14010
" />
</g>
<g style="fill:#840000; fill-opacity:0.0; 
stroke:#840000; stroke-width:100; stroke-opacity:1; 
stroke-linecap:round; stroke-linejoin:round;">
</g>
<g style="fill:#840000; fill-opacity:0.0; 
stroke:#840000; stroke-width:60; stroke-opacity:1; 
stroke-linecap:round; stroke-linejoin:round;">
<text x="4330" y="33710"
textLength="570" font-size="680" lengthAdjust="spacingAndGlyphs"
text-anchor="middle" opacity="0">B</text>
<path d="M4360 33420
L4430 33440
L4460 33470
L4480 33520
L4480 33590
L4460 33640
L4430 33660
L4390 33690
L4190 33690
L4190 33180
L4360 33180
L4410 33200
L4430 33220
L4460 33270
L4460 33320
L4430 33370
L4410 33390
L4360 33420
L4190 33420
" />
</g>
<g style="fill:#840000; fill-opacity:0.0; 
stroke:#840000; stroke-width:100; stroke-opacity:1; 
stroke-linecap:round; stroke-linejoin:round;">
</g>
<g style="fill:#840000; fill-opacity:0.0; 
stroke:#840000; stroke-width:60; stroke-opacity:1; 
stroke-linecap:round; stroke-linejoin:round;">
<text x="4330" y="53400"
textLength="570" font-size="680" lengthAdjust="spacingAndGlyphs"
text-anchor="middle" opacity="0">C</text>
<path d="M4480 53330
L4460 53350
L4390 53380
L4340 53380
L4260 53350
L4220 53300
L4190 53250
L4170 53160
L4170 53080
L4190 52990
L4220 52940
L4260 52890
L4340 52870
L4390 52870
L4460 52890
L4480 52910
" />
</g>
<g style="fill:#840000; fill-opacity:0.0; 
stroke:#840000; stroke-width:100; stroke-opacity:1; 
stroke-linecap:round; stroke-linejoin:round;">
</g>
<g style="fill:#840000; fill-opacity:0.0; 
stroke:#840000; stroke-width:60; stroke-opacity:1; 
stroke-linecap:round; stroke-linejoin:round;">
<text x="4330" y="73080"
textLength="570" font-size="680" lengthAdjust="spacingAndGlyphs"
text-anchor="middle" opacity="0">D</text>
<path d="M4190 73060
L4190 72550
L4310 72550
L4390 72570
L4430 72620
L4460 72670
L4480 72760
L4480 72840
L4460 72930
L4430 72980
L4390 73030
L4310 73060
L4190 73060
" />
</g>
<g style="fill:#840000; fill-opacity:0.0; 
stroke:#840000; stroke-width:100; stroke-opacity:1; 
stroke-linecap:round; stroke-linejoin:round;">
</g>
<g style="fill:#840000; fill-opacity:0.0; 
stroke:#840000; stroke-width:60; stroke-opacity:1; 
stroke-linecap:round; stroke-linejoin:round;">
<path d="M112990 23620
L112210 23620
" />
</g>
<g style="fill:#840000; fill-opacity:0.0; 
stroke:#840000; stroke-width:100; stroke-opacity:1; 
stroke-linecap:round; stroke-linejoin:round;">
</g>
<g style="fill:#840000; fill-opacity:0.0; 
stroke:#840000; stroke-width:60; stroke-opacity:1; 
stroke-linecap:round; stroke-linejoin:round;">
<path d="M112990 43310
L112210 43310
" />
</g>
<g style="fill:#840000; fill-opacity:0.0; 
stroke:#840000; stroke-width:100; stroke-opacity:1; 
stroke-linecap:round; stroke-linejoin:round;">
</g>
<g style="fill:#840000; fill-opacity:0.0; 
stroke:#840000; stroke-width:60; stroke-opacity:1; 
stroke-linecap:round; stroke-linejoin:round;">
<path d="M112990 62990
L112210 62990
" />
</g>
<g style="fill:#840000; fill-opacity:0.0; 
stroke:#840000; stroke-width:100; stroke-opacity:1; 
stroke-linecap:round; stroke-linejoin:round;">
</g>
<g style="fill:#840000; fill-opacity:0.0; 
stroke:#840000; stroke-width:60; stroke-opacity:1; 
stroke-linecap:round; stroke-linejoin:round;">
<text x="112600" y="14030"
textLength="500" font-size="680" lengthAdjust="spacingAndGlyphs"
text-anchor="middle" opacity="0">A</text>
<path d="M112470 13860
L112720 13860
" />
<path d="M112430 14010
L112600 13500
L112770 14010
" />
</g>
<g style="fill:#840000; fill-opacity:0.0; 
stroke:#840000; stroke-width:100; stroke-opacity:1; 
stroke-linecap:round; stroke-linejoin:round;">
</g>
<g style="fill:#840000; fill-opacity:0.0; 
stroke:#840000; stroke-width:60; stroke-opacity:1; 
stroke-linecap:round; stroke-linejoin:round;">
<text x="112600" y="33710"
textLength="570" font-size="680" lengthAdjust="spacingAndGlyphs"
text-anchor="middle" opacity="0">B</text>
<path d="M112630 33420
L112700 33440
L112730 33470
L112750 33520
L112750 33590
L112730 33640
L112700 33660
L112660 33690
L112460 33690
L112460 33180
L112630 33180
L112680 33200
L112700 33220
L112730 33270
L112730 33320
L112700 33370
L112680 33390
L112630 33420
L112460 33420
" />
</g>
<g style="fill:#840000; fill-opacity:0.0; 
stroke:#840000; stroke-width:100; stroke-opacity:1; 
stroke-linecap:round; stroke-linejoin:round;">
</g>
<g style="fill:#840000; fill-opacity:0.0; 
stroke:#840000; stroke-width:60; stroke-opacity:1; 
stroke-linecap:round; stroke-linejoin:round;">
<text x="112600" y="53400"
textLength="570" font-size="680" lengthAdjust="spacingAndGlyphs"
text-anchor="middle" opacity="0">C</text>
<path d="M112750 53330
L112730 53350
L112660 53380
L112610 53380
L112530 53350
L112490 53300
L112460 53250
L112440 53160
L112440 53080
L112460 52990
L112490 52940
L112530 52890
L112610 52870
L112660 52870
L112730 52890
L112750 52910
" />
</g>
<g style="fill:#840000; fill-opacity:0.0; 
stroke:#840000; stroke-width:100; stroke-opacity:1; 
stroke-linecap:round; stroke-linejoin:round;">
</g>
<g style="fill:#840000; fill-opacity:0.0; 
stroke:#840000; stroke-width:60; stroke-opacity:1; 
stroke-linecap:round; stroke-linejoin:round;">
<text x="112600" y="73080"
textLength="570" font-size="680" lengthAdjust="spacingAndGlyphs"
text-anchor="middle" opacity="0">D</text>
<path d="M112460 73060
L112460 72550
L112580 72550
L112660 72570
L112700 72620
L112730 72670
L112750 72760
L112750 72840
L112730 72930
L112700 72980
L112660 73030
L112580 73060
L112460 73060
" />
</g>
<g style="fill:#840000; fill-opacity:0.0; 
stroke:#840000; stroke-width:100; stroke-opacity:1; 
stroke-linecap:round; stroke-linejoin:round;">
</g>
<g style="fill:#840000; fill-opacity:0.0; 
stroke:#840000; stroke-width:60; stroke-opacity:1; 
stroke-linecap:round; stroke-linejoin:round;">
<text x="78740" y="76320"
textLength="2760" font-size="780" lengthAdjust="spacingAndGlyphs"
text-anchor="start" opacity="0">Date: </text>
<path d="M78910 76290
L78910 75700
L79050 75700
L79130 75730
L79190 75790
L79210 75840
L79240 75950
L79240 76040
L79210 76150
L79190 76210
L79130 76260
L79050 76290
L78910 76290
" />
<path d="M79750 76290
L79750 75980
L79720 75930
L79660 75900
L79550 75900
L79500 75930
" />
<path d="M79750 76260
L79690 76290
L79550 76290
L79500 76260
L79470 76210
L79470 76150
L79500 76100
L79550 76070
L79690 76070
L79750 76040
" />
<path d="M79950 75900
L80170 75900
" />
<path d="M80030 75700
L80030 76210
L80060 76260
L80110 76290
L80170 76290
" />
<path d="M80590 76260
L80540 76290
L80420 76290
L80370 76260
L80340 76210
L80340 75980
L80370 75930
L80420 75900
L80540 75900
L80590 75930
L80620 75980
L80620 76040
L80340 76100
" />
<path d="M80870 76240
L80900 76260
L80870 76290
L80840 76260
L80870 76240
L80870 76290
" />
<path d="M80870 75930
L80900 75950
L80870 75980
L80840 75950
L80870 75930
L80870 75980
" />
</g>
<g style="fill:#840000; fill-opacity:0.0; 
stroke:#840000; stroke-width:100; stroke-opacity:1; 
stroke-linecap:round; stroke-linejoin:round;">
</g>
<g style="fill:#840000; fill-opacity:0.0; 
stroke:#840000; stroke-width:60; stroke-opacity:1; 
stroke-linecap:round; stroke-linejoin:round;">
<path d="M69690 76580
L112210 76580
" />
</g>
<g style="fill:#840000; fill-opacity:0.0; 
stroke:#840000; stroke-width:100; stroke-opacity:1; 
stroke-linecap:round; stroke-linejoin:round;">
</g>
<g style="fill:#840000; fill-opacity:0.0; 
stroke:#840000; stroke-width:60; stroke-opacity:1; 
stroke-linecap:round; stroke-linejoin:round;">
<text x="70080" y="77420"
textLength="23550" font-size="780" lengthAdjust="spacingAndGlyphs"
text-anchor="start" opacity="0">KiCad E.D.A.  kicad 5.1.5-52549c5~84~ubuntu18.04.1</text>
<path d="M70250 77390
L70250 76800
" />
<path d="M70580 77390
L70330 77050
" />
<path d="M70580 76800
L70250 77140
" />
<path d="M70840 77390
L70840 77000
" />
<path d="M70840 76800
L70810 76830
L70840 76860
L70860 76830
L70840 76800
L70840 76860
" />
<path d="M71450 77340
L71430 77360
L71340 77390
L71290 77390
L71200 77360
L71140 77310
L71120 77250
L71090 77140
L71090 77050
L71120 76940
L71140 76890
L71200 76830
L71290 76800
L71340 76800
L71430 76830
L71450 76860
" />
<path d="M71960 77390
L71960 77080
L71930 77030
L71880 77000
L71760 77000
L71710 77030
" />
<path d="M71960 77360
L71900 77390
L71760 77390
L71710 77360
L71680 77310
L71680 77250
L71710 77200
L71760 77170
L71900 77170
L71960 77140
" />
<path d="M72490 77390
L72490 76800
" />
<path d="M72490 77360
L72440 77390
L72320 77390
L72270 77360
L72240 77340
L72210 77280
L72210 77110
L72240 77050
L72270 77030
L72320 77000
L72440 77000
L72490 77030
" />
<path d="M73220 77080
L73420 77080
" />
<path d="M73500 77390
L73220 77390
L73220 76800
L73500 76800
" />
<path d="M73760 77340
L73790 77360
L73760 77390
L73730 77360
L73760 77340
L73760 77390
" />
<path d="M74040 77390
L74040 76800
L74180 76800
L74260 76830
L74320 76890
L74350 76940
L74380 77050
L74380 77140
L74350 77250
L74320 77310
L74260 77360
L74180 77390
L74040 77390
" />
<path d="M74630 77340
L74660 77360
L74630 77390
L74600 77360
L74630 77340
L74630 77390
" />
<path d="M74880 77220
L75160 77220
" />
<path d="M74830 77390
L75020 76800
L75220 77390
" />
<path d="M75420 77340
L75440 77360
L75420 77390
L75390 77360
L75420 77340
L75420 77390
" />
<path d="M76600 77390
L76600 76800
" />
<path d="M76650 77170
L76820 77390
" />
<path d="M76820 77000
L76600 77220
" />
<path d="M77070 77390
L77070 77000
" />
<path d="M77070 76800
L77040 76830
L77070 76860
L77100 76830
L77070 76800
L77070 76860
" />
<path d="M77610 77360
L77550 77390
L77440 77390
L77380 77360
L77350 77340
L77330 77280
L77330 77110
L77350 77050
L77380 77030
L77440 77000
L77550 77000
L77610 77030
" />
<path d="M78110 77390
L78110 77080
L78080 77030
L78030 77000
L77920 77000
L77860 77030
" />
<path d="M78110 77360
L78060 77390
L77920 77390
L77860 77360
L77830 77310
L77830 77250
L77860 77200
L77920 77170
L78060 77170
L78110 77140
" />
<path d="M78650 77390
L78650 76800
" />
<path d="M78650 77360
L78590 77390
L78480 77390
L78420 77360
L78390 77340
L78370 77280
L78370 77110
L78390 77050
L78420 77030
L78480 77000
L78590 77000
L78650 77030
" />
<path d="M79660 76800
L79380 76800
L79350 77080
L79380 77050
L79430 77030
L79570 77030
L79630 77050
L79660 77080
L79690 77140
L79690 77280
L79660 77340
L79630 77360
L79570 77390
L79430 77390
L79380 77360
L79350 77340
" />
<path d="M79940 77340
L79970 77360
L79940 77390
L79910 77360
L79940 77340
L79940 77390
" />
<path d="M80530 77390
L80190 77390
" />
<path d="M80360 77390
L80360 76800
L80300 76890
L80250 76940
L80190 76970
" />
<path d="M80780 77340
L80810 77360
L80780 77390
L80750 77360
L80780 77340
L80780 77390
" />
<path d="M81340 76800
L81060 76800
L81030 77080
L81060 77050
L81120 77030
L81260 77030
L81320 77050
L81340 77080
L81370 77140
L81370 77280
L81340 77340
L81320 77360
L81260 77390
L81120 77390
L81060 77360
L81030 77340
" />
<path d="M81620 77170
L82070 77170
" />
<path d="M82640 76800
L82350 76800
L82330 77080
L82350 77050
L82410 77030
L82550 77030
L82610 77050
L82640 77080
L82660 77140
L82660 77280
L82640 77340
L82610 77360
L82550 77390
L82410 77390
L82350 77360
L82330 77340
" />
<path d="M82890 76860
L82920 76830
L82970 76800
L83110 76800
L83170 76830
L83200 76860
L83230 76910
L83230 76970
L83200 77050
L82860 77390
L83230 77390
" />
<path d="M83760 76800
L83480 76800
L83450 77080
L83480 77050
L83530 77030
L83680 77030
L83730 77050
L83760 77080
L83790 77140
L83790 77280
L83760 77340
L83730 77360
L83680 77390
L83530 77390
L83480 77360
L83450 77340
" />
<path d="M84290 77000
L84290 77390
" />
<path d="M84150 76770
L84010 77200
L84380 77200
" />
<path d="M84630 77390
L84740 77390
L84800 77360
L84830 77340
L84880 77250
L84910 77140
L84910 76910
L84880 76860
L84860 76830
L84800 76800
L84690 76800
L84630 76830
L84600 76860
L84570 76910
L84570 77050
L84600 77110
L84630 77140
L84690 77170
L84800 77170
L84860 77140
L84880 77110
L84910 77050
" />
<path d="M85420 77360
L85360 77390
L85250 77390
L85190 77360
L85160 77340
L85140 77280
L85140 77110
L85160 77050
L85190 77030
L85250 77000
L85360 77000
L85420 77030
" />
<path d="M85950 76800
L85670 76800
L85640 77080
L85670 77050
L85730 77030
L85870 77030
L85920 77050
L85950 77080
L85980 77140
L85980 77280
L85950 77340
L85920 77360
L85870 77390
L85730 77390
L85670 77360
L85640 77340
" />
<path d="M86090 76640
L86650 76640
" />
<path d="M86320 77050
L86260 77030
L86230 77000
L86200 76940
L86200 76910
L86230 76860
L86260 76830
L86320 76800
L86430 76800
L86480 76830
L86510 76860
L86540 76910
L86540 76940
L86510 77000
L86480 77030
L86430 77050
L86320 77050
L86260 77080
L86230 77110
L86200 77170
L86200 77280
L86230 77340
L86260 77360
L86320 77390
L86430 77390
L86480 77360
L86510 77340
L86540 77280
L86540 77170
L86510 77110
L86480 77080
L86430 77050
" />
<path d="M86650 76640
L87220 76640
" />
<path d="M87050 77000
L87050 77390
" />
<path d="M86910 76770
L86770 77200
L87130 77200
" />
<path d="M87610 77000
L87610 77390
" />
<path d="M87360 77000
L87360 77310
L87380 77360
L87440 77390
L87520 77390
L87580 77360
L87610 77340
" />
<path d="M87890 77390
L87890 76800
" />
<path d="M87890 77030
L87950 77000
L88060 77000
L88110 77030
L88140 77050
L88170 77110
L88170 77280
L88140 77340
L88110 77360
L88060 77390
L87950 77390
L87890 77360
" />
<path d="M88680 77000
L88680 77390
" />
<path d="M88420 77000
L88420 77310
L88450 77360
L88510 77390
L88590 77390
L88650 77360
L88680 77340
" />
<path d="M88960 77000
L88960 77390
" />
<path d="M88960 77050
L88990 77030
L89040 77000
L89130 77000
L89180 77030
L89210 77080
L89210 77390
" />
<path d="M89410 77000
L89630 77000
" />
<path d="M89490 76800
L89490 77310
L89520 77360
L89580 77390
L89630 77390
" />
<path d="M90080 77000
L90080 77390
" />
<path d="M89830 77000
L89830 77310
L89860 77360
L89910 77390
L90000 77390
L90050 77360
L90080 77340
" />
<path d="M90670 77390
L90330 77390
" />
<path d="M90500 77390
L90500 76800
L90450 76890
L90390 76940
L90330 76970
" />
<path d="M91010 77050
L90950 77030
L90920 77000
L90900 76940
L90900 76910
L90920 76860
L90950 76830
L91010 76800
L91120 76800
L91180 76830
L91200 76860
L91230 76910
L91230 76940
L91200 77000
L91180 77030
L91120 77050
L91010 77050
L90950 77080
L90920 77110
L90900 77170
L90900 77280
L90920 77340
L90950 77360
L91010 77390
L91120 77390
L91180 77360
L91200 77340
L91230 77280
L91230 77170
L91200 77110
L91180 77080
L91120 77050
" />
<path d="M91490 77340
L91510 77360
L91490 77390
L91460 77360
L91490 77340
L91490 77390
" />
<path d="M91880 76800
L91940 76800
L91990 76830
L92020 76860
L92050 76910
L92080 77030
L92080 77170
L92050 77280
L92020 77340
L91990 77360
L91940 77390
L91880 77390
L91820 77360
L91790 77340
L91770 77280
L91740 77170
L91740 77030
L91770 76910
L91790 76860
L91820 76830
L91880 76800
" />
<path d="M92580 77000
L92580 77390
" />
<path d="M92440 76770
L92300 77200
L92670 77200
" />
<path d="M92890 77340
L92920 77360
L92890 77390
L92860 77360
L92890 77340
L92890 77390
" />
<path d="M93480 77390
L93140 77390
" />
<path d="M93310 77390
L93310 76800
L93260 76890
L93200 76940
L93140 76970
" />
</g>
<g style="fill:#840000; fill-opacity:0.0; 
stroke:#840000; stroke-width:100; stroke-opacity:1; 
stroke-linecap:round; stroke-linejoin:round;">
</g>
<g style="fill:#840000; fill-opacity:0.0; 
stroke:#840000; stroke-width:60; stroke-opacity:1; 
stroke-linecap:round; stroke-linejoin:round;">
<path d="M69690 75400
L112210 75400
" />
</g>
<g style="fill:#840000; fill-opacity:0.0; 
stroke:#840000; stroke-width:100; stroke-opacity:1; 
stroke-linecap:round; stroke-linejoin:round;">
</g>
<g style="fill:#840000; fill-opacity:0.0; 
stroke:#840000; stroke-width:120; stroke-opacity:1; 
stroke-linecap:round; stroke-linejoin:round;">
<text x="103540" y="76320"
textLength="2340" font-size="780" lengthAdjust="spacingAndGlyphs"
text-anchor="start" opacity="0">Rev: </text>
<path d="M104090 76290
L103890 76010
" />
<path d="M103750 76290
L103750 75700
L103980 75700
L104030 75730
L104060 75760
L104090 75810
L104090 75900
L104060 75950
L104030 75980
L103980 76010
L103750 76010
" />
<path d="M104570 76260
L104510 76290
L104400 76290
L104340 76260
L104320 76210
L104320 75980
L104340 75930
L104400 75900
L104510 75900
L104570 75930
L104600 75980
L104600 76040
L104320 76100
" />
<path d="M104790 75900
L104930 76290
L105070 75900
" />
<path d="M105300 76240
L105330 76260
L105300 76290
L105270 76260
L105300 76240
L105300 76290
" />
<path d="M105300 75930
L105330 75950
L105300 75980
L105270 75950
L105300 75930
L105300 75980
" />
</g>
<g style="fill:#840000; fill-opacity:0.0; 
stroke:#840000; stroke-width:100; stroke-opacity:1; 
stroke-linecap:round; stroke-linejoin:round;">
</g>
<g style="fill:#840000; fill-opacity:0.0; 
stroke:#840000; stroke-width:60; stroke-opacity:1; 
stroke-linecap:round; stroke-linejoin:round;">
<text x="70080" y="76320"
textLength="3780" font-size="780" lengthAdjust="spacingAndGlyphs"
text-anchor="start" opacity="0">Size: A4</text>
<path d="M70220 76260
L70300 76290
L70440 76290
L70500 76260
L70530 76240
L70550 76180
L70550 76120
L70530 76070
L70500 76040
L70440 76010
L70330 75980
L70270 75950
L70250 75930
L70220 75870
L70220 75810
L70250 75760
L70270 75730
L70330 75700
L70470 75700
L70550 75730
" />
<path d="M70810 76290
L70810 75900
" />
<path d="M70810 75700
L70780 75730
L70810 75760
L70840 75730
L70810 75700
L70810 75760
" />
<path d="M71030 75900
L71340 75900
L71030 76290
L71340 76290
" />
<path d="M71790 76260
L71730 76290
L71620 76290
L71570 76260
L71540 76210
L71540 75980
L71570 75930
L71620 75900
L71730 75900
L71790 75930
L71820 75980
L71820 76040
L71540 76100
" />
<path d="M72070 76240
L72100 76260
L72070 76290
L72040 76260
L72070 76240
L72070 76290
" />
<path d="M72070 75930
L72100 75950
L72070 75980
L72040 75950
L72070 75930
L72070 75980
" />
<path d="M72770 76120
L73060 76120
" />
<path d="M72720 76290
L72910 75700
L73110 76290
" />
<path d="M73560 75900
L73560 76290
" />
<path d="M73420 75670
L73280 76100
L73650 76100
" />
</g>
<g style="fill:#840000; fill-opacity:0.0; 
stroke:#840000; stroke-width:100; stroke-opacity:1; 
stroke-linecap:round; stroke-linejoin:round;">
</g>
<g style="fill:#840000; fill-opacity:0.0; 
stroke:#840000; stroke-width:60; stroke-opacity:1; 
stroke-linecap:round; stroke-linejoin:round;">
<text x="103540" y="77420"
textLength="4470" font-size="780" lengthAdjust="spacingAndGlyphs"
text-anchor="start" opacity="0">Id: 25/29</text>
<path d="M103710 77390
L103710 76800
" />
<path d="M104240 77390
L104240 76800
" />
<path d="M104240 77360
L104180 77390
L104070 77390
L104010 77360
L103990 77340
L103960 77280
L103960 77110
L103990 77050
L104010 77030
L104070 77000
L104180 77000
L104240 77030
" />
<path d="M104520 77340
L104550 77360
L104520 77390
L104490 77360
L104520 77340
L104520 77390
" />
<path d="M104520 77030
L104550 77050
L104520 77080
L104490 77050
L104520 77030
L104520 77080
" />
<path d="M105220 76860
L105250 76830
L105310 76800
L105450 76800
L105500 76830
L105530 76860
L105560 76910
L105560 76970
L105530 77050
L105190 77390
L105560 77390
" />
<path d="M106090 76800
L105810 76800
L105780 77080
L105810 77050
L105870 77030
L106010 77030
L106070 77050
L106090 77080
L106120 77140
L106120 77280
L106090 77340
L106070 77360
L106010 77390
L105870 77390
L105810 77360
L105780 77340
" />
<path d="M106800 76770
L106290 77530
" />
<path d="M106960 76860
L106990 76830
L107050 76800
L107190 76800
L107250 76830
L107270 76860
L107300 76910
L107300 76970
L107270 77050
L106940 77390
L107300 77390
" />
<path d="M107580 77390
L107700 77390
L107750 77360
L107780 77340
L107840 77250
L107860 77140
L107860 76910
L107840 76860
L107810 76830
L107750 76800
L107640 76800
L107580 76830
L107550 76860
L107530 76910
L107530 77050
L107550 77110
L107580 77140
L107640 77170
L107750 77170
L107810 77140
L107840 77110
L107860 77050
" />
</g>
<g style="fill:#840000; fill-opacity:0.0; 
stroke:#840000; stroke-width:100; stroke-opacity:1; 
stroke-linecap:round; stroke-linejoin:round;">
</g>
<g style="fill:#840000; fill-opacity:0.0; 
stroke:#840000; stroke-width:60; stroke-opacity:1; 
stroke-linecap:round; stroke-linejoin:round;">
<path d="M69690 73820
L112210 73820
" />
</g>
<g style="fill:#840000; fill-opacity:0.0; 
stroke:#840000; stroke-width:100; stroke-opacity:1; 
stroke-linecap:round; stroke-linejoin:round;">
</g>
<g style="fill:#840000; fill-opacity:0.0; 
stroke:#840000; stroke-width:160; stroke-opacity:1; 
stroke-linecap:round; stroke-linejoin:round;">
<text x="70080" y="74920"
textLength="3710" font-size="1050" lengthAdjust="spacingAndGlyphs"
text-anchor="start" opacity="0">Title: </text>
<path d="M70360 74090
L70810 74090
" />
<path d="M70480 74880
L70580 74090
" />
<path d="M70970 74880
L71040 74360
" />
<path d="M71070 74090
L71030 74130
L71060 74170
L71110 74130
L71070 74090
L71060 74170
" />
<path d="M71300 74360
L71600 74360
" />
<path d="M71450 74090
L71360 74770
L71390 74840
L71460 74880
L71540 74880
" />
<path d="M71910 74880
L71840 74840
L71820 74770
L71900 74090
" />
<path d="M72520 74840
L72440 74880
L72290 74880
L72220 74840
L72190 74770
L72230 74470
L72280 74390
L72360 74360
L72510 74360
L72580 74390
L72610 74470
L72600 74540
L72210 74620
" />
<path d="M72900 74810
L72930 74840
L72890 74880
L72860 74840
L72900 74810
L72890 74880
" />
<path d="M72950 74390
L72990 74430
L72940 74470
L72910 74430
L72950 74390
L72940 74470
" />
</g>
<g style="fill:#840000; fill-opacity:0.0; 
stroke:#840000; stroke-width:100; stroke-opacity:1; 
stroke-linecap:round; stroke-linejoin:round;">
</g>
<g style="fill:#840000; fill-opacity:0.0; 
stroke:#840000; stroke-width:60; stroke-opacity:1; 
stroke-linecap:round; stroke-linejoin:round;">
<text x="70080" y="73400"
textLength="10350" font-size="780" lengthAdjust="spacingAndGlyphs"
text-anchor="start" opacity="0">File: ChannelNMOS.sch</text>
<path d="M70440 73060
L70250 73060
" />
<path d="M70250 73370
L70250 72780
L70530 72780
" />
<path d="M70750 73370
L70750 72980
" />
<path d="M70750 72780
L70720 72810
L70750 72840
L70780 72810
L70750 72780
L70750 72840
" />
<path d="M71120 73370
L71060 73340
L71030 73290
L71030 72780
" />
<path d="M71570 73340
L71510 73370
L71400 73370
L71340 73340
L71310 73290
L71310 73060
L71340 73010
L71400 72980
L71510 72980
L71570 73010
L71590 73060
L71590 73120
L71310 73180
" />
<path d="M71850 73320
L71880 73340
L71850 73370
L71820 73340
L71850 73320
L71850 73370
" />
<path d="M71850 73010
L71880 73030
L71850 73060
L71820 73030
L71850 73010
L71850 73060
" />
<path d="M72910 73320
L72890 73340
L72800 73370
L72750 73370
L72660 73340
L72610 73290
L72580 73230
L72550 73120
L72550 73030
L72580 72920
L72610 72870
L72660 72810
L72750 72780
L72800 72780
L72890 72810
L72910 72840
" />
<path d="M73170 73370
L73170 72780
" />
<path d="M73420 73370
L73420 73060
L73390 73010
L73340 72980
L73250 72980
L73200 73010
L73170 73030
" />
<path d="M73950 73370
L73950 73060
L73930 73010
L73870 72980
L73760 72980
L73700 73010
" />
<path d="M73950 73340
L73900 73370
L73760 73370
L73700 73340
L73670 73290
L73670 73230
L73700 73180
L73760 73150
L73900 73150
L73950 73120
" />
<path d="M74240 72980
L74240 73370
" />
<path d="M74240 73030
L74260 73010
L74320 72980
L74400 72980
L74460 73010
L74490 73060
L74490 73370
" />
<path d="M74770 72980
L74770 73370
" />
<path d="M74770 73030
L74800 73010
L74850 72980
L74940 72980
L74990 73010
L75020 73060
L75020 73370
" />
<path d="M75530 73340
L75470 73370
L75360 73370
L75300 73340
L75270 73290
L75270 73060
L75300 73010
L75360 72980
L75470 72980
L75530 73010
L75560 73060
L75560 73120
L75270 73180
" />
<path d="M75890 73370
L75840 73340
L75810 73290
L75810 72780
" />
<path d="M76120 73370
L76120 72780
L76450 73370
L76450 72780
" />
<path d="M76740 73370
L76740 72780
L76930 73200
L77130 72780
L77130 73370
" />
<path d="M77520 72780
L77630 72780
L77690 72810
L77750 72870
L77780 72980
L77780 73180
L77750 73290
L77690 73340
L77630 73370
L77520 73370
L77470 73340
L77410 73290
L77380 73180
L77380 72980
L77410 72870
L77470 72810
L77520 72780
" />
<path d="M78000 73340
L78080 73370
L78220 73370
L78280 73340
L78310 73320
L78340 73260
L78340 73200
L78310 73150
L78280 73120
L78220 73090
L78110 73060
L78060 73030
L78030 73010
L78000 72950
L78000 72890
L78030 72840
L78060 72810
L78110 72780
L78250 72780
L78340 72810
" />
<path d="M78590 73320
L78620 73340
L78590 73370
L78560 73340
L78590 73320
L78590 73370
" />
<path d="M78840 73340
L78900 73370
L79010 73370
L79070 73340
L79100 73290
L79100 73260
L79070 73200
L79010 73180
L78930 73180
L78870 73150
L78840 73090
L78840 73060
L78870 73010
L78930 72980
L79010 72980
L79070 73010
" />
<path d="M79600 73340
L79550 73370
L79430 73370
L79380 73340
L79350 73320
L79320 73260
L79320 73090
L79350 73030
L79380 73010
L79430 72980
L79550 72980
L79600 73010
" />
<path d="M79850 73370
L79850 72780
" />
<path d="M80110 73370
L80110 73060
L80080 73010
L80020 72980
L79940 72980
L79880 73010
L79850 73030
" />
</g>
<g style="fill:#840000; fill-opacity:0.0; 
stroke:#840000; stroke-width:100; stroke-opacity:1; 
stroke-linecap:round; stroke-linejoin:round;">
</g>
<g style="fill:#840000; fill-opacity:0.0; 
stroke:#840000; stroke-width:60; stroke-opacity:1; 
stroke-linecap:round; stroke-linejoin:round;">
<path d="M69690 71460
L112210 71460
" />
</g>
<g style="fill:#840000; fill-opacity:0.0; 
stroke:#840000; stroke-width:100; stroke-opacity:1; 
stroke-linecap:round; stroke-linejoin:round;">
</g>
<g style="fill:#840000; fill-opacity:0.0; 
stroke:#840000; stroke-width:60; stroke-opacity:1; 
stroke-linecap:round; stroke-linejoin:round;">
<text x="70080" y="72340"
textLength="11050" font-size="780" lengthAdjust="spacingAndGlyphs"
text-anchor="start" opacity="0">Sheet: /ChannelNMOS7/</text>
<path d="M70220 72280
L70300 72310
L70440 72310
L70500 72280
L70530 72260
L70550 72200
L70550 72140
L70530 72090
L70500 72060
L70440 72030
L70330 72000
L70270 71970
L70250 71950
L70220 71890
L70220 71830
L70250 71780
L70270 71750
L70330 71720
L70470 71720
L70550 71750
" />
<path d="M70810 72310
L70810 71720
" />
<path d="M71060 72310
L71060 72000
L71030 71950
L70980 71920
L70890 71920
L70840 71950
L70810 71970
" />
<path d="M71570 72280
L71510 72310
L71400 72310
L71340 72280
L71310 72230
L71310 72000
L71340 71950
L71400 71920
L71510 71920
L71570 71950
L71590 72000
L71590 72060
L71310 72120
" />
<path d="M72070 72280
L72020 72310
L71900 72310
L71850 72280
L71820 72230
L71820 72000
L71850 71950
L71900 71920
L72020 71920
L72070 71950
L72100 72000
L72100 72060
L71820 72120
" />
<path d="M72270 71920
L72490 71920
" />
<path d="M72350 71720
L72350 72230
L72380 72280
L72440 72310
L72490 72310
" />
<path d="M72690 72260
L72720 72280
L72690 72310
L72660 72280
L72690 72260
L72690 72310
" />
<path d="M72690 71950
L72720 71970
L72690 72000
L72660 71970
L72690 71950
L72690 72000
" />
<path d="M73840 71690
L73340 72450
" />
<path d="M74380 72260
L74350 72280
L74260 72310
L74210 72310
L74120 72280
L74070 72230
L74040 72170
L74010 72060
L74010 71970
L74040 71860
L74070 71810
L74120 71750
L74210 71720
L74260 71720
L74350 71750
L74380 71780
" />
<path d="M74630 72310
L74630 71720
" />
<path d="M74880 72310
L74880 72000
L74850 71950
L74800 71920
L74710 71920
L74660 71950
L74630 71970
" />
<path d="M75420 72310
L75420 72000
L75390 71950
L75330 71920
L75220 71920
L75160 71950
" />
<path d="M75420 72280
L75360 72310
L75220 72310
L75160 72280
L75130 72230
L75130 72170
L75160 72120
L75220 72090
L75360 72090
L75420 72060
" />
<path d="M75700 71920
L75700 72310
" />
<path d="M75700 71970
L75720 71950
L75780 71920
L75860 71920
L75920 71950
L75950 72000
L75950 72310
" />
<path d="M76230 71920
L76230 72310
" />
<path d="M76230 71970
L76260 71950
L76310 71920
L76400 71920
L76450 71950
L76480 72000
L76480 72310
" />
<path d="M76990 72280
L76930 72310
L76820 72310
L76760 72280
L76740 72230
L76740 72000
L76760 71950
L76820 71920
L76930 71920
L76990 71950
L77020 72000
L77020 72060
L76740 72120
" />
<path d="M77350 72310
L77300 72280
L77270 72230
L77270 71720
" />
<path d="M77580 72310
L77580 71720
L77920 72310
L77920 71720
" />
<path d="M78200 72310
L78200 71720
L78390 72140
L78590 71720
L78590 72310
" />
<path d="M78980 71720
L79100 71720
L79150 71750
L79210 71810
L79240 71920
L79240 72120
L79210 72230
L79150 72280
L79100 72310
L78980 72310
L78930 72280
L78870 72230
L78840 72120
L78840 71920
L78870 71810
L78930 71750
L78980 71720
" />
<path d="M79460 72280
L79550 72310
L79690 72310
L79740 72280
L79770 72260
L79800 72200
L79800 72140
L79770 72090
L79740 72060
L79690 72030
L79570 72000
L79520 71970
L79490 71950
L79460 71890
L79460 71830
L79490 71780
L79520 71750
L79570 71720
L79710 71720
L79800 71750
" />
<path d="M79990 71720
L80390 71720
L80140 72310
" />
<path d="M81030 71690
L80530 72450
" />
</g>
<g style="fill:#840000; fill-opacity:0.0; 
stroke:#840000; stroke-width:100; stroke-opacity:1; 
stroke-linecap:round; stroke-linejoin:round;">
</g>
<g style="fill:#840000; fill-opacity:0.0; 
stroke:#840000; stroke-width:60; stroke-opacity:1; 
stroke-linecap:round; stroke-linejoin:round;">
<path d="M77560 75400
L77560 76580
" />
</g>
<g style="fill:#840000; fill-opacity:0.0; 
stroke:#840000; stroke-width:100; stroke-opacity:1; 
stroke-linecap:round; stroke-linejoin:round;">
</g>
<g style="fill:#840000; fill-opacity:0.0; 
stroke:#840000; stroke-width:60; stroke-opacity:1; 
stroke-linecap:round; stroke-linejoin:round;">
<path d="M102760 75400
L102760 77960
" />
</g>
<g style="fill:#840000; fill-opacity:0.0; 
stroke:#840000; stroke-width:0; stroke-opacity:1; 
stroke-linecap:round; stroke-linejoin:round;">
<g >
</g>
<g style="fill:#840000; fill-opacity:0.0; 
stroke:#840000; stroke-width:60; stroke-opacity:1; 
stroke-linecap:round; stroke-linejoin:round;">
<path style="fill:#840000; fill-opacity:0.0; 
stroke:#840000; stroke-width:60; stroke-opacity:1; 
stroke-linecap:round; stroke-linejoin:round;fill:none"
d="M 66000,58250
66000,58750
65500,58750
66000,59250
66500,58750
66000,58750
" /> 
</g>
<g style="fill:#008484; fill-opacity:0.0; 
stroke:#008484; stroke-width:60; stroke-opacity:1; 
stroke-linecap:round; stroke-linejoin:round;">
<text x="65950" y="60230"
textLength="2060" font-size="660" lengthAdjust="spacingAndGlyphs"
text-anchor="middle" opacity="0">GNDS</text>
<path d="M65330 59730
L65280 59700
L65210 59700
L65140 59730
L65090 59770
L65060 59820
L65040 59920
L65040 59990
L65060 60080
L65090 60130
L65140 60180
L65210 60200
L65250 60200
L65330 60180
L65350 60150
L65350 59990
L65250 59990
" />
<path d="M65560 60200
L65560 59700
L65850 60200
L65850 59700
" />
<path d="M66090 60200
L66090 59700
L66210 59700
L66280 59730
L66330 59770
L66350 59820
L66370 59920
L66370 59990
L66350 60080
L66330 60130
L66280 60180
L66210 60200
L66090 60200
" />
<path d="M66560 60180
L66640 60200
L66750 60200
L66800 60180
L66830 60150
L66850 60110
L66850 60060
L66830 60010
L66800 59990
L66750 59960
L66660 59940
L66610 59920
L66590 59890
L66560 59840
L66560 59800
L66590 59750
L66610 59730
L66660 59700
L66780 59700
L66850 59730
" />
</g>
</g>
<g style="fill:#008484; fill-opacity:0.0; 
stroke:#008484; stroke-width:0; stroke-opacity:1; 
stroke-linecap:round; stroke-linejoin:round;">
<g >
</g>
<g style="fill:#840000; fill-opacity:0.0; 
stroke:#840000; stroke-width:0; stroke-opacity:1; 
stroke-linecap:round; stroke-linejoin:round;">
</g>
<g style="fill:#840000; fill-opacity:0.0; 
stroke:#840000; stroke-width:100; stroke-opacity:1; 
stroke-linecap:round; stroke-linejoin:round;">
<circle cx="65500" cy="48750" r="1110" /> 
</g>
<g style="fill:#840000; fill-opacity:0.0; 
stroke:#840000; stroke-width:60; stroke-opacity:1; 
stroke-linecap:round; stroke-linejoin:round;">
<path style="fill:#840000; fill-opacity:0.0; 
stroke:#840000; stroke-width:60; stroke-opacity:1; 
stroke-linecap:round; stroke-linejoin:round;fill:none"
d="M 65250,48500
66000,47750
" /> 
<path style="fill:#840000; fill-opacity:0.0; 
stroke:#840000; stroke-width:60; stroke-opacity:1; 
stroke-linecap:round; stroke-linejoin:round;fill:none"
d="M 65250,49000
66000,49750
66000,49750
" /> 
</g>
<g style="fill:#840000; fill-opacity:0.0; 
stroke:#840000; stroke-width:200; stroke-opacity:1; 
stroke-linecap:round; stroke-linejoin:round;">
<path style="fill:#840000; fill-opacity:0.0; 
stroke:#840000; stroke-width:200; stroke-opacity:1; 
stroke-linecap:round; stroke-linejoin:round;fill:none"
d="M 65250,48000
65250,49500
65250,49500
" /> 
</g>
<g style="fill:#840000; fill-opacity:1.0; 
stroke:#840000; stroke-width:60; stroke-opacity:1; 
stroke-linecap:round; stroke-linejoin:round;">
<path style="fill:#840000; fill-opacity:1.0; 
stroke:#840000; stroke-width:60; stroke-opacity:1; 
stroke-linecap:round; stroke-linejoin:round;fill-rule:evenodd;"
d="M 65500,49450
65700,49250
65900,49650
65500,49450
Z" /> 
</g>
<g style="fill:#840000; fill-opacity:0.0; 
stroke:#840000; stroke-width:60; stroke-opacity:1; 
stroke-linecap:round; stroke-linejoin:round;">
<path d="M65250 48750
L63000 48750
" />
<text x="64120" y="49350"
textLength="540" font-size="660" lengthAdjust="spacingAndGlyphs"
text-anchor="middle" opacity="0">1</text>
<path d="M64260 49320
L63970 49320
" />
<path d="M64120 49320
L64120 48820
L64070 48890
L64020 48940
L63970 48960
" />
<path d="M66000 49750
L66000 50750
" />
<g transform="rotate(-90 66100 50250)">
<text x="66100" y="50750"
textLength="540" font-size="660" lengthAdjust="spacingAndGlyphs"
text-anchor="middle" opacity="0">2</text>
</g>
<path d="M66120 50390
L66100 50360
L66070 50320
L66070 50200
L66100 50150
L66120 50130
L66170 50100
L66210 50100
L66290 50130
L66570 50410
L66570 50100
" />
<path d="M66000 47750
L66000 46750
" />
<g transform="rotate(-90 66100 47250)">
<text x="66100" y="47750"
textLength="540" font-size="660" lengthAdjust="spacingAndGlyphs"
text-anchor="middle" opacity="0">3</text>
</g>
<path d="M66070 47410
L66070 47100
L66260 47270
L66260 47200
L66290 47150
L66310 47130
L66360 47100
L66480 47100
L66520 47130
L66550 47150
L66570 47200
L66570 47340
L66550 47390
L66520 47410
" />
</g>
<g style="fill:#008484; fill-opacity:0.0; 
stroke:#008484; stroke-width:60; stroke-opacity:1; 
stroke-linecap:round; stroke-linejoin:round;">
<text x="68370" y="48560"
textLength="2920" font-size="660" lengthAdjust="spacingAndGlyphs"
text-anchor="middle" opacity="0">QLOAD7</text>
<path d="M67390 48580
L67340 48560
L67290 48510
L67220 48440
L67170 48410
L67130 48410
" />
<path d="M67150 48530
L67100 48510
L67060 48460
L67030 48360
L67030 48200
L67060 48100
L67100 48060
L67150 48030
L67250 48030
L67290 48060
L67340 48100
L67370 48200
L67370 48360
L67340 48460
L67290 48510
L67250 48530
L67150 48530
" />
<path d="M67820 48530
L67580 48530
L67580 48030
" />
<path d="M68080 48030
L68170 48030
L68220 48060
L68270 48100
L68290 48200
L68290 48360
L68270 48460
L68220 48510
L68170 48530
L68080 48530
L68030 48510
L67980 48460
L67960 48360
L67960 48200
L67980 48100
L68030 48060
L68080 48030
" />
<path d="M68480 48390
L68720 48390
" />
<path d="M68440 48530
L68600 48030
L68770 48530
" />
<path d="M68940 48530
L68940 48030
L69060 48030
L69130 48060
L69170 48100
L69200 48150
L69220 48250
L69220 48320
L69200 48410
L69170 48460
L69130 48510
L69060 48530
L68940 48530
" />
<path d="M69390 48030
L69720 48030
L69510 48530
" />
<text x="68900" y="49470"
textLength="3990" font-size="660" lengthAdjust="spacingAndGlyphs"
text-anchor="middle" opacity="0">MMBT3904</text>
<path d="M67050 49440
L67050 48940
L67220 49300
L67380 48940
L67380 49440
" />
<path d="M67620 49440
L67620 48940
L67790 49300
L67950 48940
L67950 49440
" />
<path d="M68360 49180
L68430 49200
L68450 49230
L68480 49270
L68480 49350
L68450 49390
L68430 49420
L68380 49440
L68190 49440
L68190 48940
L68360 48940
L68410 48970
L68430 48990
L68450 49040
L68450 49080
L68430 49130
L68410 49160
L68360 49180
L68190 49180
" />
<path d="M68620 48940
L68910 48940
" />
<path d="M68760 49440
L68760 48940
" />
<path d="M69030 48940
L69340 48940
L69170 49130
L69240 49130
L69290 49160
L69310 49180
L69340 49230
L69340 49350
L69310 49390
L69290 49420
L69240 49440
L69100 49440
L69050 49420
L69030 49390
" />
<path d="M69570 49440
L69670 49440
L69720 49420
L69740 49390
L69790 49320
L69810 49230
L69810 49040
L69790 48990
L69760 48970
L69720 48940
L69620 48940
L69570 48970
L69550 48990
L69530 49040
L69530 49160
L69550 49200
L69570 49230
L69620 49250
L69720 49250
L69760 49230
L69790 49200
L69810 49160
" />
<path d="M70120 48940
L70170 48940
L70220 48970
L70240 48990
L70260 49040
L70290 49130
L70290 49250
L70260 49350
L70240 49390
L70220 49420
L70170 49440
L70120 49440
L70070 49420
L70050 49390
L70030 49350
L70000 49250
L70000 49130
L70030 49040
L70050 48990
L70070 48970
L70120 48940
" />
<path d="M70720 49110
L70720 49440
" />
<path d="M70600 48920
L70480 49270
L70790 49270
" />
</g>
</g>
<g style="fill:#008484; fill-opacity:0.0; 
stroke:#008484; stroke-width:0; stroke-opacity:1; 
stroke-linecap:round; stroke-linejoin:round;">
<g >
</g>
<g style="fill:#840000; fill-opacity:0.0; 
stroke:#840000; stroke-width:0; stroke-opacity:1; 
stroke-linecap:round; stroke-linejoin:round;">
</g>
<g style="fill:#840000; fill-opacity:0.0; 
stroke:#840000; stroke-width:100; stroke-opacity:1; 
stroke-linecap:round; stroke-linejoin:round;">
<rect x="65600" y="38750" width="800" height="2000" rx="0" />
</g>
<g style="fill:#840000; fill-opacity:0.0; 
stroke:#840000; stroke-width:60; stroke-opacity:1; 
stroke-linecap:round; stroke-linejoin:round;">
<path d="M66000 38750
L66000 38250
" />
<g transform="rotate(-90 65900 38500)">
<text x="65900" y="38500"
textLength="540" font-size="660" lengthAdjust="spacingAndGlyphs"
text-anchor="middle" opacity="0">1</text>
</g>
<path d="M65870 38350
L65870 38640
" />
<path d="M65870 38500
L65370 38500
L65440 38540
L65490 38590
L65510 38640
" />
<path d="M66000 40750
L66000 41250
" />
<g transform="rotate(-90 65900 41000)">
<text x="65900" y="41000"
textLength="540" font-size="660" lengthAdjust="spacingAndGlyphs"
text-anchor="middle" opacity="0">8</text>
</g>
<path d="M65590 41040
L65560 41090
L65540 41110
L65490 41140
L65470 41140
L65420 41110
L65400 41090
L65370 41040
L65370 40950
L65400 40900
L65420 40880
L65470 40850
L65490 40850
L65540 40880
L65560 40900
L65590 40950
L65590 41040
L65610 41090
L65630 41110
L65680 41140
L65780 41140
L65820 41110
L65850 41090
L65870 41040
L65870 40950
L65850 40900
L65820 40880
L65780 40850
L65680 40850
L65630 40880
L65610 40900
L65590 40950
" />
</g>
<g style="fill:#008484; fill-opacity:0.0; 
stroke:#008484; stroke-width:60; stroke-opacity:1; 
stroke-linecap:round; stroke-linejoin:round;">
<text x="67860" y="39560"
textLength="1960" font-size="660" lengthAdjust="spacingAndGlyphs"
text-anchor="middle" opacity="0">U14A</text>
<path d="M67020 39030
L67020 39440
L67050 39480
L67070 39510
L67120 39530
L67210 39530
L67260 39510
L67280 39480
L67310 39440
L67310 39030
" />
<path d="M67810 39530
L67520 39530
" />
<path d="M67660 39530
L67660 39030
L67620 39100
L67570 39150
L67520 39170
" />
<path d="M68240 39200
L68240 39530
" />
<path d="M68120 39010
L68000 39360
L68310 39360
" />
<path d="M68470 39390
L68710 39390
" />
<path d="M68430 39530
L68590 39030
L68760 39530
" />
<text x="68920" y="40470"
textLength="4080" font-size="660" lengthAdjust="spacingAndGlyphs"
text-anchor="middle" opacity="0">RAx4_4 1K</text>
<path d="M67310 40440
L67140 40200
" />
<path d="M67020 40440
L67020 39940
L67210 39940
L67260 39970
L67280 39990
L67310 40040
L67310 40110
L67280 40160
L67260 40180
L67210 40200
L67020 40200
" />
<path d="M67500 40300
L67740 40300
" />
<path d="M67450 40440
L67620 39940
L67780 40440
" />
<path d="M67900 40440
L68170 40110
" />
<path d="M67900 40110
L68170 40440
" />
<path d="M68570 40110
L68570 40440
" />
<path d="M68450 39920
L68330 40270
L68640 40270
" />
<path d="M68710 40490
L69090 40490
" />
<path d="M69430 40110
L69430 40440
" />
<path d="M69310 39920
L69190 40270
L69500 40270
" />
<path d="M70330 40440
L70050 40440
" />
<path d="M70190 40440
L70190 39940
L70140 40010
L70090 40060
L70050 40080
" />
<path d="M70550 40440
L70550 39940
" />
<path d="M70830 40440
L70620 40160
" />
<path d="M70830 39940
L70550 40230
" />
</g>
</g>
<g style="fill:#008484; fill-opacity:0.0; 
stroke:#008484; stroke-width:0; stroke-opacity:1; 
stroke-linecap:round; stroke-linejoin:round;">
<g >
</g>
<g style="fill:#840000; fill-opacity:0.0; 
stroke:#840000; stroke-width:0; stroke-opacity:1; 
stroke-linecap:round; stroke-linejoin:round;">
</g>
<g style="fill:#840000; fill-opacity:0.0; 
stroke:#840000; stroke-width:60; stroke-opacity:1; 
stroke-linecap:round; stroke-linejoin:round;">
<path style="fill:#840000; fill-opacity:0.0; 
stroke:#840000; stroke-width:60; stroke-opacity:1; 
stroke-linecap:round; stroke-linejoin:round;fill:none"
d="M 65700,35500
66000,35000
" /> 
<path style="fill:#840000; fill-opacity:0.0; 
stroke:#840000; stroke-width:60; stroke-opacity:1; 
stroke-linecap:round; stroke-linejoin:round;fill:none"
d="M 66000,36000
66000,35000
" /> 
<path style="fill:#840000; fill-opacity:0.0; 
stroke:#840000; stroke-width:60; stroke-opacity:1; 
stroke-linecap:round; stroke-linejoin:round;fill:none"
d="M 66000,35000
66300,35500
" /> 
</g>
<g style="fill:#008484; fill-opacity:0.0; 
stroke:#008484; stroke-width:60; stroke-opacity:1; 
stroke-linecap:round; stroke-linejoin:round;">
<text x="66150" y="34540"
textLength="1580" font-size="660" lengthAdjust="spacingAndGlyphs"
text-anchor="middle" opacity="0">+5V</text>
<path d="M65500 34320
L65880 34320
" />
<path d="M65690 34510
L65690 34130
" />
<path d="M66360 34010
L66120 34010
L66100 34250
L66120 34230
L66170 34200
L66290 34200
L66340 34230
L66360 34250
L66380 34300
L66380 34420
L66360 34460
L66340 34490
L66290 34510
L66170 34510
L66120 34490
L66100 34460
" />
<path d="M66530 34010
L66690 34510
L66860 34010
" />
</g>
</g>
<g style="fill:#008484; fill-opacity:0.0; 
stroke:#008484; stroke-width:60; stroke-opacity:1; 
stroke-linecap:round; stroke-linejoin:round;">
</g>
<g style="fill:#008400; fill-opacity:0.0; 
stroke:#008400; stroke-width:60; stroke-opacity:1; 
stroke-linecap:round; stroke-linejoin:round;">
<path d="M66000 41250
L66000 42500
" />
<path d="M34250 48750
L63000 48750
" />
<path d="M66000 42500
L80000 42500
" />
<path d="M66000 38250
L66000 36000
" />
<path d="M66000 46750
L66000 42500
" />
<path d="M33500 30500
L79250 30500
" />
<path d="M66000 50750
L66000 58250
" />
</g>
<g style="fill:#848400; fill-opacity:0.0; 
stroke:#848400; stroke-width:60; stroke-opacity:1; 
stroke-linecap:round; stroke-linejoin:round;">
<text x="80600" y="42750"
textLength="4770" font-size="660" lengthAdjust="spacingAndGlyphs"
text-anchor="start" opacity="0">CH_CATHODE</text>
<path d="M81030 42670
L81010 42700
L80930 42720
L80890 42720
L80820 42700
L80770 42650
L80740 42600
L80720 42510
L80720 42440
L80740 42340
L80770 42290
L80820 42250
L80890 42220
L80930 42220
L81010 42250
L81030 42270
" />
<path d="M81240 42720
L81240 42220
" />
<path d="M81240 42460
L81530 42460
" />
<path d="M81530 42720
L81530 42220
" />
<path d="M81650 42770
L82030 42770
" />
<path d="M82430 42670
L82410 42700
L82340 42720
L82290 42720
L82220 42700
L82170 42650
L82150 42600
L82130 42510
L82130 42440
L82150 42340
L82170 42290
L82220 42250
L82290 42220
L82340 42220
L82410 42250
L82430 42270
" />
<path d="M82630 42580
L82860 42580
" />
<path d="M82580 42720
L82740 42220
L82910 42720
" />
<path d="M83010 42220
L83290 42220
" />
<path d="M83150 42720
L83150 42220
" />
<path d="M83460 42720
L83460 42220
" />
<path d="M83460 42460
L83740 42460
" />
<path d="M83740 42720
L83740 42220
" />
<path d="M84080 42220
L84170 42220
L84220 42250
L84270 42290
L84290 42390
L84290 42550
L84270 42650
L84220 42700
L84170 42720
L84080 42720
L84030 42700
L83980 42650
L83960 42550
L83960 42390
L83980 42290
L84030 42250
L84080 42220
" />
<path d="M84510 42720
L84510 42220
L84630 42220
L84700 42250
L84740 42290
L84770 42340
L84790 42440
L84790 42510
L84770 42600
L84740 42650
L84700 42700
L84630 42720
L84510 42720
" />
<path d="M85010 42460
L85170 42460
" />
<path d="M85240 42720
L85010 42720
L85010 42220
L85240 42220
" />
</g>
<g style="fill:#848400; fill-opacity:0.0; 
stroke:#848400; stroke-width:100; stroke-opacity:1; 
stroke-linecap:round; stroke-linejoin:round;">
<path style="fill:#848400; fill-opacity:0.0; 
stroke:#848400; stroke-width:100; stroke-opacity:1; 
stroke-linecap:round; stroke-linejoin:round;fill:none"
d="M 80000,42500
80250,42750
80500,42750
80500,42250
80250,42250
Z" /> 
</g>
<g style="fill:#848400; fill-opacity:0.0; 
stroke:#848400; stroke-width:60; stroke-opacity:1; 
stroke-linecap:round; stroke-linejoin:round;">
<text x="79850" y="30750"
textLength="3890" font-size="660" lengthAdjust="spacingAndGlyphs"
text-anchor="start" opacity="0">CH_ANODE</text>
<path d="M80280 30670
L80260 30700
L80180 30720
L80140 30720
L80070 30700
L80020 30650
L79990 30600
L79970 30510
L79970 30440
L79990 30340
L80020 30290
L80070 30250
L80140 30220
L80180 30220
L80260 30250
L80280 30270
" />
<path d="M80490 30720
L80490 30220
" />
<path d="M80490 30460
L80780 30460
" />
<path d="M80780 30720
L80780 30220
" />
<path d="M80900 30770
L81280 30770
" />
<path d="M81380 30580
L81610 30580
" />
<path d="M81330 30720
L81490 30220
L81660 30720
" />
<path d="M81830 30720
L81830 30220
L82110 30720
L82110 30220
" />
<path d="M82450 30220
L82540 30220
L82590 30250
L82640 30290
L82660 30390
L82660 30550
L82640 30650
L82590 30700
L82540 30720
L82450 30720
L82400 30700
L82350 30650
L82330 30550
L82330 30390
L82350 30290
L82400 30250
L82450 30220
" />
<path d="M82880 30720
L82880 30220
L82990 30220
L83070 30250
L83110 30290
L83140 30340
L83160 30440
L83160 30510
L83140 30600
L83110 30650
L83070 30700
L82990 30720
L82880 30720
" />
<path d="M83380 30460
L83540 30460
" />
<path d="M83610 30720
L83380 30720
L83380 30220
L83610 30220
" />
</g>
<g style="fill:#848400; fill-opacity:0.0; 
stroke:#848400; stroke-width:100; stroke-opacity:1; 
stroke-linecap:round; stroke-linejoin:round;">
<path style="fill:#848400; fill-opacity:0.0; 
stroke:#848400; stroke-width:100; stroke-opacity:1; 
stroke-linecap:round; stroke-linejoin:round;fill:none"
d="M 79250,30500
79500,30750
79750,30750
79750,30250
79500,30250
Z" /> 
</g>
<g style="fill:#848400; fill-opacity:0.0; 
stroke:#848400; stroke-width:60; stroke-opacity:1; 
stroke-linecap:round; stroke-linejoin:round;">
<text x="33650" y="49000"
textLength="3230" font-size="660" lengthAdjust="spacingAndGlyphs"
text-anchor="end" opacity="0">CH_GATE</text>
<path d="M30850 48920
L30830 48950
L30760 48970
L30710 48970
L30640 48950
L30590 48900
L30570 48850
L30540 48760
L30540 48690
L30570 48590
L30590 48540
L30640 48500
L30710 48470
L30760 48470
L30830 48500
L30850 48520
" />
<path d="M31070 48970
L31070 48470
" />
<path d="M31070 48710
L31350 48710
" />
<path d="M31350 48970
L31350 48470
" />
<path d="M31470 49020
L31850 49020
" />
<path d="M32230 48500
L32190 48470
L32120 48470
L32040 48500
L32000 48540
L31970 48590
L31950 48690
L31950 48760
L31970 48850
L32000 48900
L32040 48950
L32120 48970
L32160 48970
L32230 48950
L32260 48920
L32260 48760
L32160 48760
" />
<path d="M32450 48830
L32690 48830
" />
<path d="M32400 48970
L32570 48470
L32730 48970
" />
<path d="M32830 48470
L33120 48470
" />
<path d="M32970 48970
L32970 48470
" />
<path d="M33280 48710
L33450 48710
" />
<path d="M33520 48970
L33280 48970
L33280 48470
L33520 48470
" />
</g>
<g style="fill:#848400; fill-opacity:0.0; 
stroke:#848400; stroke-width:100; stroke-opacity:1; 
stroke-linecap:round; stroke-linejoin:round;">
<path style="fill:#848400; fill-opacity:0.0; 
stroke:#848400; stroke-width:100; stroke-opacity:1; 
stroke-linecap:round; stroke-linejoin:round;fill:none"
d="M 34250,48750
34000,48500
33750,48500
33750,49000
34000,49000
Z" /> 
</g>
<g style="fill:#848400; fill-opacity:0.0; 
stroke:#848400; stroke-width:60; stroke-opacity:1; 
stroke-linecap:round; stroke-linejoin:round;">
<text x="32900" y="30750"
textLength="3040" font-size="660" lengthAdjust="spacingAndGlyphs"
text-anchor="end" opacity="0">CH_PWR</text>
<path d="M30290 30670
L30270 30700
L30200 30720
L30150 30720
L30080 30700
L30030 30650
L30010 30600
L29980 30510
L29980 30440
L30010 30340
L30030 30290
L30080 30250
L30150 30220
L30200 30220
L30270 30250
L30290 30270
" />
<path d="M30510 30720
L30510 30220
" />
<path d="M30510 30460
L30790 30460
" />
<path d="M30790 30720
L30790 30220
" />
<path d="M30910 30770
L31290 30770
" />
<path d="M31410 30720
L31410 30220
L31600 30220
L31650 30250
L31670 30270
L31700 30320
L31700 30390
L31670 30440
L31650 30460
L31600 30480
L31410 30480
" />
<path d="M31870 30220
L31980 30720
L32080 30360
L32170 30720
L32290 30220
" />
<path d="M32770 30720
L32600 30480
" />
<path d="M32480 30720
L32480 30220
L32670 30220
L32720 30250
L32750 30270
L32770 30320
L32770 30390
L32750 30440
L32720 30460
L32670 30480
L32480 30480
" />
</g>
<g style="fill:#848400; fill-opacity:0.0; 
stroke:#848400; stroke-width:100; stroke-opacity:1; 
stroke-linecap:round; stroke-linejoin:round;">
<path style="fill:#848400; fill-opacity:0.0; 
stroke:#848400; stroke-width:100; stroke-opacity:1; 
stroke-linecap:round; stroke-linejoin:round;fill:none"
d="M 33500,30500
33250,30250
33000,30250
33000,30750
33250,30750
Z" /> 
</g>
<g style="fill:#848400; fill-opacity:0.0; 
stroke:#848400; stroke-width:60; stroke-opacity:1; 
stroke-linecap:round; stroke-linejoin:round;">
</g>
<g style="fill:#0000C2; fill-opacity:0.0; 
stroke:#0000C2; stroke-width:60; stroke-opacity:1; 
stroke-linecap:round; stroke-linejoin:round;">
<text x="30500" y="50150"
textLength="7700" font-size="660" lengthAdjust="spacingAndGlyphs"
text-anchor="start" opacity="0">LOGIC LEVEL SIGNAL</text>
<path d="M30880 50120
L30640 50120
L30640 49620
" />
<path d="M31140 49620
L31240 49620
L31290 49650
L31330 49690
L31360 49790
L31360 49950
L31330 50050
L31290 50100
L31240 50120
L31140 50120
L31100 50100
L31050 50050
L31030 49950
L31030 49790
L31050 49690
L31100 49650
L31140 49620
" />
<path d="M31830 49650
L31790 49620
L31720 49620
L31640 49650
L31600 49690
L31570 49740
L31550 49840
L31550 49910
L31570 50000
L31600 50050
L31640 50100
L31720 50120
L31760 50120
L31830 50100
L31860 50070
L31860 49910
L31760 49910
" />
<path d="M32070 50120
L32070 49620
" />
<path d="M32600 50070
L32570 50100
L32500 50120
L32450 50120
L32380 50100
L32330 50050
L32310 50000
L32290 49910
L32290 49840
L32310 49740
L32330 49690
L32380 49650
L32450 49620
L32500 49620
L32570 49650
L32600 49670
" />
<path d="M33430 50120
L33190 50120
L33190 49620
" />
<path d="M33600 49860
L33760 49860
" />
<path d="M33830 50120
L33600 50120
L33600 49620
L33830 49620
" />
<path d="M33980 49620
L34140 50120
L34310 49620
" />
<path d="M34480 49860
L34640 49860
" />
<path d="M34720 50120
L34480 50120
L34480 49620
L34720 49620
" />
<path d="M35170 50120
L34930 50120
L34930 49620
" />
<path d="M35690 50100
L35760 50120
L35880 50120
L35930 50100
L35950 50070
L35980 50030
L35980 49980
L35950 49930
L35930 49910
L35880 49880
L35790 49860
L35740 49840
L35720 49810
L35690 49760
L35690 49720
L35720 49670
L35740 49650
L35790 49620
L35910 49620
L35980 49650
" />
<path d="M36190 50120
L36190 49620
" />
<path d="M36690 49650
L36640 49620
L36570 49620
L36500 49650
L36450 49690
L36430 49740
L36410 49840
L36410 49910
L36430 50000
L36450 50050
L36500 50100
L36570 50120
L36620 50120
L36690 50100
L36720 50070
L36720 49910
L36620 49910
" />
<path d="M36930 50120
L36930 49620
L37220 50120
L37220 49620
" />
<path d="M37430 49980
L37670 49980
" />
<path d="M37380 50120
L37550 49620
L37720 50120
" />
<path d="M38120 50120
L37880 50120
L37880 49620
" />
<text x="73250" y="45090"
textLength="11680" font-size="660" lengthAdjust="spacingAndGlyphs"
text-anchor="start" opacity="0">Input signal at base will pull </text>
<path d="M73390 45060
L73390 44560
" />
<path d="M73630 44730
L73630 45060
" />
<path d="M73630 44780
L73660 44750
L73700 44730
L73780 44730
L73820 44750
L73850 44800
L73850 45060
" />
<path d="M74080 44730
L74080 45230
" />
<path d="M74080 44750
L74130 44730
L74230 44730
L74280 44750
L74300 44780
L74320 44820
L74320 44970
L74300 45010
L74280 45040
L74230 45060
L74130 45060
L74080 45040
" />
<path d="M74750 44730
L74750 45060
" />
<path d="M74540 44730
L74540 44990
L74560 45040
L74610 45060
L74680 45060
L74730 45040
L74750 45010
" />
<path d="M74920 44730
L75110 44730
" />
<path d="M74990 44560
L74990 44990
L75010 45040
L75060 45060
L75110 45060
" />
<path d="M75630 45040
L75680 45060
L75780 45060
L75820 45040
L75850 44990
L75850 44970
L75820 44920
L75780 44890
L75700 44890
L75660 44870
L75630 44820
L75630 44800
L75660 44750
L75700 44730
L75780 44730
L75820 44750
" />
<path d="M76060 45060
L76060 44730
" />
<path d="M76060 44560
L76040 44590
L76060 44610
L76080 44590
L76060 44560
L76060 44610
" />
<path d="M76510 44730
L76510 45130
L76490 45180
L76470 45200
L76420 45230
L76350 45230
L76300 45200
" />
<path d="M76510 45040
L76470 45060
L76370 45060
L76320 45040
L76300 45010
L76280 44970
L76280 44820
L76300 44780
L76320 44750
L76370 44730
L76470 44730
L76510 44750
" />
<path d="M76750 44730
L76750 45060
" />
<path d="M76750 44780
L76780 44750
L76820 44730
L76890 44730
L76940 44750
L76970 44800
L76970 45060
" />
<path d="M77420 45060
L77420 44800
L77390 44750
L77350 44730
L77250 44730
L77200 44750
" />
<path d="M77420 45040
L77370 45060
L77250 45060
L77200 45040
L77180 44990
L77180 44940
L77200 44890
L77250 44870
L77370 44870
L77420 44850
" />
<path d="M77730 45060
L77680 45040
L77660 44990
L77660 44560
" />
<path d="M78510 45060
L78510 44800
L78490 44750
L78440 44730
L78350 44730
L78300 44750
" />
<path d="M78510 45040
L78470 45060
L78350 45060
L78300 45040
L78280 44990
L78280 44940
L78300 44890
L78350 44870
L78470 44870
L78510 44850
" />
<path d="M78680 44730
L78870 44730
" />
<path d="M78750 44560
L78750 44990
L78780 45040
L78820 45060
L78870 45060
" />
<path d="M79420 45060
L79420 44560
" />
<path d="M79420 44750
L79470 44730
L79560 44730
L79610 44750
L79630 44780
L79660 44820
L79660 44970
L79630 45010
L79610 45040
L79560 45060
L79470 45060
L79420 45040
" />
<path d="M80080 45060
L80080 44800
L80060 44750
L80010 44730
L79920 44730
L79870 44750
" />
<path d="M80080 45040
L80040 45060
L79920 45060
L79870 45040
L79850 44990
L79850 44940
L79870 44890
L79920 44870
L80040 44870
L80080 44850
" />
<path d="M80300 45040
L80350 45060
L80440 45060
L80490 45040
L80510 44990
L80510 44970
L80490 44920
L80440 44890
L80370 44890
L80320 44870
L80300 44820
L80300 44800
L80320 44750
L80370 44730
L80440 44730
L80490 44750
" />
<path d="M80920 45040
L80870 45060
L80780 45060
L80730 45040
L80700 44990
L80700 44800
L80730 44750
L80780 44730
L80870 44730
L80920 44750
L80940 44800
L80940 44850
L80700 44890
" />
<path d="M81490 44730
L81580 45060
L81680 44820
L81780 45060
L81870 44730
" />
<path d="M82060 45060
L82060 44730
" />
<path d="M82060 44560
L82040 44590
L82060 44610
L82080 44590
L82060 44560
L82060 44610
" />
<path d="M82370 45060
L82320 45040
L82300 44990
L82300 44560
" />
<path d="M82630 45060
L82580 45040
L82560 44990
L82560 44560
" />
<path d="M83200 44730
L83200 45230
" />
<path d="M83200 44750
L83250 44730
L83350 44730
L83390 44750
L83420 44780
L83440 44820
L83440 44970
L83420 45010
L83390 45040
L83350 45060
L83250 45060
L83200 45040
" />
<path d="M83870 44730
L83870 45060
" />
<path d="M83660 44730
L83660 44990
L83680 45040
L83730 45060
L83800 45060
L83850 45040
L83870 45010
" />
<path d="M84180 45060
L84130 45040
L84110 44990
L84110 44560
" />
<path d="M84440 45060
L84390 45040
L84370 44990
L84370 44560
" />
<text x="73250" y="45900"
textLength="11110" font-size="660" lengthAdjust="spacingAndGlyphs"
text-anchor="start" opacity="0">CH_CATHODE down to ground</text>
<path d="M73680 45820
L73660 45850
L73580 45870
L73540 45870
L73470 45850
L73420 45800
L73390 45750
L73370 45660
L73370 45590
L73390 45490
L73420 45440
L73470 45400
L73540 45370
L73580 45370
L73660 45400
L73680 45420
" />
<path d="M73890 45870
L73890 45370
" />
<path d="M73890 45610
L74180 45610
" />
<path d="M74180 45870
L74180 45370
" />
<path d="M74300 45920
L74680 45920
" />
<path d="M75080 45820
L75060 45850
L74990 45870
L74940 45870
L74870 45850
L74820 45800
L74800 45750
L74780 45660
L74780 45590
L74800 45490
L74820 45440
L74870 45400
L74940 45370
L74990 45370
L75060 45400
L75080 45420
" />
<path d="M75280 45730
L75510 45730
" />
<path d="M75230 45870
L75390 45370
L75560 45870
" />
<path d="M75660 45370
L75940 45370
" />
<path d="M75800 45870
L75800 45370
" />
<path d="M76110 45870
L76110 45370
" />
<path d="M76110 45610
L76390 45610
" />
<path d="M76390 45870
L76390 45370
" />
<path d="M76730 45370
L76820 45370
L76870 45400
L76920 45440
L76940 45540
L76940 45700
L76920 45800
L76870 45850
L76820 45870
L76730 45870
L76680 45850
L76630 45800
L76610 45700
L76610 45540
L76630 45440
L76680 45400
L76730 45370
" />
<path d="M77160 45870
L77160 45370
L77280 45370
L77350 45400
L77390 45440
L77420 45490
L77440 45590
L77440 45660
L77420 45750
L77390 45800
L77350 45850
L77280 45870
L77160 45870
" />
<path d="M77660 45610
L77820 45610
" />
<path d="M77890 45870
L77660 45870
L77660 45370
L77890 45370
" />
<path d="M78700 45870
L78700 45370
" />
<path d="M78700 45850
L78660 45870
L78560 45870
L78510 45850
L78490 45820
L78470 45780
L78470 45630
L78490 45590
L78510 45560
L78560 45540
L78660 45540
L78700 45560
" />
<path d="M79010 45870
L78970 45850
L78940 45820
L78920 45780
L78920 45630
L78940 45590
L78970 45560
L79010 45540
L79080 45540
L79130 45560
L79160 45590
L79180 45630
L79180 45780
L79160 45820
L79130 45850
L79080 45870
L79010 45870
" />
<path d="M79350 45540
L79440 45870
L79540 45630
L79630 45870
L79730 45540
" />
<path d="M79920 45540
L79920 45870
" />
<path d="M79920 45590
L79940 45560
L79990 45540
L80060 45540
L80110 45560
L80130 45610
L80130 45870
" />
<path d="M80680 45540
L80870 45540
" />
<path d="M80750 45370
L80750 45800
L80780 45850
L80820 45870
L80870 45870
" />
<path d="M81110 45870
L81060 45850
L81040 45820
L81010 45780
L81010 45630
L81040 45590
L81060 45560
L81110 45540
L81180 45540
L81230 45560
L81250 45590
L81280 45630
L81280 45780
L81250 45820
L81230 45850
L81180 45870
L81110 45870
" />
<path d="M82080 45540
L82080 45940
L82060 45990
L82040 46010
L81990 46040
L81920 46040
L81870 46010
" />
<path d="M82080 45850
L82040 45870
L81940 45870
L81890 45850
L81870 45820
L81850 45780
L81850 45630
L81870 45590
L81890 45560
L81940 45540
L82040 45540
L82080 45560
" />
<path d="M82320 45870
L82320 45540
" />
<path d="M82320 45630
L82350 45590
L82370 45560
L82420 45540
L82470 45540
" />
<path d="M82700 45870
L82660 45850
L82630 45820
L82610 45780
L82610 45630
L82630 45590
L82660 45560
L82700 45540
L82780 45540
L82820 45560
L82850 45590
L82870 45630
L82870 45780
L82850 45820
L82820 45850
L82780 45870
L82700 45870
" />
<path d="M83300 45540
L83300 45870
" />
<path d="M83080 45540
L83080 45800
L83110 45850
L83160 45870
L83230 45870
L83280 45850
L83300 45820
" />
<path d="M83540 45540
L83540 45870
" />
<path d="M83540 45590
L83560 45560
L83610 45540
L83680 45540
L83730 45560
L83750 45610
L83750 45870
" />
<path d="M84200 45870
L84200 45370
" />
<path d="M84200 45850
L84160 45870
L84060 45870
L84010 45850
L83990 45820
L83970 45780
L83970 45630
L83990 45590
L84010 45560
L84060 45540
L84160 45540
L84200 45560
" />
</g>
<g style="fill:#0000C2; fill-opacity:0.0; 
stroke:#0000C2; stroke-width:0; stroke-opacity:1; 
stroke-linecap:round; stroke-linejoin:round;">
</g>
<g style="fill:#008400; fill-opacity:0.0; 
stroke:#008400; stroke-width:0; stroke-opacity:1; 
stroke-linecap:round; stroke-linejoin:round;">
</g>
<g style="fill:#008400; fill-opacity:1.0; 
stroke:#008400; stroke-width:100; stroke-opacity:1; 
stroke-linecap:round; stroke-linejoin:round;">
<circle cx="66000" cy="42500" r="200" /> 
</g> 
</svg>
