G04 #@! TF.GenerationSoftware,KiCad,Pcbnew,(5.1.5-0-10_14)*
G04 #@! TF.CreationDate,2020-03-02T11:23:44+00:00*
G04 #@! TF.ProjectId,MidiLedController,4d696469-4c65-4644-936f-6e74726f6c6c,C*
G04 #@! TF.SameCoordinates,Original*
G04 #@! TF.FileFunction,Soldermask,Bot*
G04 #@! TF.FilePolarity,Negative*
%FSLAX46Y46*%
G04 Gerber Fmt 4.6, Leading zero omitted, Abs format (unit mm)*
G04 Created by KiCad (PCBNEW (5.1.5-0-10_14)) date 2020-03-02 11:23:44*
%MOMM*%
%LPD*%
G04 APERTURE LIST*
%ADD10C,0.100000*%
G04 APERTURE END LIST*
D10*
G36*
X186138979Y-134003293D02*
G01*
X186272625Y-134043834D01*
X186395784Y-134109664D01*
X186503740Y-134198260D01*
X186592336Y-134306216D01*
X186658166Y-134429375D01*
X186698707Y-134563021D01*
X186713000Y-134708140D01*
X186713000Y-136371860D01*
X186698707Y-136516979D01*
X186658166Y-136650625D01*
X186592336Y-136773784D01*
X186503740Y-136881740D01*
X186395784Y-136970336D01*
X186272625Y-137036166D01*
X186138979Y-137076707D01*
X185993860Y-137091000D01*
X183830140Y-137091000D01*
X183685021Y-137076707D01*
X183551375Y-137036166D01*
X183428216Y-136970336D01*
X183320260Y-136881740D01*
X183231664Y-136773784D01*
X183165834Y-136650625D01*
X183125293Y-136516979D01*
X183111000Y-136371860D01*
X183111000Y-134708140D01*
X183125293Y-134563021D01*
X183165834Y-134429375D01*
X183231664Y-134306216D01*
X183320260Y-134198260D01*
X183428216Y-134109664D01*
X183551375Y-134043834D01*
X183685021Y-134003293D01*
X183830140Y-133989000D01*
X185993860Y-133989000D01*
X186138979Y-134003293D01*
G37*
G36*
X175597979Y-134003293D02*
G01*
X175731625Y-134043834D01*
X175854784Y-134109664D01*
X175962740Y-134198260D01*
X176051336Y-134306216D01*
X176117166Y-134429375D01*
X176157707Y-134563021D01*
X176172000Y-134708140D01*
X176172000Y-136371860D01*
X176157707Y-136516979D01*
X176117166Y-136650625D01*
X176051336Y-136773784D01*
X175962740Y-136881740D01*
X175854784Y-136970336D01*
X175731625Y-137036166D01*
X175597979Y-137076707D01*
X175452860Y-137091000D01*
X173289140Y-137091000D01*
X173144021Y-137076707D01*
X173010375Y-137036166D01*
X172887216Y-136970336D01*
X172779260Y-136881740D01*
X172690664Y-136773784D01*
X172624834Y-136650625D01*
X172584293Y-136516979D01*
X172570000Y-136371860D01*
X172570000Y-134708140D01*
X172584293Y-134563021D01*
X172624834Y-134429375D01*
X172690664Y-134306216D01*
X172779260Y-134198260D01*
X172887216Y-134109664D01*
X173010375Y-134043834D01*
X173144021Y-134003293D01*
X173289140Y-133989000D01*
X175452860Y-133989000D01*
X175597979Y-134003293D01*
G37*
G36*
X165056979Y-134003293D02*
G01*
X165190625Y-134043834D01*
X165313784Y-134109664D01*
X165421740Y-134198260D01*
X165510336Y-134306216D01*
X165576166Y-134429375D01*
X165616707Y-134563021D01*
X165631000Y-134708140D01*
X165631000Y-136371860D01*
X165616707Y-136516979D01*
X165576166Y-136650625D01*
X165510336Y-136773784D01*
X165421740Y-136881740D01*
X165313784Y-136970336D01*
X165190625Y-137036166D01*
X165056979Y-137076707D01*
X164911860Y-137091000D01*
X162748140Y-137091000D01*
X162603021Y-137076707D01*
X162469375Y-137036166D01*
X162346216Y-136970336D01*
X162238260Y-136881740D01*
X162149664Y-136773784D01*
X162083834Y-136650625D01*
X162043293Y-136516979D01*
X162029000Y-136371860D01*
X162029000Y-134708140D01*
X162043293Y-134563021D01*
X162083834Y-134429375D01*
X162149664Y-134306216D01*
X162238260Y-134198260D01*
X162346216Y-134109664D01*
X162469375Y-134043834D01*
X162603021Y-134003293D01*
X162748140Y-133989000D01*
X164911860Y-133989000D01*
X165056979Y-134003293D01*
G37*
G36*
X154515979Y-134003293D02*
G01*
X154649625Y-134043834D01*
X154772784Y-134109664D01*
X154880740Y-134198260D01*
X154969336Y-134306216D01*
X155035166Y-134429375D01*
X155075707Y-134563021D01*
X155090000Y-134708140D01*
X155090000Y-136371860D01*
X155075707Y-136516979D01*
X155035166Y-136650625D01*
X154969336Y-136773784D01*
X154880740Y-136881740D01*
X154772784Y-136970336D01*
X154649625Y-137036166D01*
X154515979Y-137076707D01*
X154370860Y-137091000D01*
X152207140Y-137091000D01*
X152062021Y-137076707D01*
X151928375Y-137036166D01*
X151805216Y-136970336D01*
X151697260Y-136881740D01*
X151608664Y-136773784D01*
X151542834Y-136650625D01*
X151502293Y-136516979D01*
X151488000Y-136371860D01*
X151488000Y-134708140D01*
X151502293Y-134563021D01*
X151542834Y-134429375D01*
X151608664Y-134306216D01*
X151697260Y-134198260D01*
X151805216Y-134109664D01*
X151928375Y-134043834D01*
X152062021Y-134003293D01*
X152207140Y-133989000D01*
X154370860Y-133989000D01*
X154515979Y-134003293D01*
G37*
G36*
X143974979Y-134003293D02*
G01*
X144108625Y-134043834D01*
X144231784Y-134109664D01*
X144339740Y-134198260D01*
X144428336Y-134306216D01*
X144494166Y-134429375D01*
X144534707Y-134563021D01*
X144549000Y-134708140D01*
X144549000Y-136371860D01*
X144534707Y-136516979D01*
X144494166Y-136650625D01*
X144428336Y-136773784D01*
X144339740Y-136881740D01*
X144231784Y-136970336D01*
X144108625Y-137036166D01*
X143974979Y-137076707D01*
X143829860Y-137091000D01*
X141666140Y-137091000D01*
X141521021Y-137076707D01*
X141387375Y-137036166D01*
X141264216Y-136970336D01*
X141156260Y-136881740D01*
X141067664Y-136773784D01*
X141001834Y-136650625D01*
X140961293Y-136516979D01*
X140947000Y-136371860D01*
X140947000Y-134708140D01*
X140961293Y-134563021D01*
X141001834Y-134429375D01*
X141067664Y-134306216D01*
X141156260Y-134198260D01*
X141264216Y-134109664D01*
X141387375Y-134043834D01*
X141521021Y-134003293D01*
X141666140Y-133989000D01*
X143829860Y-133989000D01*
X143974979Y-134003293D01*
G37*
G36*
X133433979Y-134003293D02*
G01*
X133567625Y-134043834D01*
X133690784Y-134109664D01*
X133798740Y-134198260D01*
X133887336Y-134306216D01*
X133953166Y-134429375D01*
X133993707Y-134563021D01*
X134008000Y-134708140D01*
X134008000Y-136371860D01*
X133993707Y-136516979D01*
X133953166Y-136650625D01*
X133887336Y-136773784D01*
X133798740Y-136881740D01*
X133690784Y-136970336D01*
X133567625Y-137036166D01*
X133433979Y-137076707D01*
X133288860Y-137091000D01*
X131125140Y-137091000D01*
X130980021Y-137076707D01*
X130846375Y-137036166D01*
X130723216Y-136970336D01*
X130615260Y-136881740D01*
X130526664Y-136773784D01*
X130460834Y-136650625D01*
X130420293Y-136516979D01*
X130406000Y-136371860D01*
X130406000Y-134708140D01*
X130420293Y-134563021D01*
X130460834Y-134429375D01*
X130526664Y-134306216D01*
X130615260Y-134198260D01*
X130723216Y-134109664D01*
X130846375Y-134043834D01*
X130980021Y-134003293D01*
X131125140Y-133989000D01*
X133288860Y-133989000D01*
X133433979Y-134003293D01*
G37*
G36*
X122892979Y-134003293D02*
G01*
X123026625Y-134043834D01*
X123149784Y-134109664D01*
X123257740Y-134198260D01*
X123346336Y-134306216D01*
X123412166Y-134429375D01*
X123452707Y-134563021D01*
X123467000Y-134708140D01*
X123467000Y-136371860D01*
X123452707Y-136516979D01*
X123412166Y-136650625D01*
X123346336Y-136773784D01*
X123257740Y-136881740D01*
X123149784Y-136970336D01*
X123026625Y-137036166D01*
X122892979Y-137076707D01*
X122747860Y-137091000D01*
X120584140Y-137091000D01*
X120439021Y-137076707D01*
X120305375Y-137036166D01*
X120182216Y-136970336D01*
X120074260Y-136881740D01*
X119985664Y-136773784D01*
X119919834Y-136650625D01*
X119879293Y-136516979D01*
X119865000Y-136371860D01*
X119865000Y-134708140D01*
X119879293Y-134563021D01*
X119919834Y-134429375D01*
X119985664Y-134306216D01*
X120074260Y-134198260D01*
X120182216Y-134109664D01*
X120305375Y-134043834D01*
X120439021Y-134003293D01*
X120584140Y-133989000D01*
X122747860Y-133989000D01*
X122892979Y-134003293D01*
G37*
G36*
X112351979Y-134003293D02*
G01*
X112485625Y-134043834D01*
X112608784Y-134109664D01*
X112716740Y-134198260D01*
X112805336Y-134306216D01*
X112871166Y-134429375D01*
X112911707Y-134563021D01*
X112926000Y-134708140D01*
X112926000Y-136371860D01*
X112911707Y-136516979D01*
X112871166Y-136650625D01*
X112805336Y-136773784D01*
X112716740Y-136881740D01*
X112608784Y-136970336D01*
X112485625Y-137036166D01*
X112351979Y-137076707D01*
X112206860Y-137091000D01*
X110043140Y-137091000D01*
X109898021Y-137076707D01*
X109764375Y-137036166D01*
X109641216Y-136970336D01*
X109533260Y-136881740D01*
X109444664Y-136773784D01*
X109378834Y-136650625D01*
X109338293Y-136516979D01*
X109324000Y-136371860D01*
X109324000Y-134708140D01*
X109338293Y-134563021D01*
X109378834Y-134429375D01*
X109444664Y-134306216D01*
X109533260Y-134198260D01*
X109641216Y-134109664D01*
X109764375Y-134043834D01*
X109898021Y-134003293D01*
X110043140Y-133989000D01*
X112206860Y-133989000D01*
X112351979Y-134003293D01*
G37*
G36*
X101810979Y-134003293D02*
G01*
X101944625Y-134043834D01*
X102067784Y-134109664D01*
X102175740Y-134198260D01*
X102264336Y-134306216D01*
X102330166Y-134429375D01*
X102370707Y-134563021D01*
X102385000Y-134708140D01*
X102385000Y-136371860D01*
X102370707Y-136516979D01*
X102330166Y-136650625D01*
X102264336Y-136773784D01*
X102175740Y-136881740D01*
X102067784Y-136970336D01*
X101944625Y-137036166D01*
X101810979Y-137076707D01*
X101665860Y-137091000D01*
X99502140Y-137091000D01*
X99357021Y-137076707D01*
X99223375Y-137036166D01*
X99100216Y-136970336D01*
X98992260Y-136881740D01*
X98903664Y-136773784D01*
X98837834Y-136650625D01*
X98797293Y-136516979D01*
X98783000Y-136371860D01*
X98783000Y-134708140D01*
X98797293Y-134563021D01*
X98837834Y-134429375D01*
X98903664Y-134306216D01*
X98992260Y-134198260D01*
X99100216Y-134109664D01*
X99223375Y-134043834D01*
X99357021Y-134003293D01*
X99502140Y-133989000D01*
X101665860Y-133989000D01*
X101810979Y-134003293D01*
G37*
G36*
X190738366Y-130755695D02*
G01*
X190895460Y-130803349D01*
X191040231Y-130880731D01*
X191167128Y-130984872D01*
X191271269Y-131111769D01*
X191348651Y-131256540D01*
X191396305Y-131413634D01*
X191413000Y-131583140D01*
X191413000Y-133496860D01*
X191396305Y-133666366D01*
X191348651Y-133823460D01*
X191271269Y-133968231D01*
X191167128Y-134095128D01*
X191040231Y-134199269D01*
X190895460Y-134276651D01*
X190738366Y-134324305D01*
X190568860Y-134341000D01*
X188655140Y-134341000D01*
X188485634Y-134324305D01*
X188328540Y-134276651D01*
X188183769Y-134199269D01*
X188056872Y-134095128D01*
X187952731Y-133968231D01*
X187875349Y-133823460D01*
X187827695Y-133666366D01*
X187811000Y-133496860D01*
X187811000Y-131583140D01*
X187827695Y-131413634D01*
X187875349Y-131256540D01*
X187952731Y-131111769D01*
X188056872Y-130984872D01*
X188183769Y-130880731D01*
X188328540Y-130803349D01*
X188485634Y-130755695D01*
X188655140Y-130739000D01*
X190568860Y-130739000D01*
X190738366Y-130755695D01*
G37*
G36*
X159115366Y-130755695D02*
G01*
X159272460Y-130803349D01*
X159417231Y-130880731D01*
X159544128Y-130984872D01*
X159648269Y-131111769D01*
X159725651Y-131256540D01*
X159773305Y-131413634D01*
X159790000Y-131583140D01*
X159790000Y-133496860D01*
X159773305Y-133666366D01*
X159725651Y-133823460D01*
X159648269Y-133968231D01*
X159544128Y-134095128D01*
X159417231Y-134199269D01*
X159272460Y-134276651D01*
X159115366Y-134324305D01*
X158945860Y-134341000D01*
X157032140Y-134341000D01*
X156862634Y-134324305D01*
X156705540Y-134276651D01*
X156560769Y-134199269D01*
X156433872Y-134095128D01*
X156329731Y-133968231D01*
X156252349Y-133823460D01*
X156204695Y-133666366D01*
X156188000Y-133496860D01*
X156188000Y-131583140D01*
X156204695Y-131413634D01*
X156252349Y-131256540D01*
X156329731Y-131111769D01*
X156433872Y-130984872D01*
X156560769Y-130880731D01*
X156705540Y-130803349D01*
X156862634Y-130755695D01*
X157032140Y-130739000D01*
X158945860Y-130739000D01*
X159115366Y-130755695D01*
G37*
G36*
X106410366Y-130755695D02*
G01*
X106567460Y-130803349D01*
X106712231Y-130880731D01*
X106839128Y-130984872D01*
X106943269Y-131111769D01*
X107020651Y-131256540D01*
X107068305Y-131413634D01*
X107085000Y-131583140D01*
X107085000Y-133496860D01*
X107068305Y-133666366D01*
X107020651Y-133823460D01*
X106943269Y-133968231D01*
X106839128Y-134095128D01*
X106712231Y-134199269D01*
X106567460Y-134276651D01*
X106410366Y-134324305D01*
X106240860Y-134341000D01*
X104327140Y-134341000D01*
X104157634Y-134324305D01*
X104000540Y-134276651D01*
X103855769Y-134199269D01*
X103728872Y-134095128D01*
X103624731Y-133968231D01*
X103547349Y-133823460D01*
X103499695Y-133666366D01*
X103483000Y-133496860D01*
X103483000Y-131583140D01*
X103499695Y-131413634D01*
X103547349Y-131256540D01*
X103624731Y-131111769D01*
X103728872Y-130984872D01*
X103855769Y-130880731D01*
X104000540Y-130803349D01*
X104157634Y-130755695D01*
X104327140Y-130739000D01*
X106240860Y-130739000D01*
X106410366Y-130755695D01*
G37*
G36*
X180197366Y-130755695D02*
G01*
X180354460Y-130803349D01*
X180499231Y-130880731D01*
X180626128Y-130984872D01*
X180730269Y-131111769D01*
X180807651Y-131256540D01*
X180855305Y-131413634D01*
X180872000Y-131583140D01*
X180872000Y-133496860D01*
X180855305Y-133666366D01*
X180807651Y-133823460D01*
X180730269Y-133968231D01*
X180626128Y-134095128D01*
X180499231Y-134199269D01*
X180354460Y-134276651D01*
X180197366Y-134324305D01*
X180027860Y-134341000D01*
X178114140Y-134341000D01*
X177944634Y-134324305D01*
X177787540Y-134276651D01*
X177642769Y-134199269D01*
X177515872Y-134095128D01*
X177411731Y-133968231D01*
X177334349Y-133823460D01*
X177286695Y-133666366D01*
X177270000Y-133496860D01*
X177270000Y-131583140D01*
X177286695Y-131413634D01*
X177334349Y-131256540D01*
X177411731Y-131111769D01*
X177515872Y-130984872D01*
X177642769Y-130880731D01*
X177787540Y-130803349D01*
X177944634Y-130755695D01*
X178114140Y-130739000D01*
X180027860Y-130739000D01*
X180197366Y-130755695D01*
G37*
G36*
X116951366Y-130755695D02*
G01*
X117108460Y-130803349D01*
X117253231Y-130880731D01*
X117380128Y-130984872D01*
X117484269Y-131111769D01*
X117561651Y-131256540D01*
X117609305Y-131413634D01*
X117626000Y-131583140D01*
X117626000Y-133496860D01*
X117609305Y-133666366D01*
X117561651Y-133823460D01*
X117484269Y-133968231D01*
X117380128Y-134095128D01*
X117253231Y-134199269D01*
X117108460Y-134276651D01*
X116951366Y-134324305D01*
X116781860Y-134341000D01*
X114868140Y-134341000D01*
X114698634Y-134324305D01*
X114541540Y-134276651D01*
X114396769Y-134199269D01*
X114269872Y-134095128D01*
X114165731Y-133968231D01*
X114088349Y-133823460D01*
X114040695Y-133666366D01*
X114024000Y-133496860D01*
X114024000Y-131583140D01*
X114040695Y-131413634D01*
X114088349Y-131256540D01*
X114165731Y-131111769D01*
X114269872Y-130984872D01*
X114396769Y-130880731D01*
X114541540Y-130803349D01*
X114698634Y-130755695D01*
X114868140Y-130739000D01*
X116781860Y-130739000D01*
X116951366Y-130755695D01*
G37*
G36*
X169656366Y-130755695D02*
G01*
X169813460Y-130803349D01*
X169958231Y-130880731D01*
X170085128Y-130984872D01*
X170189269Y-131111769D01*
X170266651Y-131256540D01*
X170314305Y-131413634D01*
X170331000Y-131583140D01*
X170331000Y-133496860D01*
X170314305Y-133666366D01*
X170266651Y-133823460D01*
X170189269Y-133968231D01*
X170085128Y-134095128D01*
X169958231Y-134199269D01*
X169813460Y-134276651D01*
X169656366Y-134324305D01*
X169486860Y-134341000D01*
X167573140Y-134341000D01*
X167403634Y-134324305D01*
X167246540Y-134276651D01*
X167101769Y-134199269D01*
X166974872Y-134095128D01*
X166870731Y-133968231D01*
X166793349Y-133823460D01*
X166745695Y-133666366D01*
X166729000Y-133496860D01*
X166729000Y-131583140D01*
X166745695Y-131413634D01*
X166793349Y-131256540D01*
X166870731Y-131111769D01*
X166974872Y-130984872D01*
X167101769Y-130880731D01*
X167246540Y-130803349D01*
X167403634Y-130755695D01*
X167573140Y-130739000D01*
X169486860Y-130739000D01*
X169656366Y-130755695D01*
G37*
G36*
X127492366Y-130755695D02*
G01*
X127649460Y-130803349D01*
X127794231Y-130880731D01*
X127921128Y-130984872D01*
X128025269Y-131111769D01*
X128102651Y-131256540D01*
X128150305Y-131413634D01*
X128167000Y-131583140D01*
X128167000Y-133496860D01*
X128150305Y-133666366D01*
X128102651Y-133823460D01*
X128025269Y-133968231D01*
X127921128Y-134095128D01*
X127794231Y-134199269D01*
X127649460Y-134276651D01*
X127492366Y-134324305D01*
X127322860Y-134341000D01*
X125409140Y-134341000D01*
X125239634Y-134324305D01*
X125082540Y-134276651D01*
X124937769Y-134199269D01*
X124810872Y-134095128D01*
X124706731Y-133968231D01*
X124629349Y-133823460D01*
X124581695Y-133666366D01*
X124565000Y-133496860D01*
X124565000Y-131583140D01*
X124581695Y-131413634D01*
X124629349Y-131256540D01*
X124706731Y-131111769D01*
X124810872Y-130984872D01*
X124937769Y-130880731D01*
X125082540Y-130803349D01*
X125239634Y-130755695D01*
X125409140Y-130739000D01*
X127322860Y-130739000D01*
X127492366Y-130755695D01*
G37*
G36*
X138033366Y-130755695D02*
G01*
X138190460Y-130803349D01*
X138335231Y-130880731D01*
X138462128Y-130984872D01*
X138566269Y-131111769D01*
X138643651Y-131256540D01*
X138691305Y-131413634D01*
X138708000Y-131583140D01*
X138708000Y-133496860D01*
X138691305Y-133666366D01*
X138643651Y-133823460D01*
X138566269Y-133968231D01*
X138462128Y-134095128D01*
X138335231Y-134199269D01*
X138190460Y-134276651D01*
X138033366Y-134324305D01*
X137863860Y-134341000D01*
X135950140Y-134341000D01*
X135780634Y-134324305D01*
X135623540Y-134276651D01*
X135478769Y-134199269D01*
X135351872Y-134095128D01*
X135247731Y-133968231D01*
X135170349Y-133823460D01*
X135122695Y-133666366D01*
X135106000Y-133496860D01*
X135106000Y-131583140D01*
X135122695Y-131413634D01*
X135170349Y-131256540D01*
X135247731Y-131111769D01*
X135351872Y-130984872D01*
X135478769Y-130880731D01*
X135623540Y-130803349D01*
X135780634Y-130755695D01*
X135950140Y-130739000D01*
X137863860Y-130739000D01*
X138033366Y-130755695D01*
G37*
G36*
X148574366Y-130755695D02*
G01*
X148731460Y-130803349D01*
X148876231Y-130880731D01*
X149003128Y-130984872D01*
X149107269Y-131111769D01*
X149184651Y-131256540D01*
X149232305Y-131413634D01*
X149249000Y-131583140D01*
X149249000Y-133496860D01*
X149232305Y-133666366D01*
X149184651Y-133823460D01*
X149107269Y-133968231D01*
X149003128Y-134095128D01*
X148876231Y-134199269D01*
X148731460Y-134276651D01*
X148574366Y-134324305D01*
X148404860Y-134341000D01*
X146491140Y-134341000D01*
X146321634Y-134324305D01*
X146164540Y-134276651D01*
X146019769Y-134199269D01*
X145892872Y-134095128D01*
X145788731Y-133968231D01*
X145711349Y-133823460D01*
X145663695Y-133666366D01*
X145647000Y-133496860D01*
X145647000Y-131583140D01*
X145663695Y-131413634D01*
X145711349Y-131256540D01*
X145788731Y-131111769D01*
X145892872Y-130984872D01*
X146019769Y-130880731D01*
X146164540Y-130803349D01*
X146321634Y-130755695D01*
X146491140Y-130739000D01*
X148404860Y-130739000D01*
X148574366Y-130755695D01*
G37*
G36*
X176172000Y-131341000D02*
G01*
X172570000Y-131341000D01*
X172570000Y-127739000D01*
X176172000Y-127739000D01*
X176172000Y-131341000D01*
G37*
G36*
X165631000Y-131341000D02*
G01*
X162029000Y-131341000D01*
X162029000Y-127739000D01*
X165631000Y-127739000D01*
X165631000Y-131341000D01*
G37*
G36*
X155090000Y-131341000D02*
G01*
X151488000Y-131341000D01*
X151488000Y-127739000D01*
X155090000Y-127739000D01*
X155090000Y-131341000D01*
G37*
G36*
X186713000Y-131341000D02*
G01*
X183111000Y-131341000D01*
X183111000Y-127739000D01*
X186713000Y-127739000D01*
X186713000Y-131341000D01*
G37*
G36*
X144549000Y-131341000D02*
G01*
X140947000Y-131341000D01*
X140947000Y-127739000D01*
X144549000Y-127739000D01*
X144549000Y-131341000D01*
G37*
G36*
X102385000Y-131341000D02*
G01*
X98783000Y-131341000D01*
X98783000Y-127739000D01*
X102385000Y-127739000D01*
X102385000Y-131341000D01*
G37*
G36*
X134008000Y-131341000D02*
G01*
X130406000Y-131341000D01*
X130406000Y-127739000D01*
X134008000Y-127739000D01*
X134008000Y-131341000D01*
G37*
G36*
X112926000Y-131341000D02*
G01*
X109324000Y-131341000D01*
X109324000Y-127739000D01*
X112926000Y-127739000D01*
X112926000Y-131341000D01*
G37*
G36*
X123467000Y-131341000D02*
G01*
X119865000Y-131341000D01*
X119865000Y-127739000D01*
X123467000Y-127739000D01*
X123467000Y-131341000D01*
G37*
G36*
X177406875Y-110690479D02*
G01*
X177480516Y-110712818D01*
X177517337Y-110723987D01*
X177619139Y-110778402D01*
X177676227Y-110825253D01*
X177708369Y-110851631D01*
X177781598Y-110940861D01*
X177781599Y-110940863D01*
X177836013Y-111042662D01*
X177836524Y-111044347D01*
X177869521Y-111153124D01*
X177878000Y-111239215D01*
X177878000Y-112026785D01*
X177869521Y-112112876D01*
X177847182Y-112186517D01*
X177836013Y-112223338D01*
X177781598Y-112325140D01*
X177708370Y-112414370D01*
X177619140Y-112487598D01*
X177517338Y-112542013D01*
X177480517Y-112553182D01*
X177406876Y-112575521D01*
X177292000Y-112586835D01*
X177177125Y-112575521D01*
X177103484Y-112553182D01*
X177066663Y-112542013D01*
X176964861Y-112487598D01*
X176875631Y-112414370D01*
X176802402Y-112325138D01*
X176767240Y-112259355D01*
X176753627Y-112238980D01*
X176736300Y-112221653D01*
X176715925Y-112208040D01*
X176693286Y-112198662D01*
X176669253Y-112193882D01*
X176644749Y-112193882D01*
X176620716Y-112198662D01*
X176598077Y-112208040D01*
X176577702Y-112221653D01*
X176560375Y-112238980D01*
X176546762Y-112259354D01*
X176511598Y-112325140D01*
X176438370Y-112414370D01*
X176349140Y-112487598D01*
X176247338Y-112542013D01*
X176210517Y-112553182D01*
X176136876Y-112575521D01*
X176022000Y-112586835D01*
X175907125Y-112575521D01*
X175833484Y-112553182D01*
X175796663Y-112542013D01*
X175694861Y-112487598D01*
X175605631Y-112414370D01*
X175532402Y-112325138D01*
X175497240Y-112259355D01*
X175483627Y-112238980D01*
X175466300Y-112221653D01*
X175445925Y-112208040D01*
X175423286Y-112198662D01*
X175399253Y-112193882D01*
X175374749Y-112193882D01*
X175350716Y-112198662D01*
X175328077Y-112208040D01*
X175307702Y-112221653D01*
X175290375Y-112238980D01*
X175276762Y-112259354D01*
X175241598Y-112325140D01*
X175168370Y-112414370D01*
X175079140Y-112487598D01*
X174977338Y-112542013D01*
X174940517Y-112553182D01*
X174866876Y-112575521D01*
X174752000Y-112586835D01*
X174637125Y-112575521D01*
X174563484Y-112553182D01*
X174526663Y-112542013D01*
X174424861Y-112487598D01*
X174335631Y-112414370D01*
X174289625Y-112358310D01*
X174272298Y-112340983D01*
X174251924Y-112327369D01*
X174229285Y-112317992D01*
X174205252Y-112313211D01*
X174180748Y-112313211D01*
X174156714Y-112317991D01*
X174134076Y-112327368D01*
X174113701Y-112340982D01*
X174096374Y-112358309D01*
X174082760Y-112378683D01*
X174073383Y-112401322D01*
X174068602Y-112425355D01*
X174068000Y-112437608D01*
X174068000Y-112584000D01*
X172896000Y-112584000D01*
X172896000Y-110682000D01*
X174068000Y-110682000D01*
X174068000Y-110828392D01*
X174070402Y-110852778D01*
X174077515Y-110876227D01*
X174089066Y-110897838D01*
X174104611Y-110916780D01*
X174123553Y-110932325D01*
X174145164Y-110943876D01*
X174168613Y-110950989D01*
X174192999Y-110953391D01*
X174217385Y-110950989D01*
X174240834Y-110943876D01*
X174262445Y-110932325D01*
X174281387Y-110916780D01*
X174289625Y-110907690D01*
X174335629Y-110851634D01*
X174335631Y-110851631D01*
X174424861Y-110778402D01*
X174436507Y-110772177D01*
X174526662Y-110723987D01*
X174563483Y-110712818D01*
X174637124Y-110690479D01*
X174752000Y-110679165D01*
X174866875Y-110690479D01*
X174940516Y-110712818D01*
X174977337Y-110723987D01*
X175079139Y-110778402D01*
X175136227Y-110825253D01*
X175168369Y-110851631D01*
X175241598Y-110940861D01*
X175241601Y-110940865D01*
X175276761Y-111006645D01*
X175290374Y-111027020D01*
X175307701Y-111044347D01*
X175328076Y-111057960D01*
X175350715Y-111067338D01*
X175374748Y-111072118D01*
X175399252Y-111072118D01*
X175423285Y-111067338D01*
X175445924Y-111057960D01*
X175466299Y-111044347D01*
X175483626Y-111027020D01*
X175497239Y-111006646D01*
X175532402Y-110940861D01*
X175605629Y-110851634D01*
X175605631Y-110851631D01*
X175694861Y-110778402D01*
X175706507Y-110772177D01*
X175796662Y-110723987D01*
X175833483Y-110712818D01*
X175907124Y-110690479D01*
X176022000Y-110679165D01*
X176136875Y-110690479D01*
X176210516Y-110712818D01*
X176247337Y-110723987D01*
X176349139Y-110778402D01*
X176406227Y-110825253D01*
X176438369Y-110851631D01*
X176511598Y-110940861D01*
X176511601Y-110940865D01*
X176546761Y-111006645D01*
X176560374Y-111027020D01*
X176577701Y-111044347D01*
X176598076Y-111057960D01*
X176620715Y-111067338D01*
X176644748Y-111072118D01*
X176669252Y-111072118D01*
X176693285Y-111067338D01*
X176715924Y-111057960D01*
X176736299Y-111044347D01*
X176753626Y-111027020D01*
X176767239Y-111006646D01*
X176802402Y-110940861D01*
X176875629Y-110851634D01*
X176875631Y-110851631D01*
X176964861Y-110778402D01*
X176976507Y-110772177D01*
X177066662Y-110723987D01*
X177103483Y-110712818D01*
X177177124Y-110690479D01*
X177292000Y-110679165D01*
X177406875Y-110690479D01*
G37*
G36*
X187947875Y-110690479D02*
G01*
X188021516Y-110712818D01*
X188058337Y-110723987D01*
X188160139Y-110778402D01*
X188217227Y-110825253D01*
X188249369Y-110851631D01*
X188322598Y-110940861D01*
X188322599Y-110940863D01*
X188377013Y-111042662D01*
X188377524Y-111044347D01*
X188410521Y-111153124D01*
X188419000Y-111239215D01*
X188419000Y-112026785D01*
X188410521Y-112112876D01*
X188388182Y-112186517D01*
X188377013Y-112223338D01*
X188322598Y-112325140D01*
X188249370Y-112414370D01*
X188160140Y-112487598D01*
X188058338Y-112542013D01*
X188021517Y-112553182D01*
X187947876Y-112575521D01*
X187833000Y-112586835D01*
X187718125Y-112575521D01*
X187644484Y-112553182D01*
X187607663Y-112542013D01*
X187505861Y-112487598D01*
X187416631Y-112414370D01*
X187343402Y-112325138D01*
X187308240Y-112259355D01*
X187294627Y-112238980D01*
X187277300Y-112221653D01*
X187256925Y-112208040D01*
X187234286Y-112198662D01*
X187210253Y-112193882D01*
X187185749Y-112193882D01*
X187161716Y-112198662D01*
X187139077Y-112208040D01*
X187118702Y-112221653D01*
X187101375Y-112238980D01*
X187087762Y-112259354D01*
X187052598Y-112325140D01*
X186979370Y-112414370D01*
X186890140Y-112487598D01*
X186788338Y-112542013D01*
X186751517Y-112553182D01*
X186677876Y-112575521D01*
X186563000Y-112586835D01*
X186448125Y-112575521D01*
X186374484Y-112553182D01*
X186337663Y-112542013D01*
X186235861Y-112487598D01*
X186146631Y-112414370D01*
X186073402Y-112325138D01*
X186038240Y-112259355D01*
X186024627Y-112238980D01*
X186007300Y-112221653D01*
X185986925Y-112208040D01*
X185964286Y-112198662D01*
X185940253Y-112193882D01*
X185915749Y-112193882D01*
X185891716Y-112198662D01*
X185869077Y-112208040D01*
X185848702Y-112221653D01*
X185831375Y-112238980D01*
X185817762Y-112259354D01*
X185782598Y-112325140D01*
X185709370Y-112414370D01*
X185620140Y-112487598D01*
X185518338Y-112542013D01*
X185481517Y-112553182D01*
X185407876Y-112575521D01*
X185293000Y-112586835D01*
X185178125Y-112575521D01*
X185104484Y-112553182D01*
X185067663Y-112542013D01*
X184965861Y-112487598D01*
X184876631Y-112414370D01*
X184830625Y-112358310D01*
X184813298Y-112340983D01*
X184792924Y-112327369D01*
X184770285Y-112317992D01*
X184746252Y-112313211D01*
X184721748Y-112313211D01*
X184697714Y-112317991D01*
X184675076Y-112327368D01*
X184654701Y-112340982D01*
X184637374Y-112358309D01*
X184623760Y-112378683D01*
X184614383Y-112401322D01*
X184609602Y-112425355D01*
X184609000Y-112437608D01*
X184609000Y-112584000D01*
X183437000Y-112584000D01*
X183437000Y-110682000D01*
X184609000Y-110682000D01*
X184609000Y-110828392D01*
X184611402Y-110852778D01*
X184618515Y-110876227D01*
X184630066Y-110897838D01*
X184645611Y-110916780D01*
X184664553Y-110932325D01*
X184686164Y-110943876D01*
X184709613Y-110950989D01*
X184733999Y-110953391D01*
X184758385Y-110950989D01*
X184781834Y-110943876D01*
X184803445Y-110932325D01*
X184822387Y-110916780D01*
X184830625Y-110907690D01*
X184876629Y-110851634D01*
X184876631Y-110851631D01*
X184965861Y-110778402D01*
X184977507Y-110772177D01*
X185067662Y-110723987D01*
X185104483Y-110712818D01*
X185178124Y-110690479D01*
X185293000Y-110679165D01*
X185407875Y-110690479D01*
X185481516Y-110712818D01*
X185518337Y-110723987D01*
X185620139Y-110778402D01*
X185677227Y-110825253D01*
X185709369Y-110851631D01*
X185782598Y-110940861D01*
X185782601Y-110940865D01*
X185817761Y-111006645D01*
X185831374Y-111027020D01*
X185848701Y-111044347D01*
X185869076Y-111057960D01*
X185891715Y-111067338D01*
X185915748Y-111072118D01*
X185940252Y-111072118D01*
X185964285Y-111067338D01*
X185986924Y-111057960D01*
X186007299Y-111044347D01*
X186024626Y-111027020D01*
X186038239Y-111006646D01*
X186073402Y-110940861D01*
X186146629Y-110851634D01*
X186146631Y-110851631D01*
X186235861Y-110778402D01*
X186247507Y-110772177D01*
X186337662Y-110723987D01*
X186374483Y-110712818D01*
X186448124Y-110690479D01*
X186563000Y-110679165D01*
X186677875Y-110690479D01*
X186751516Y-110712818D01*
X186788337Y-110723987D01*
X186890139Y-110778402D01*
X186947227Y-110825253D01*
X186979369Y-110851631D01*
X187052598Y-110940861D01*
X187052601Y-110940865D01*
X187087761Y-111006645D01*
X187101374Y-111027020D01*
X187118701Y-111044347D01*
X187139076Y-111057960D01*
X187161715Y-111067338D01*
X187185748Y-111072118D01*
X187210252Y-111072118D01*
X187234285Y-111067338D01*
X187256924Y-111057960D01*
X187277299Y-111044347D01*
X187294626Y-111027020D01*
X187308239Y-111006646D01*
X187343402Y-110940861D01*
X187416629Y-110851634D01*
X187416631Y-110851631D01*
X187505861Y-110778402D01*
X187517507Y-110772177D01*
X187607662Y-110723987D01*
X187644483Y-110712818D01*
X187718124Y-110690479D01*
X187833000Y-110679165D01*
X187947875Y-110690479D01*
G37*
G36*
X114160875Y-110690479D02*
G01*
X114234516Y-110712818D01*
X114271337Y-110723987D01*
X114373139Y-110778402D01*
X114430227Y-110825253D01*
X114462369Y-110851631D01*
X114535598Y-110940861D01*
X114535599Y-110940863D01*
X114590013Y-111042662D01*
X114590524Y-111044347D01*
X114623521Y-111153124D01*
X114632000Y-111239215D01*
X114632000Y-112026785D01*
X114623521Y-112112876D01*
X114601182Y-112186517D01*
X114590013Y-112223338D01*
X114535598Y-112325140D01*
X114462370Y-112414370D01*
X114373140Y-112487598D01*
X114271338Y-112542013D01*
X114234517Y-112553182D01*
X114160876Y-112575521D01*
X114046000Y-112586835D01*
X113931125Y-112575521D01*
X113857484Y-112553182D01*
X113820663Y-112542013D01*
X113718861Y-112487598D01*
X113629631Y-112414370D01*
X113556402Y-112325138D01*
X113521240Y-112259355D01*
X113507627Y-112238980D01*
X113490300Y-112221653D01*
X113469925Y-112208040D01*
X113447286Y-112198662D01*
X113423253Y-112193882D01*
X113398749Y-112193882D01*
X113374716Y-112198662D01*
X113352077Y-112208040D01*
X113331702Y-112221653D01*
X113314375Y-112238980D01*
X113300762Y-112259354D01*
X113265598Y-112325140D01*
X113192370Y-112414370D01*
X113103140Y-112487598D01*
X113001338Y-112542013D01*
X112964517Y-112553182D01*
X112890876Y-112575521D01*
X112776000Y-112586835D01*
X112661125Y-112575521D01*
X112587484Y-112553182D01*
X112550663Y-112542013D01*
X112448861Y-112487598D01*
X112359631Y-112414370D01*
X112286402Y-112325138D01*
X112251240Y-112259355D01*
X112237627Y-112238980D01*
X112220300Y-112221653D01*
X112199925Y-112208040D01*
X112177286Y-112198662D01*
X112153253Y-112193882D01*
X112128749Y-112193882D01*
X112104716Y-112198662D01*
X112082077Y-112208040D01*
X112061702Y-112221653D01*
X112044375Y-112238980D01*
X112030762Y-112259354D01*
X111995598Y-112325140D01*
X111922370Y-112414370D01*
X111833140Y-112487598D01*
X111731338Y-112542013D01*
X111694517Y-112553182D01*
X111620876Y-112575521D01*
X111506000Y-112586835D01*
X111391125Y-112575521D01*
X111317484Y-112553182D01*
X111280663Y-112542013D01*
X111178861Y-112487598D01*
X111089631Y-112414370D01*
X111043625Y-112358310D01*
X111026298Y-112340983D01*
X111005924Y-112327369D01*
X110983285Y-112317992D01*
X110959252Y-112313211D01*
X110934748Y-112313211D01*
X110910714Y-112317991D01*
X110888076Y-112327368D01*
X110867701Y-112340982D01*
X110850374Y-112358309D01*
X110836760Y-112378683D01*
X110827383Y-112401322D01*
X110822602Y-112425355D01*
X110822000Y-112437608D01*
X110822000Y-112584000D01*
X109650000Y-112584000D01*
X109650000Y-110682000D01*
X110822000Y-110682000D01*
X110822000Y-110828392D01*
X110824402Y-110852778D01*
X110831515Y-110876227D01*
X110843066Y-110897838D01*
X110858611Y-110916780D01*
X110877553Y-110932325D01*
X110899164Y-110943876D01*
X110922613Y-110950989D01*
X110946999Y-110953391D01*
X110971385Y-110950989D01*
X110994834Y-110943876D01*
X111016445Y-110932325D01*
X111035387Y-110916780D01*
X111043625Y-110907690D01*
X111089629Y-110851634D01*
X111089631Y-110851631D01*
X111178861Y-110778402D01*
X111190507Y-110772177D01*
X111280662Y-110723987D01*
X111317483Y-110712818D01*
X111391124Y-110690479D01*
X111506000Y-110679165D01*
X111620875Y-110690479D01*
X111694516Y-110712818D01*
X111731337Y-110723987D01*
X111833139Y-110778402D01*
X111890227Y-110825253D01*
X111922369Y-110851631D01*
X111995598Y-110940861D01*
X111995601Y-110940865D01*
X112030761Y-111006645D01*
X112044374Y-111027020D01*
X112061701Y-111044347D01*
X112082076Y-111057960D01*
X112104715Y-111067338D01*
X112128748Y-111072118D01*
X112153252Y-111072118D01*
X112177285Y-111067338D01*
X112199924Y-111057960D01*
X112220299Y-111044347D01*
X112237626Y-111027020D01*
X112251239Y-111006646D01*
X112286402Y-110940861D01*
X112359629Y-110851634D01*
X112359631Y-110851631D01*
X112448861Y-110778402D01*
X112460507Y-110772177D01*
X112550662Y-110723987D01*
X112587483Y-110712818D01*
X112661124Y-110690479D01*
X112776000Y-110679165D01*
X112890875Y-110690479D01*
X112964516Y-110712818D01*
X113001337Y-110723987D01*
X113103139Y-110778402D01*
X113160227Y-110825253D01*
X113192369Y-110851631D01*
X113265598Y-110940861D01*
X113265601Y-110940865D01*
X113300761Y-111006645D01*
X113314374Y-111027020D01*
X113331701Y-111044347D01*
X113352076Y-111057960D01*
X113374715Y-111067338D01*
X113398748Y-111072118D01*
X113423252Y-111072118D01*
X113447285Y-111067338D01*
X113469924Y-111057960D01*
X113490299Y-111044347D01*
X113507626Y-111027020D01*
X113521239Y-111006646D01*
X113556402Y-110940861D01*
X113629629Y-110851634D01*
X113629631Y-110851631D01*
X113718861Y-110778402D01*
X113730507Y-110772177D01*
X113820662Y-110723987D01*
X113857483Y-110712818D01*
X113931124Y-110690479D01*
X114046000Y-110679165D01*
X114160875Y-110690479D01*
G37*
G36*
X145656875Y-110690479D02*
G01*
X145730516Y-110712818D01*
X145767337Y-110723987D01*
X145869139Y-110778402D01*
X145926227Y-110825253D01*
X145958369Y-110851631D01*
X146031598Y-110940861D01*
X146031599Y-110940863D01*
X146086013Y-111042662D01*
X146086524Y-111044347D01*
X146119521Y-111153124D01*
X146128000Y-111239215D01*
X146128000Y-112026785D01*
X146119521Y-112112876D01*
X146097182Y-112186517D01*
X146086013Y-112223338D01*
X146031598Y-112325140D01*
X145958370Y-112414370D01*
X145869140Y-112487598D01*
X145767338Y-112542013D01*
X145730517Y-112553182D01*
X145656876Y-112575521D01*
X145542000Y-112586835D01*
X145427125Y-112575521D01*
X145353484Y-112553182D01*
X145316663Y-112542013D01*
X145214861Y-112487598D01*
X145125631Y-112414370D01*
X145052402Y-112325138D01*
X145017240Y-112259355D01*
X145003627Y-112238980D01*
X144986300Y-112221653D01*
X144965925Y-112208040D01*
X144943286Y-112198662D01*
X144919253Y-112193882D01*
X144894749Y-112193882D01*
X144870716Y-112198662D01*
X144848077Y-112208040D01*
X144827702Y-112221653D01*
X144810375Y-112238980D01*
X144796762Y-112259354D01*
X144761598Y-112325140D01*
X144688370Y-112414370D01*
X144599140Y-112487598D01*
X144497338Y-112542013D01*
X144460517Y-112553182D01*
X144386876Y-112575521D01*
X144272000Y-112586835D01*
X144157125Y-112575521D01*
X144083484Y-112553182D01*
X144046663Y-112542013D01*
X143944861Y-112487598D01*
X143855631Y-112414370D01*
X143782402Y-112325138D01*
X143747240Y-112259355D01*
X143733627Y-112238980D01*
X143716300Y-112221653D01*
X143695925Y-112208040D01*
X143673286Y-112198662D01*
X143649253Y-112193882D01*
X143624749Y-112193882D01*
X143600716Y-112198662D01*
X143578077Y-112208040D01*
X143557702Y-112221653D01*
X143540375Y-112238980D01*
X143526762Y-112259354D01*
X143491598Y-112325140D01*
X143418370Y-112414370D01*
X143329140Y-112487598D01*
X143227338Y-112542013D01*
X143190517Y-112553182D01*
X143116876Y-112575521D01*
X143002000Y-112586835D01*
X142887125Y-112575521D01*
X142813484Y-112553182D01*
X142776663Y-112542013D01*
X142674861Y-112487598D01*
X142585631Y-112414370D01*
X142539625Y-112358310D01*
X142522298Y-112340983D01*
X142501924Y-112327369D01*
X142479285Y-112317992D01*
X142455252Y-112313211D01*
X142430748Y-112313211D01*
X142406714Y-112317991D01*
X142384076Y-112327368D01*
X142363701Y-112340982D01*
X142346374Y-112358309D01*
X142332760Y-112378683D01*
X142323383Y-112401322D01*
X142318602Y-112425355D01*
X142318000Y-112437608D01*
X142318000Y-112584000D01*
X141146000Y-112584000D01*
X141146000Y-110682000D01*
X142318000Y-110682000D01*
X142318000Y-110828392D01*
X142320402Y-110852778D01*
X142327515Y-110876227D01*
X142339066Y-110897838D01*
X142354611Y-110916780D01*
X142373553Y-110932325D01*
X142395164Y-110943876D01*
X142418613Y-110950989D01*
X142442999Y-110953391D01*
X142467385Y-110950989D01*
X142490834Y-110943876D01*
X142512445Y-110932325D01*
X142531387Y-110916780D01*
X142539625Y-110907690D01*
X142585629Y-110851634D01*
X142585631Y-110851631D01*
X142674861Y-110778402D01*
X142686507Y-110772177D01*
X142776662Y-110723987D01*
X142813483Y-110712818D01*
X142887124Y-110690479D01*
X143002000Y-110679165D01*
X143116875Y-110690479D01*
X143190516Y-110712818D01*
X143227337Y-110723987D01*
X143329139Y-110778402D01*
X143386227Y-110825253D01*
X143418369Y-110851631D01*
X143491598Y-110940861D01*
X143491601Y-110940865D01*
X143526761Y-111006645D01*
X143540374Y-111027020D01*
X143557701Y-111044347D01*
X143578076Y-111057960D01*
X143600715Y-111067338D01*
X143624748Y-111072118D01*
X143649252Y-111072118D01*
X143673285Y-111067338D01*
X143695924Y-111057960D01*
X143716299Y-111044347D01*
X143733626Y-111027020D01*
X143747239Y-111006646D01*
X143782402Y-110940861D01*
X143855629Y-110851634D01*
X143855631Y-110851631D01*
X143944861Y-110778402D01*
X143956507Y-110772177D01*
X144046662Y-110723987D01*
X144083483Y-110712818D01*
X144157124Y-110690479D01*
X144272000Y-110679165D01*
X144386875Y-110690479D01*
X144460516Y-110712818D01*
X144497337Y-110723987D01*
X144599139Y-110778402D01*
X144656227Y-110825253D01*
X144688369Y-110851631D01*
X144761598Y-110940861D01*
X144761601Y-110940865D01*
X144796761Y-111006645D01*
X144810374Y-111027020D01*
X144827701Y-111044347D01*
X144848076Y-111057960D01*
X144870715Y-111067338D01*
X144894748Y-111072118D01*
X144919252Y-111072118D01*
X144943285Y-111067338D01*
X144965924Y-111057960D01*
X144986299Y-111044347D01*
X145003626Y-111027020D01*
X145017239Y-111006646D01*
X145052402Y-110940861D01*
X145125629Y-110851634D01*
X145125631Y-110851631D01*
X145214861Y-110778402D01*
X145226507Y-110772177D01*
X145316662Y-110723987D01*
X145353483Y-110712818D01*
X145427124Y-110690479D01*
X145542000Y-110679165D01*
X145656875Y-110690479D01*
G37*
G36*
X166865875Y-110690479D02*
G01*
X166939516Y-110712818D01*
X166976337Y-110723987D01*
X167078139Y-110778402D01*
X167135227Y-110825253D01*
X167167369Y-110851631D01*
X167240598Y-110940861D01*
X167240599Y-110940863D01*
X167295013Y-111042662D01*
X167295524Y-111044347D01*
X167328521Y-111153124D01*
X167337000Y-111239215D01*
X167337000Y-112026785D01*
X167328521Y-112112876D01*
X167306182Y-112186517D01*
X167295013Y-112223338D01*
X167240598Y-112325140D01*
X167167370Y-112414370D01*
X167078140Y-112487598D01*
X166976338Y-112542013D01*
X166939517Y-112553182D01*
X166865876Y-112575521D01*
X166751000Y-112586835D01*
X166636125Y-112575521D01*
X166562484Y-112553182D01*
X166525663Y-112542013D01*
X166423861Y-112487598D01*
X166334631Y-112414370D01*
X166261402Y-112325138D01*
X166226240Y-112259355D01*
X166212627Y-112238980D01*
X166195300Y-112221653D01*
X166174925Y-112208040D01*
X166152286Y-112198662D01*
X166128253Y-112193882D01*
X166103749Y-112193882D01*
X166079716Y-112198662D01*
X166057077Y-112208040D01*
X166036702Y-112221653D01*
X166019375Y-112238980D01*
X166005762Y-112259354D01*
X165970598Y-112325140D01*
X165897370Y-112414370D01*
X165808140Y-112487598D01*
X165706338Y-112542013D01*
X165669517Y-112553182D01*
X165595876Y-112575521D01*
X165481000Y-112586835D01*
X165366125Y-112575521D01*
X165292484Y-112553182D01*
X165255663Y-112542013D01*
X165153861Y-112487598D01*
X165064631Y-112414370D01*
X164991402Y-112325138D01*
X164956240Y-112259355D01*
X164942627Y-112238980D01*
X164925300Y-112221653D01*
X164904925Y-112208040D01*
X164882286Y-112198662D01*
X164858253Y-112193882D01*
X164833749Y-112193882D01*
X164809716Y-112198662D01*
X164787077Y-112208040D01*
X164766702Y-112221653D01*
X164749375Y-112238980D01*
X164735762Y-112259354D01*
X164700598Y-112325140D01*
X164627370Y-112414370D01*
X164538140Y-112487598D01*
X164436338Y-112542013D01*
X164399517Y-112553182D01*
X164325876Y-112575521D01*
X164211000Y-112586835D01*
X164096125Y-112575521D01*
X164022484Y-112553182D01*
X163985663Y-112542013D01*
X163883861Y-112487598D01*
X163794631Y-112414370D01*
X163748625Y-112358310D01*
X163731298Y-112340983D01*
X163710924Y-112327369D01*
X163688285Y-112317992D01*
X163664252Y-112313211D01*
X163639748Y-112313211D01*
X163615714Y-112317991D01*
X163593076Y-112327368D01*
X163572701Y-112340982D01*
X163555374Y-112358309D01*
X163541760Y-112378683D01*
X163532383Y-112401322D01*
X163527602Y-112425355D01*
X163527000Y-112437608D01*
X163527000Y-112584000D01*
X162355000Y-112584000D01*
X162355000Y-110682000D01*
X163527000Y-110682000D01*
X163527000Y-110828392D01*
X163529402Y-110852778D01*
X163536515Y-110876227D01*
X163548066Y-110897838D01*
X163563611Y-110916780D01*
X163582553Y-110932325D01*
X163604164Y-110943876D01*
X163627613Y-110950989D01*
X163651999Y-110953391D01*
X163676385Y-110950989D01*
X163699834Y-110943876D01*
X163721445Y-110932325D01*
X163740387Y-110916780D01*
X163748625Y-110907690D01*
X163794629Y-110851634D01*
X163794631Y-110851631D01*
X163883861Y-110778402D01*
X163895507Y-110772177D01*
X163985662Y-110723987D01*
X164022483Y-110712818D01*
X164096124Y-110690479D01*
X164211000Y-110679165D01*
X164325875Y-110690479D01*
X164399516Y-110712818D01*
X164436337Y-110723987D01*
X164538139Y-110778402D01*
X164595227Y-110825253D01*
X164627369Y-110851631D01*
X164700598Y-110940861D01*
X164700601Y-110940865D01*
X164735761Y-111006645D01*
X164749374Y-111027020D01*
X164766701Y-111044347D01*
X164787076Y-111057960D01*
X164809715Y-111067338D01*
X164833748Y-111072118D01*
X164858252Y-111072118D01*
X164882285Y-111067338D01*
X164904924Y-111057960D01*
X164925299Y-111044347D01*
X164942626Y-111027020D01*
X164956239Y-111006646D01*
X164991402Y-110940861D01*
X165064629Y-110851634D01*
X165064631Y-110851631D01*
X165153861Y-110778402D01*
X165165507Y-110772177D01*
X165255662Y-110723987D01*
X165292483Y-110712818D01*
X165366124Y-110690479D01*
X165481000Y-110679165D01*
X165595875Y-110690479D01*
X165669516Y-110712818D01*
X165706337Y-110723987D01*
X165808139Y-110778402D01*
X165865227Y-110825253D01*
X165897369Y-110851631D01*
X165970598Y-110940861D01*
X165970601Y-110940865D01*
X166005761Y-111006645D01*
X166019374Y-111027020D01*
X166036701Y-111044347D01*
X166057076Y-111057960D01*
X166079715Y-111067338D01*
X166103748Y-111072118D01*
X166128252Y-111072118D01*
X166152285Y-111067338D01*
X166174924Y-111057960D01*
X166195299Y-111044347D01*
X166212626Y-111027020D01*
X166226239Y-111006646D01*
X166261402Y-110940861D01*
X166334629Y-110851634D01*
X166334631Y-110851631D01*
X166423861Y-110778402D01*
X166435507Y-110772177D01*
X166525662Y-110723987D01*
X166562483Y-110712818D01*
X166636124Y-110690479D01*
X166751000Y-110679165D01*
X166865875Y-110690479D01*
G37*
G36*
X103619875Y-110690479D02*
G01*
X103693516Y-110712818D01*
X103730337Y-110723987D01*
X103832139Y-110778402D01*
X103889227Y-110825253D01*
X103921369Y-110851631D01*
X103994598Y-110940861D01*
X103994599Y-110940863D01*
X104049013Y-111042662D01*
X104049524Y-111044347D01*
X104082521Y-111153124D01*
X104091000Y-111239215D01*
X104091000Y-112026785D01*
X104082521Y-112112876D01*
X104060182Y-112186517D01*
X104049013Y-112223338D01*
X103994598Y-112325140D01*
X103921370Y-112414370D01*
X103832140Y-112487598D01*
X103730338Y-112542013D01*
X103693517Y-112553182D01*
X103619876Y-112575521D01*
X103505000Y-112586835D01*
X103390125Y-112575521D01*
X103316484Y-112553182D01*
X103279663Y-112542013D01*
X103177861Y-112487598D01*
X103088631Y-112414370D01*
X103015402Y-112325138D01*
X102980240Y-112259355D01*
X102966627Y-112238980D01*
X102949300Y-112221653D01*
X102928925Y-112208040D01*
X102906286Y-112198662D01*
X102882253Y-112193882D01*
X102857749Y-112193882D01*
X102833716Y-112198662D01*
X102811077Y-112208040D01*
X102790702Y-112221653D01*
X102773375Y-112238980D01*
X102759762Y-112259354D01*
X102724598Y-112325140D01*
X102651370Y-112414370D01*
X102562140Y-112487598D01*
X102460338Y-112542013D01*
X102423517Y-112553182D01*
X102349876Y-112575521D01*
X102235000Y-112586835D01*
X102120125Y-112575521D01*
X102046484Y-112553182D01*
X102009663Y-112542013D01*
X101907861Y-112487598D01*
X101818631Y-112414370D01*
X101745402Y-112325138D01*
X101710240Y-112259355D01*
X101696627Y-112238980D01*
X101679300Y-112221653D01*
X101658925Y-112208040D01*
X101636286Y-112198662D01*
X101612253Y-112193882D01*
X101587749Y-112193882D01*
X101563716Y-112198662D01*
X101541077Y-112208040D01*
X101520702Y-112221653D01*
X101503375Y-112238980D01*
X101489762Y-112259354D01*
X101454598Y-112325140D01*
X101381370Y-112414370D01*
X101292140Y-112487598D01*
X101190338Y-112542013D01*
X101153517Y-112553182D01*
X101079876Y-112575521D01*
X100965000Y-112586835D01*
X100850125Y-112575521D01*
X100776484Y-112553182D01*
X100739663Y-112542013D01*
X100637861Y-112487598D01*
X100548631Y-112414370D01*
X100502625Y-112358310D01*
X100485298Y-112340983D01*
X100464924Y-112327369D01*
X100442285Y-112317992D01*
X100418252Y-112313211D01*
X100393748Y-112313211D01*
X100369714Y-112317991D01*
X100347076Y-112327368D01*
X100326701Y-112340982D01*
X100309374Y-112358309D01*
X100295760Y-112378683D01*
X100286383Y-112401322D01*
X100281602Y-112425355D01*
X100281000Y-112437608D01*
X100281000Y-112584000D01*
X99109000Y-112584000D01*
X99109000Y-110682000D01*
X100281000Y-110682000D01*
X100281000Y-110828392D01*
X100283402Y-110852778D01*
X100290515Y-110876227D01*
X100302066Y-110897838D01*
X100317611Y-110916780D01*
X100336553Y-110932325D01*
X100358164Y-110943876D01*
X100381613Y-110950989D01*
X100405999Y-110953391D01*
X100430385Y-110950989D01*
X100453834Y-110943876D01*
X100475445Y-110932325D01*
X100494387Y-110916780D01*
X100502625Y-110907690D01*
X100548629Y-110851634D01*
X100548631Y-110851631D01*
X100637861Y-110778402D01*
X100649507Y-110772177D01*
X100739662Y-110723987D01*
X100776483Y-110712818D01*
X100850124Y-110690479D01*
X100965000Y-110679165D01*
X101079875Y-110690479D01*
X101153516Y-110712818D01*
X101190337Y-110723987D01*
X101292139Y-110778402D01*
X101349227Y-110825253D01*
X101381369Y-110851631D01*
X101454598Y-110940861D01*
X101454601Y-110940865D01*
X101489761Y-111006645D01*
X101503374Y-111027020D01*
X101520701Y-111044347D01*
X101541076Y-111057960D01*
X101563715Y-111067338D01*
X101587748Y-111072118D01*
X101612252Y-111072118D01*
X101636285Y-111067338D01*
X101658924Y-111057960D01*
X101679299Y-111044347D01*
X101696626Y-111027020D01*
X101710239Y-111006646D01*
X101745402Y-110940861D01*
X101818629Y-110851634D01*
X101818631Y-110851631D01*
X101907861Y-110778402D01*
X101919507Y-110772177D01*
X102009662Y-110723987D01*
X102046483Y-110712818D01*
X102120124Y-110690479D01*
X102235000Y-110679165D01*
X102349875Y-110690479D01*
X102423516Y-110712818D01*
X102460337Y-110723987D01*
X102562139Y-110778402D01*
X102619227Y-110825253D01*
X102651369Y-110851631D01*
X102724598Y-110940861D01*
X102724601Y-110940865D01*
X102759761Y-111006645D01*
X102773374Y-111027020D01*
X102790701Y-111044347D01*
X102811076Y-111057960D01*
X102833715Y-111067338D01*
X102857748Y-111072118D01*
X102882252Y-111072118D01*
X102906285Y-111067338D01*
X102928924Y-111057960D01*
X102949299Y-111044347D01*
X102966626Y-111027020D01*
X102980239Y-111006646D01*
X103015402Y-110940861D01*
X103088629Y-110851634D01*
X103088631Y-110851631D01*
X103177861Y-110778402D01*
X103189507Y-110772177D01*
X103279662Y-110723987D01*
X103316483Y-110712818D01*
X103390124Y-110690479D01*
X103505000Y-110679165D01*
X103619875Y-110690479D01*
G37*
G36*
X135242875Y-110690479D02*
G01*
X135316516Y-110712818D01*
X135353337Y-110723987D01*
X135455139Y-110778402D01*
X135512227Y-110825253D01*
X135544369Y-110851631D01*
X135617598Y-110940861D01*
X135617599Y-110940863D01*
X135672013Y-111042662D01*
X135672524Y-111044347D01*
X135705521Y-111153124D01*
X135714000Y-111239215D01*
X135714000Y-112026785D01*
X135705521Y-112112876D01*
X135683182Y-112186517D01*
X135672013Y-112223338D01*
X135617598Y-112325140D01*
X135544370Y-112414370D01*
X135455140Y-112487598D01*
X135353338Y-112542013D01*
X135316517Y-112553182D01*
X135242876Y-112575521D01*
X135128000Y-112586835D01*
X135013125Y-112575521D01*
X134939484Y-112553182D01*
X134902663Y-112542013D01*
X134800861Y-112487598D01*
X134711631Y-112414370D01*
X134638402Y-112325138D01*
X134603240Y-112259355D01*
X134589627Y-112238980D01*
X134572300Y-112221653D01*
X134551925Y-112208040D01*
X134529286Y-112198662D01*
X134505253Y-112193882D01*
X134480749Y-112193882D01*
X134456716Y-112198662D01*
X134434077Y-112208040D01*
X134413702Y-112221653D01*
X134396375Y-112238980D01*
X134382762Y-112259354D01*
X134347598Y-112325140D01*
X134274370Y-112414370D01*
X134185140Y-112487598D01*
X134083338Y-112542013D01*
X134046517Y-112553182D01*
X133972876Y-112575521D01*
X133858000Y-112586835D01*
X133743125Y-112575521D01*
X133669484Y-112553182D01*
X133632663Y-112542013D01*
X133530861Y-112487598D01*
X133441631Y-112414370D01*
X133368402Y-112325138D01*
X133333240Y-112259355D01*
X133319627Y-112238980D01*
X133302300Y-112221653D01*
X133281925Y-112208040D01*
X133259286Y-112198662D01*
X133235253Y-112193882D01*
X133210749Y-112193882D01*
X133186716Y-112198662D01*
X133164077Y-112208040D01*
X133143702Y-112221653D01*
X133126375Y-112238980D01*
X133112762Y-112259354D01*
X133077598Y-112325140D01*
X133004370Y-112414370D01*
X132915140Y-112487598D01*
X132813338Y-112542013D01*
X132776517Y-112553182D01*
X132702876Y-112575521D01*
X132588000Y-112586835D01*
X132473125Y-112575521D01*
X132399484Y-112553182D01*
X132362663Y-112542013D01*
X132260861Y-112487598D01*
X132171631Y-112414370D01*
X132125625Y-112358310D01*
X132108298Y-112340983D01*
X132087924Y-112327369D01*
X132065285Y-112317992D01*
X132041252Y-112313211D01*
X132016748Y-112313211D01*
X131992714Y-112317991D01*
X131970076Y-112327368D01*
X131949701Y-112340982D01*
X131932374Y-112358309D01*
X131918760Y-112378683D01*
X131909383Y-112401322D01*
X131904602Y-112425355D01*
X131904000Y-112437608D01*
X131904000Y-112584000D01*
X130732000Y-112584000D01*
X130732000Y-110682000D01*
X131904000Y-110682000D01*
X131904000Y-110828392D01*
X131906402Y-110852778D01*
X131913515Y-110876227D01*
X131925066Y-110897838D01*
X131940611Y-110916780D01*
X131959553Y-110932325D01*
X131981164Y-110943876D01*
X132004613Y-110950989D01*
X132028999Y-110953391D01*
X132053385Y-110950989D01*
X132076834Y-110943876D01*
X132098445Y-110932325D01*
X132117387Y-110916780D01*
X132125625Y-110907690D01*
X132171629Y-110851634D01*
X132171631Y-110851631D01*
X132260861Y-110778402D01*
X132272507Y-110772177D01*
X132362662Y-110723987D01*
X132399483Y-110712818D01*
X132473124Y-110690479D01*
X132588000Y-110679165D01*
X132702875Y-110690479D01*
X132776516Y-110712818D01*
X132813337Y-110723987D01*
X132915139Y-110778402D01*
X132972227Y-110825253D01*
X133004369Y-110851631D01*
X133077598Y-110940861D01*
X133077601Y-110940865D01*
X133112761Y-111006645D01*
X133126374Y-111027020D01*
X133143701Y-111044347D01*
X133164076Y-111057960D01*
X133186715Y-111067338D01*
X133210748Y-111072118D01*
X133235252Y-111072118D01*
X133259285Y-111067338D01*
X133281924Y-111057960D01*
X133302299Y-111044347D01*
X133319626Y-111027020D01*
X133333239Y-111006646D01*
X133368402Y-110940861D01*
X133441629Y-110851634D01*
X133441631Y-110851631D01*
X133530861Y-110778402D01*
X133542507Y-110772177D01*
X133632662Y-110723987D01*
X133669483Y-110712818D01*
X133743124Y-110690479D01*
X133858000Y-110679165D01*
X133972875Y-110690479D01*
X134046516Y-110712818D01*
X134083337Y-110723987D01*
X134185139Y-110778402D01*
X134242227Y-110825253D01*
X134274369Y-110851631D01*
X134347598Y-110940861D01*
X134347601Y-110940865D01*
X134382761Y-111006645D01*
X134396374Y-111027020D01*
X134413701Y-111044347D01*
X134434076Y-111057960D01*
X134456715Y-111067338D01*
X134480748Y-111072118D01*
X134505252Y-111072118D01*
X134529285Y-111067338D01*
X134551924Y-111057960D01*
X134572299Y-111044347D01*
X134589626Y-111027020D01*
X134603239Y-111006646D01*
X134638402Y-110940861D01*
X134711629Y-110851634D01*
X134711631Y-110851631D01*
X134800861Y-110778402D01*
X134812507Y-110772177D01*
X134902662Y-110723987D01*
X134939483Y-110712818D01*
X135013124Y-110690479D01*
X135128000Y-110679165D01*
X135242875Y-110690479D01*
G37*
G36*
X156324875Y-110690479D02*
G01*
X156398516Y-110712818D01*
X156435337Y-110723987D01*
X156537139Y-110778402D01*
X156594227Y-110825253D01*
X156626369Y-110851631D01*
X156699598Y-110940861D01*
X156699599Y-110940863D01*
X156754013Y-111042662D01*
X156754524Y-111044347D01*
X156787521Y-111153124D01*
X156796000Y-111239215D01*
X156796000Y-112026785D01*
X156787521Y-112112876D01*
X156765182Y-112186517D01*
X156754013Y-112223338D01*
X156699598Y-112325140D01*
X156626370Y-112414370D01*
X156537140Y-112487598D01*
X156435338Y-112542013D01*
X156398517Y-112553182D01*
X156324876Y-112575521D01*
X156210000Y-112586835D01*
X156095125Y-112575521D01*
X156021484Y-112553182D01*
X155984663Y-112542013D01*
X155882861Y-112487598D01*
X155793631Y-112414370D01*
X155720402Y-112325138D01*
X155685240Y-112259355D01*
X155671627Y-112238980D01*
X155654300Y-112221653D01*
X155633925Y-112208040D01*
X155611286Y-112198662D01*
X155587253Y-112193882D01*
X155562749Y-112193882D01*
X155538716Y-112198662D01*
X155516077Y-112208040D01*
X155495702Y-112221653D01*
X155478375Y-112238980D01*
X155464762Y-112259354D01*
X155429598Y-112325140D01*
X155356370Y-112414370D01*
X155267140Y-112487598D01*
X155165338Y-112542013D01*
X155128517Y-112553182D01*
X155054876Y-112575521D01*
X154940000Y-112586835D01*
X154825125Y-112575521D01*
X154751484Y-112553182D01*
X154714663Y-112542013D01*
X154612861Y-112487598D01*
X154523631Y-112414370D01*
X154450402Y-112325138D01*
X154415240Y-112259355D01*
X154401627Y-112238980D01*
X154384300Y-112221653D01*
X154363925Y-112208040D01*
X154341286Y-112198662D01*
X154317253Y-112193882D01*
X154292749Y-112193882D01*
X154268716Y-112198662D01*
X154246077Y-112208040D01*
X154225702Y-112221653D01*
X154208375Y-112238980D01*
X154194762Y-112259354D01*
X154159598Y-112325140D01*
X154086370Y-112414370D01*
X153997140Y-112487598D01*
X153895338Y-112542013D01*
X153858517Y-112553182D01*
X153784876Y-112575521D01*
X153670000Y-112586835D01*
X153555125Y-112575521D01*
X153481484Y-112553182D01*
X153444663Y-112542013D01*
X153342861Y-112487598D01*
X153253631Y-112414370D01*
X153207625Y-112358310D01*
X153190298Y-112340983D01*
X153169924Y-112327369D01*
X153147285Y-112317992D01*
X153123252Y-112313211D01*
X153098748Y-112313211D01*
X153074714Y-112317991D01*
X153052076Y-112327368D01*
X153031701Y-112340982D01*
X153014374Y-112358309D01*
X153000760Y-112378683D01*
X152991383Y-112401322D01*
X152986602Y-112425355D01*
X152986000Y-112437608D01*
X152986000Y-112584000D01*
X151814000Y-112584000D01*
X151814000Y-110682000D01*
X152986000Y-110682000D01*
X152986000Y-110828392D01*
X152988402Y-110852778D01*
X152995515Y-110876227D01*
X153007066Y-110897838D01*
X153022611Y-110916780D01*
X153041553Y-110932325D01*
X153063164Y-110943876D01*
X153086613Y-110950989D01*
X153110999Y-110953391D01*
X153135385Y-110950989D01*
X153158834Y-110943876D01*
X153180445Y-110932325D01*
X153199387Y-110916780D01*
X153207625Y-110907690D01*
X153253629Y-110851634D01*
X153253631Y-110851631D01*
X153342861Y-110778402D01*
X153354507Y-110772177D01*
X153444662Y-110723987D01*
X153481483Y-110712818D01*
X153555124Y-110690479D01*
X153670000Y-110679165D01*
X153784875Y-110690479D01*
X153858516Y-110712818D01*
X153895337Y-110723987D01*
X153997139Y-110778402D01*
X154054227Y-110825253D01*
X154086369Y-110851631D01*
X154159598Y-110940861D01*
X154159601Y-110940865D01*
X154194761Y-111006645D01*
X154208374Y-111027020D01*
X154225701Y-111044347D01*
X154246076Y-111057960D01*
X154268715Y-111067338D01*
X154292748Y-111072118D01*
X154317252Y-111072118D01*
X154341285Y-111067338D01*
X154363924Y-111057960D01*
X154384299Y-111044347D01*
X154401626Y-111027020D01*
X154415239Y-111006646D01*
X154450402Y-110940861D01*
X154523629Y-110851634D01*
X154523631Y-110851631D01*
X154612861Y-110778402D01*
X154624507Y-110772177D01*
X154714662Y-110723987D01*
X154751483Y-110712818D01*
X154825124Y-110690479D01*
X154940000Y-110679165D01*
X155054875Y-110690479D01*
X155128516Y-110712818D01*
X155165337Y-110723987D01*
X155267139Y-110778402D01*
X155324227Y-110825253D01*
X155356369Y-110851631D01*
X155429598Y-110940861D01*
X155429601Y-110940865D01*
X155464761Y-111006645D01*
X155478374Y-111027020D01*
X155495701Y-111044347D01*
X155516076Y-111057960D01*
X155538715Y-111067338D01*
X155562748Y-111072118D01*
X155587252Y-111072118D01*
X155611285Y-111067338D01*
X155633924Y-111057960D01*
X155654299Y-111044347D01*
X155671626Y-111027020D01*
X155685239Y-111006646D01*
X155720402Y-110940861D01*
X155793629Y-110851634D01*
X155793631Y-110851631D01*
X155882861Y-110778402D01*
X155894507Y-110772177D01*
X155984662Y-110723987D01*
X156021483Y-110712818D01*
X156095124Y-110690479D01*
X156210000Y-110679165D01*
X156324875Y-110690479D01*
G37*
G36*
X124701875Y-110690479D02*
G01*
X124775516Y-110712818D01*
X124812337Y-110723987D01*
X124914139Y-110778402D01*
X124971227Y-110825253D01*
X125003369Y-110851631D01*
X125076598Y-110940861D01*
X125076599Y-110940863D01*
X125131013Y-111042662D01*
X125131524Y-111044347D01*
X125164521Y-111153124D01*
X125173000Y-111239215D01*
X125173000Y-112026785D01*
X125164521Y-112112876D01*
X125142182Y-112186517D01*
X125131013Y-112223338D01*
X125076598Y-112325140D01*
X125003370Y-112414370D01*
X124914140Y-112487598D01*
X124812338Y-112542013D01*
X124775517Y-112553182D01*
X124701876Y-112575521D01*
X124587000Y-112586835D01*
X124472125Y-112575521D01*
X124398484Y-112553182D01*
X124361663Y-112542013D01*
X124259861Y-112487598D01*
X124170631Y-112414370D01*
X124097402Y-112325138D01*
X124062240Y-112259355D01*
X124048627Y-112238980D01*
X124031300Y-112221653D01*
X124010925Y-112208040D01*
X123988286Y-112198662D01*
X123964253Y-112193882D01*
X123939749Y-112193882D01*
X123915716Y-112198662D01*
X123893077Y-112208040D01*
X123872702Y-112221653D01*
X123855375Y-112238980D01*
X123841762Y-112259354D01*
X123806598Y-112325140D01*
X123733370Y-112414370D01*
X123644140Y-112487598D01*
X123542338Y-112542013D01*
X123505517Y-112553182D01*
X123431876Y-112575521D01*
X123317000Y-112586835D01*
X123202125Y-112575521D01*
X123128484Y-112553182D01*
X123091663Y-112542013D01*
X122989861Y-112487598D01*
X122900631Y-112414370D01*
X122827402Y-112325138D01*
X122792240Y-112259355D01*
X122778627Y-112238980D01*
X122761300Y-112221653D01*
X122740925Y-112208040D01*
X122718286Y-112198662D01*
X122694253Y-112193882D01*
X122669749Y-112193882D01*
X122645716Y-112198662D01*
X122623077Y-112208040D01*
X122602702Y-112221653D01*
X122585375Y-112238980D01*
X122571762Y-112259354D01*
X122536598Y-112325140D01*
X122463370Y-112414370D01*
X122374140Y-112487598D01*
X122272338Y-112542013D01*
X122235517Y-112553182D01*
X122161876Y-112575521D01*
X122047000Y-112586835D01*
X121932125Y-112575521D01*
X121858484Y-112553182D01*
X121821663Y-112542013D01*
X121719861Y-112487598D01*
X121630631Y-112414370D01*
X121584625Y-112358310D01*
X121567298Y-112340983D01*
X121546924Y-112327369D01*
X121524285Y-112317992D01*
X121500252Y-112313211D01*
X121475748Y-112313211D01*
X121451714Y-112317991D01*
X121429076Y-112327368D01*
X121408701Y-112340982D01*
X121391374Y-112358309D01*
X121377760Y-112378683D01*
X121368383Y-112401322D01*
X121363602Y-112425355D01*
X121363000Y-112437608D01*
X121363000Y-112584000D01*
X120191000Y-112584000D01*
X120191000Y-110682000D01*
X121363000Y-110682000D01*
X121363000Y-110828392D01*
X121365402Y-110852778D01*
X121372515Y-110876227D01*
X121384066Y-110897838D01*
X121399611Y-110916780D01*
X121418553Y-110932325D01*
X121440164Y-110943876D01*
X121463613Y-110950989D01*
X121487999Y-110953391D01*
X121512385Y-110950989D01*
X121535834Y-110943876D01*
X121557445Y-110932325D01*
X121576387Y-110916780D01*
X121584625Y-110907690D01*
X121630629Y-110851634D01*
X121630631Y-110851631D01*
X121719861Y-110778402D01*
X121731507Y-110772177D01*
X121821662Y-110723987D01*
X121858483Y-110712818D01*
X121932124Y-110690479D01*
X122047000Y-110679165D01*
X122161875Y-110690479D01*
X122235516Y-110712818D01*
X122272337Y-110723987D01*
X122374139Y-110778402D01*
X122431227Y-110825253D01*
X122463369Y-110851631D01*
X122536598Y-110940861D01*
X122536601Y-110940865D01*
X122571761Y-111006645D01*
X122585374Y-111027020D01*
X122602701Y-111044347D01*
X122623076Y-111057960D01*
X122645715Y-111067338D01*
X122669748Y-111072118D01*
X122694252Y-111072118D01*
X122718285Y-111067338D01*
X122740924Y-111057960D01*
X122761299Y-111044347D01*
X122778626Y-111027020D01*
X122792239Y-111006646D01*
X122827402Y-110940861D01*
X122900629Y-110851634D01*
X122900631Y-110851631D01*
X122989861Y-110778402D01*
X123001507Y-110772177D01*
X123091662Y-110723987D01*
X123128483Y-110712818D01*
X123202124Y-110690479D01*
X123317000Y-110679165D01*
X123431875Y-110690479D01*
X123505516Y-110712818D01*
X123542337Y-110723987D01*
X123644139Y-110778402D01*
X123701227Y-110825253D01*
X123733369Y-110851631D01*
X123806598Y-110940861D01*
X123806601Y-110940865D01*
X123841761Y-111006645D01*
X123855374Y-111027020D01*
X123872701Y-111044347D01*
X123893076Y-111057960D01*
X123915715Y-111067338D01*
X123939748Y-111072118D01*
X123964252Y-111072118D01*
X123988285Y-111067338D01*
X124010924Y-111057960D01*
X124031299Y-111044347D01*
X124048626Y-111027020D01*
X124062239Y-111006646D01*
X124097402Y-110940861D01*
X124170629Y-110851634D01*
X124170631Y-110851631D01*
X124259861Y-110778402D01*
X124271507Y-110772177D01*
X124361662Y-110723987D01*
X124398483Y-110712818D01*
X124472124Y-110690479D01*
X124587000Y-110679165D01*
X124701875Y-110690479D01*
G37*
G36*
X190500000Y-95885000D02*
G01*
X181610000Y-95885000D01*
X181610000Y-86995000D01*
X190500000Y-86995000D01*
X190500000Y-95885000D01*
G37*
G36*
X179705000Y-95885000D02*
G01*
X171450000Y-95885000D01*
X171450000Y-86995000D01*
X179705000Y-86995000D01*
X179705000Y-95885000D01*
G37*
G36*
X169545000Y-95885000D02*
G01*
X160655000Y-95885000D01*
X160655000Y-86995000D01*
X169545000Y-86995000D01*
X169545000Y-95885000D01*
G37*
G36*
X158750000Y-95885000D02*
G01*
X149860000Y-95885000D01*
X149860000Y-86995000D01*
X158750000Y-86995000D01*
X158750000Y-95885000D01*
G37*
G36*
X148590000Y-95885000D02*
G01*
X139700000Y-95885000D01*
X139700000Y-86995000D01*
X148590000Y-86995000D01*
X148590000Y-95885000D01*
G37*
G36*
X137795000Y-95885000D02*
G01*
X128905000Y-95885000D01*
X128905000Y-86995000D01*
X137795000Y-86995000D01*
X137795000Y-95885000D01*
G37*
G36*
X127000000Y-95885000D02*
G01*
X118745000Y-95885000D01*
X118745000Y-86995000D01*
X127000000Y-86995000D01*
X127000000Y-95885000D01*
G37*
G36*
X116840000Y-95885000D02*
G01*
X107950000Y-95885000D01*
X107950000Y-86995000D01*
X116840000Y-86995000D01*
X116840000Y-95885000D01*
G37*
G36*
X106680000Y-95885000D02*
G01*
X97790000Y-95885000D01*
X97790000Y-86995000D01*
X106680000Y-86995000D01*
X106680000Y-95885000D01*
G37*
G36*
X135241512Y-81907927D02*
G01*
X135390812Y-81937624D01*
X135554784Y-82005544D01*
X135702354Y-82104147D01*
X135827853Y-82229646D01*
X135926456Y-82377216D01*
X135994376Y-82541188D01*
X136029000Y-82715259D01*
X136029000Y-82892741D01*
X135994376Y-83066812D01*
X135926456Y-83230784D01*
X135827853Y-83378354D01*
X135702354Y-83503853D01*
X135554784Y-83602456D01*
X135390812Y-83670376D01*
X135241512Y-83700073D01*
X135216742Y-83705000D01*
X135039258Y-83705000D01*
X135014488Y-83700073D01*
X134865188Y-83670376D01*
X134701216Y-83602456D01*
X134553646Y-83503853D01*
X134428147Y-83378354D01*
X134329544Y-83230784D01*
X134261624Y-83066812D01*
X134227000Y-82892741D01*
X134227000Y-82715259D01*
X134261624Y-82541188D01*
X134329544Y-82377216D01*
X134428147Y-82229646D01*
X134553646Y-82104147D01*
X134701216Y-82005544D01*
X134865188Y-81937624D01*
X135014488Y-81907927D01*
X135039258Y-81903000D01*
X135216742Y-81903000D01*
X135241512Y-81907927D01*
G37*
G36*
X135241512Y-79367927D02*
G01*
X135390812Y-79397624D01*
X135554784Y-79465544D01*
X135702354Y-79564147D01*
X135827853Y-79689646D01*
X135926456Y-79837216D01*
X135994376Y-80001188D01*
X136029000Y-80175259D01*
X136029000Y-80352741D01*
X135994376Y-80526812D01*
X135926456Y-80690784D01*
X135827853Y-80838354D01*
X135702354Y-80963853D01*
X135554784Y-81062456D01*
X135390812Y-81130376D01*
X135241512Y-81160073D01*
X135216742Y-81165000D01*
X135039258Y-81165000D01*
X135014488Y-81160073D01*
X134865188Y-81130376D01*
X134701216Y-81062456D01*
X134553646Y-80963853D01*
X134428147Y-80838354D01*
X134329544Y-80690784D01*
X134261624Y-80526812D01*
X134227000Y-80352741D01*
X134227000Y-80175259D01*
X134261624Y-80001188D01*
X134329544Y-79837216D01*
X134428147Y-79689646D01*
X134553646Y-79564147D01*
X134701216Y-79465544D01*
X134865188Y-79397624D01*
X135014488Y-79367927D01*
X135039258Y-79363000D01*
X135216742Y-79363000D01*
X135241512Y-79367927D01*
G37*
G36*
X135241512Y-76827927D02*
G01*
X135390812Y-76857624D01*
X135554784Y-76925544D01*
X135702354Y-77024147D01*
X135827853Y-77149646D01*
X135926456Y-77297216D01*
X135994376Y-77461188D01*
X136029000Y-77635259D01*
X136029000Y-77812741D01*
X135994376Y-77986812D01*
X135926456Y-78150784D01*
X135827853Y-78298354D01*
X135702354Y-78423853D01*
X135554784Y-78522456D01*
X135390812Y-78590376D01*
X135241512Y-78620073D01*
X135216742Y-78625000D01*
X135039258Y-78625000D01*
X135014488Y-78620073D01*
X134865188Y-78590376D01*
X134701216Y-78522456D01*
X134553646Y-78423853D01*
X134428147Y-78298354D01*
X134329544Y-78150784D01*
X134261624Y-77986812D01*
X134227000Y-77812741D01*
X134227000Y-77635259D01*
X134261624Y-77461188D01*
X134329544Y-77297216D01*
X134428147Y-77149646D01*
X134553646Y-77024147D01*
X134701216Y-76925544D01*
X134865188Y-76857624D01*
X135014488Y-76827927D01*
X135039258Y-76823000D01*
X135216742Y-76823000D01*
X135241512Y-76827927D01*
G37*
G36*
X136029000Y-76085000D02*
G01*
X134227000Y-76085000D01*
X134227000Y-74283000D01*
X136029000Y-74283000D01*
X136029000Y-76085000D01*
G37*
G36*
X122254674Y-72412465D02*
G01*
X122292367Y-72423899D01*
X122327103Y-72442466D01*
X122357548Y-72467452D01*
X122382534Y-72497897D01*
X122401101Y-72532633D01*
X122412535Y-72570326D01*
X122417000Y-72615661D01*
X122417000Y-73452339D01*
X122412535Y-73497674D01*
X122401101Y-73535367D01*
X122382534Y-73570103D01*
X122357548Y-73600548D01*
X122327103Y-73625534D01*
X122292367Y-73644101D01*
X122254674Y-73655535D01*
X122209339Y-73660000D01*
X121122661Y-73660000D01*
X121077326Y-73655535D01*
X121039633Y-73644101D01*
X121004897Y-73625534D01*
X120974452Y-73600548D01*
X120949466Y-73570103D01*
X120930899Y-73535367D01*
X120919465Y-73497674D01*
X120915000Y-73452339D01*
X120915000Y-72615661D01*
X120919465Y-72570326D01*
X120930899Y-72532633D01*
X120949466Y-72497897D01*
X120974452Y-72467452D01*
X121004897Y-72442466D01*
X121039633Y-72423899D01*
X121077326Y-72412465D01*
X121122661Y-72408000D01*
X122209339Y-72408000D01*
X122254674Y-72412465D01*
G37*
G36*
X131398674Y-72158465D02*
G01*
X131436367Y-72169899D01*
X131471103Y-72188466D01*
X131501548Y-72213452D01*
X131526534Y-72243897D01*
X131545101Y-72278633D01*
X131556535Y-72316326D01*
X131561000Y-72361661D01*
X131561000Y-73198339D01*
X131556535Y-73243674D01*
X131545101Y-73281367D01*
X131526534Y-73316103D01*
X131501548Y-73346548D01*
X131471103Y-73371534D01*
X131436367Y-73390101D01*
X131398674Y-73401535D01*
X131353339Y-73406000D01*
X130266661Y-73406000D01*
X130221326Y-73401535D01*
X130183633Y-73390101D01*
X130148897Y-73371534D01*
X130118452Y-73346548D01*
X130093466Y-73316103D01*
X130074899Y-73281367D01*
X130063465Y-73243674D01*
X130059000Y-73198339D01*
X130059000Y-72361661D01*
X130063465Y-72316326D01*
X130074899Y-72278633D01*
X130093466Y-72243897D01*
X130118452Y-72213452D01*
X130148897Y-72188466D01*
X130183633Y-72169899D01*
X130221326Y-72158465D01*
X130266661Y-72154000D01*
X131353339Y-72154000D01*
X131398674Y-72158465D01*
G37*
G36*
X129366674Y-72158465D02*
G01*
X129404367Y-72169899D01*
X129439103Y-72188466D01*
X129469548Y-72213452D01*
X129494534Y-72243897D01*
X129513101Y-72278633D01*
X129524535Y-72316326D01*
X129529000Y-72361661D01*
X129529000Y-73198339D01*
X129524535Y-73243674D01*
X129513101Y-73281367D01*
X129494534Y-73316103D01*
X129469548Y-73346548D01*
X129439103Y-73371534D01*
X129404367Y-73390101D01*
X129366674Y-73401535D01*
X129321339Y-73406000D01*
X128234661Y-73406000D01*
X128189326Y-73401535D01*
X128151633Y-73390101D01*
X128116897Y-73371534D01*
X128086452Y-73346548D01*
X128061466Y-73316103D01*
X128042899Y-73281367D01*
X128031465Y-73243674D01*
X128027000Y-73198339D01*
X128027000Y-72361661D01*
X128031465Y-72316326D01*
X128042899Y-72278633D01*
X128061466Y-72243897D01*
X128086452Y-72213452D01*
X128116897Y-72188466D01*
X128151633Y-72169899D01*
X128189326Y-72158465D01*
X128234661Y-72154000D01*
X129321339Y-72154000D01*
X129366674Y-72158465D01*
G37*
G36*
X126064674Y-72158465D02*
G01*
X126102367Y-72169899D01*
X126137103Y-72188466D01*
X126167548Y-72213452D01*
X126192534Y-72243897D01*
X126211101Y-72278633D01*
X126222535Y-72316326D01*
X126227000Y-72361661D01*
X126227000Y-73198339D01*
X126222535Y-73243674D01*
X126211101Y-73281367D01*
X126192534Y-73316103D01*
X126167548Y-73346548D01*
X126137103Y-73371534D01*
X126102367Y-73390101D01*
X126064674Y-73401535D01*
X126019339Y-73406000D01*
X124932661Y-73406000D01*
X124887326Y-73401535D01*
X124849633Y-73390101D01*
X124814897Y-73371534D01*
X124784452Y-73346548D01*
X124759466Y-73316103D01*
X124740899Y-73281367D01*
X124729465Y-73243674D01*
X124725000Y-73198339D01*
X124725000Y-72361661D01*
X124729465Y-72316326D01*
X124740899Y-72278633D01*
X124759466Y-72243897D01*
X124784452Y-72213452D01*
X124814897Y-72188466D01*
X124849633Y-72169899D01*
X124887326Y-72158465D01*
X124932661Y-72154000D01*
X126019339Y-72154000D01*
X126064674Y-72158465D01*
G37*
G36*
X122254674Y-70362465D02*
G01*
X122292367Y-70373899D01*
X122327103Y-70392466D01*
X122357548Y-70417452D01*
X122382534Y-70447897D01*
X122401101Y-70482633D01*
X122412535Y-70520326D01*
X122417000Y-70565661D01*
X122417000Y-71402339D01*
X122412535Y-71447674D01*
X122401101Y-71485367D01*
X122382534Y-71520103D01*
X122357548Y-71550548D01*
X122327103Y-71575534D01*
X122292367Y-71594101D01*
X122254674Y-71605535D01*
X122209339Y-71610000D01*
X121122661Y-71610000D01*
X121077326Y-71605535D01*
X121039633Y-71594101D01*
X121004897Y-71575534D01*
X120974452Y-71550548D01*
X120949466Y-71520103D01*
X120930899Y-71485367D01*
X120919465Y-71447674D01*
X120915000Y-71402339D01*
X120915000Y-70565661D01*
X120919465Y-70520326D01*
X120930899Y-70482633D01*
X120949466Y-70447897D01*
X120974452Y-70417452D01*
X121004897Y-70392466D01*
X121039633Y-70373899D01*
X121077326Y-70362465D01*
X121122661Y-70358000D01*
X122209339Y-70358000D01*
X122254674Y-70362465D01*
G37*
G36*
X129366674Y-70108465D02*
G01*
X129404367Y-70119899D01*
X129439103Y-70138466D01*
X129469548Y-70163452D01*
X129494534Y-70193897D01*
X129513101Y-70228633D01*
X129524535Y-70266326D01*
X129529000Y-70311661D01*
X129529000Y-71148339D01*
X129524535Y-71193674D01*
X129513101Y-71231367D01*
X129494534Y-71266103D01*
X129469548Y-71296548D01*
X129439103Y-71321534D01*
X129404367Y-71340101D01*
X129366674Y-71351535D01*
X129321339Y-71356000D01*
X128234661Y-71356000D01*
X128189326Y-71351535D01*
X128151633Y-71340101D01*
X128116897Y-71321534D01*
X128086452Y-71296548D01*
X128061466Y-71266103D01*
X128042899Y-71231367D01*
X128031465Y-71193674D01*
X128027000Y-71148339D01*
X128027000Y-70311661D01*
X128031465Y-70266326D01*
X128042899Y-70228633D01*
X128061466Y-70193897D01*
X128086452Y-70163452D01*
X128116897Y-70138466D01*
X128151633Y-70119899D01*
X128189326Y-70108465D01*
X128234661Y-70104000D01*
X129321339Y-70104000D01*
X129366674Y-70108465D01*
G37*
G36*
X126064674Y-70108465D02*
G01*
X126102367Y-70119899D01*
X126137103Y-70138466D01*
X126167548Y-70163452D01*
X126192534Y-70193897D01*
X126211101Y-70228633D01*
X126222535Y-70266326D01*
X126227000Y-70311661D01*
X126227000Y-71148339D01*
X126222535Y-71193674D01*
X126211101Y-71231367D01*
X126192534Y-71266103D01*
X126167548Y-71296548D01*
X126137103Y-71321534D01*
X126102367Y-71340101D01*
X126064674Y-71351535D01*
X126019339Y-71356000D01*
X124932661Y-71356000D01*
X124887326Y-71351535D01*
X124849633Y-71340101D01*
X124814897Y-71321534D01*
X124784452Y-71296548D01*
X124759466Y-71266103D01*
X124740899Y-71231367D01*
X124729465Y-71193674D01*
X124725000Y-71148339D01*
X124725000Y-70311661D01*
X124729465Y-70266326D01*
X124740899Y-70228633D01*
X124759466Y-70193897D01*
X124784452Y-70163452D01*
X124814897Y-70138466D01*
X124849633Y-70119899D01*
X124887326Y-70108465D01*
X124932661Y-70104000D01*
X126019339Y-70104000D01*
X126064674Y-70108465D01*
G37*
G36*
X131398674Y-70108465D02*
G01*
X131436367Y-70119899D01*
X131471103Y-70138466D01*
X131501548Y-70163452D01*
X131526534Y-70193897D01*
X131545101Y-70228633D01*
X131556535Y-70266326D01*
X131561000Y-70311661D01*
X131561000Y-71148339D01*
X131556535Y-71193674D01*
X131545101Y-71231367D01*
X131526534Y-71266103D01*
X131501548Y-71296548D01*
X131471103Y-71321534D01*
X131436367Y-71340101D01*
X131398674Y-71351535D01*
X131353339Y-71356000D01*
X130266661Y-71356000D01*
X130221326Y-71351535D01*
X130183633Y-71340101D01*
X130148897Y-71321534D01*
X130118452Y-71296548D01*
X130093466Y-71266103D01*
X130074899Y-71231367D01*
X130063465Y-71193674D01*
X130059000Y-71148339D01*
X130059000Y-70311661D01*
X130063465Y-70266326D01*
X130074899Y-70228633D01*
X130093466Y-70193897D01*
X130118452Y-70163452D01*
X130148897Y-70138466D01*
X130183633Y-70119899D01*
X130221326Y-70108465D01*
X130266661Y-70104000D01*
X131353339Y-70104000D01*
X131398674Y-70108465D01*
G37*
G36*
X167195500Y-69850000D02*
G01*
X149098000Y-69850000D01*
X149098000Y-51562000D01*
X167195500Y-51562000D01*
X167195500Y-69850000D01*
G37*
G36*
X129620674Y-64792465D02*
G01*
X129658367Y-64803899D01*
X129693103Y-64822466D01*
X129723548Y-64847452D01*
X129748534Y-64877897D01*
X129767101Y-64912633D01*
X129778535Y-64950326D01*
X129783000Y-64995661D01*
X129783000Y-65832339D01*
X129778535Y-65877674D01*
X129767101Y-65915367D01*
X129748534Y-65950103D01*
X129723548Y-65980548D01*
X129693103Y-66005534D01*
X129658367Y-66024101D01*
X129620674Y-66035535D01*
X129575339Y-66040000D01*
X128488661Y-66040000D01*
X128443326Y-66035535D01*
X128405633Y-66024101D01*
X128370897Y-66005534D01*
X128340452Y-65980548D01*
X128315466Y-65950103D01*
X128296899Y-65915367D01*
X128285465Y-65877674D01*
X128281000Y-65832339D01*
X128281000Y-64995661D01*
X128285465Y-64950326D01*
X128296899Y-64912633D01*
X128315466Y-64877897D01*
X128340452Y-64847452D01*
X128370897Y-64822466D01*
X128405633Y-64803899D01*
X128443326Y-64792465D01*
X128488661Y-64788000D01*
X129575339Y-64788000D01*
X129620674Y-64792465D01*
G37*
G36*
X131652674Y-64792465D02*
G01*
X131690367Y-64803899D01*
X131725103Y-64822466D01*
X131755548Y-64847452D01*
X131780534Y-64877897D01*
X131799101Y-64912633D01*
X131810535Y-64950326D01*
X131815000Y-64995661D01*
X131815000Y-65832339D01*
X131810535Y-65877674D01*
X131799101Y-65915367D01*
X131780534Y-65950103D01*
X131755548Y-65980548D01*
X131725103Y-66005534D01*
X131690367Y-66024101D01*
X131652674Y-66035535D01*
X131607339Y-66040000D01*
X130520661Y-66040000D01*
X130475326Y-66035535D01*
X130437633Y-66024101D01*
X130402897Y-66005534D01*
X130372452Y-65980548D01*
X130347466Y-65950103D01*
X130328899Y-65915367D01*
X130317465Y-65877674D01*
X130313000Y-65832339D01*
X130313000Y-64995661D01*
X130317465Y-64950326D01*
X130328899Y-64912633D01*
X130347466Y-64877897D01*
X130372452Y-64847452D01*
X130402897Y-64822466D01*
X130437633Y-64803899D01*
X130475326Y-64792465D01*
X130520661Y-64788000D01*
X131607339Y-64788000D01*
X131652674Y-64792465D01*
G37*
G36*
X129620674Y-62742465D02*
G01*
X129658367Y-62753899D01*
X129693103Y-62772466D01*
X129723548Y-62797452D01*
X129748534Y-62827897D01*
X129767101Y-62862633D01*
X129778535Y-62900326D01*
X129783000Y-62945661D01*
X129783000Y-63782339D01*
X129778535Y-63827674D01*
X129767101Y-63865367D01*
X129748534Y-63900103D01*
X129723548Y-63930548D01*
X129693103Y-63955534D01*
X129658367Y-63974101D01*
X129620674Y-63985535D01*
X129575339Y-63990000D01*
X128488661Y-63990000D01*
X128443326Y-63985535D01*
X128405633Y-63974101D01*
X128370897Y-63955534D01*
X128340452Y-63930548D01*
X128315466Y-63900103D01*
X128296899Y-63865367D01*
X128285465Y-63827674D01*
X128281000Y-63782339D01*
X128281000Y-62945661D01*
X128285465Y-62900326D01*
X128296899Y-62862633D01*
X128315466Y-62827897D01*
X128340452Y-62797452D01*
X128370897Y-62772466D01*
X128405633Y-62753899D01*
X128443326Y-62742465D01*
X128488661Y-62738000D01*
X129575339Y-62738000D01*
X129620674Y-62742465D01*
G37*
G36*
X131652674Y-62742465D02*
G01*
X131690367Y-62753899D01*
X131725103Y-62772466D01*
X131755548Y-62797452D01*
X131780534Y-62827897D01*
X131799101Y-62862633D01*
X131810535Y-62900326D01*
X131815000Y-62945661D01*
X131815000Y-63782339D01*
X131810535Y-63827674D01*
X131799101Y-63865367D01*
X131780534Y-63900103D01*
X131755548Y-63930548D01*
X131725103Y-63955534D01*
X131690367Y-63974101D01*
X131652674Y-63985535D01*
X131607339Y-63990000D01*
X130520661Y-63990000D01*
X130475326Y-63985535D01*
X130437633Y-63974101D01*
X130402897Y-63955534D01*
X130372452Y-63930548D01*
X130347466Y-63900103D01*
X130328899Y-63865367D01*
X130317465Y-63827674D01*
X130313000Y-63782339D01*
X130313000Y-62945661D01*
X130317465Y-62900326D01*
X130328899Y-62862633D01*
X130347466Y-62827897D01*
X130372452Y-62797452D01*
X130402897Y-62772466D01*
X130437633Y-62753899D01*
X130475326Y-62742465D01*
X130520661Y-62738000D01*
X131607339Y-62738000D01*
X131652674Y-62742465D01*
G37*
G36*
X102537585Y-57152802D02*
G01*
X102687410Y-57182604D01*
X102969674Y-57299521D01*
X103223705Y-57469259D01*
X103439741Y-57685295D01*
X103609479Y-57939326D01*
X103699720Y-58157189D01*
X103726396Y-58221591D01*
X103786000Y-58521239D01*
X103786000Y-58826761D01*
X103782017Y-58846784D01*
X103726396Y-59126410D01*
X103609479Y-59408674D01*
X103439741Y-59662705D01*
X103223705Y-59878741D01*
X102969674Y-60048479D01*
X102687410Y-60165396D01*
X102537585Y-60195198D01*
X102387761Y-60225000D01*
X102082239Y-60225000D01*
X101932415Y-60195198D01*
X101782590Y-60165396D01*
X101500326Y-60048479D01*
X101246295Y-59878741D01*
X101030259Y-59662705D01*
X100860521Y-59408674D01*
X100743604Y-59126410D01*
X100687983Y-58846784D01*
X100684000Y-58826761D01*
X100684000Y-58521239D01*
X100743604Y-58221591D01*
X100770280Y-58157189D01*
X100860521Y-57939326D01*
X101030259Y-57685295D01*
X101246295Y-57469259D01*
X101500326Y-57299521D01*
X101782590Y-57182604D01*
X101932415Y-57152802D01*
X102082239Y-57123000D01*
X102387761Y-57123000D01*
X102537585Y-57152802D01*
G37*
G36*
X112697585Y-57152802D02*
G01*
X112847410Y-57182604D01*
X113129674Y-57299521D01*
X113383705Y-57469259D01*
X113599741Y-57685295D01*
X113769479Y-57939326D01*
X113859720Y-58157189D01*
X113886396Y-58221591D01*
X113946000Y-58521239D01*
X113946000Y-58826761D01*
X113942017Y-58846784D01*
X113886396Y-59126410D01*
X113769479Y-59408674D01*
X113599741Y-59662705D01*
X113383705Y-59878741D01*
X113129674Y-60048479D01*
X112847410Y-60165396D01*
X112697585Y-60195198D01*
X112547761Y-60225000D01*
X112242239Y-60225000D01*
X112092415Y-60195198D01*
X111942590Y-60165396D01*
X111660326Y-60048479D01*
X111406295Y-59878741D01*
X111190259Y-59662705D01*
X111020521Y-59408674D01*
X110903604Y-59126410D01*
X110847983Y-58846784D01*
X110844000Y-58826761D01*
X110844000Y-58521239D01*
X110903604Y-58221591D01*
X110930280Y-58157189D01*
X111020521Y-57939326D01*
X111190259Y-57685295D01*
X111406295Y-57469259D01*
X111660326Y-57299521D01*
X111942590Y-57182604D01*
X112092415Y-57152802D01*
X112242239Y-57123000D01*
X112547761Y-57123000D01*
X112697585Y-57152802D01*
G37*
G36*
X131177512Y-57523927D02*
G01*
X131326812Y-57553624D01*
X131490784Y-57621544D01*
X131638354Y-57720147D01*
X131763853Y-57845646D01*
X131862456Y-57993216D01*
X131930376Y-58157188D01*
X131965000Y-58331259D01*
X131965000Y-58508741D01*
X131930376Y-58682812D01*
X131862456Y-58846784D01*
X131763853Y-58994354D01*
X131638354Y-59119853D01*
X131490784Y-59218456D01*
X131326812Y-59286376D01*
X131177512Y-59316073D01*
X131152742Y-59321000D01*
X130975258Y-59321000D01*
X130950488Y-59316073D01*
X130801188Y-59286376D01*
X130637216Y-59218456D01*
X130489646Y-59119853D01*
X130364147Y-58994354D01*
X130265544Y-58846784D01*
X130197624Y-58682812D01*
X130163000Y-58508741D01*
X130163000Y-58331259D01*
X130197624Y-58157188D01*
X130265544Y-57993216D01*
X130364147Y-57845646D01*
X130489646Y-57720147D01*
X130637216Y-57621544D01*
X130801188Y-57553624D01*
X130950488Y-57523927D01*
X130975258Y-57519000D01*
X131152742Y-57519000D01*
X131177512Y-57523927D01*
G37*
G36*
X121805000Y-59321000D02*
G01*
X120003000Y-59321000D01*
X120003000Y-57519000D01*
X121805000Y-57519000D01*
X121805000Y-59321000D01*
G37*
G36*
X123557512Y-57523927D02*
G01*
X123706812Y-57553624D01*
X123870784Y-57621544D01*
X124018354Y-57720147D01*
X124143853Y-57845646D01*
X124242456Y-57993216D01*
X124310376Y-58157188D01*
X124345000Y-58331259D01*
X124345000Y-58508741D01*
X124310376Y-58682812D01*
X124242456Y-58846784D01*
X124143853Y-58994354D01*
X124018354Y-59119853D01*
X123870784Y-59218456D01*
X123706812Y-59286376D01*
X123557512Y-59316073D01*
X123532742Y-59321000D01*
X123355258Y-59321000D01*
X123330488Y-59316073D01*
X123181188Y-59286376D01*
X123017216Y-59218456D01*
X122869646Y-59119853D01*
X122744147Y-58994354D01*
X122645544Y-58846784D01*
X122577624Y-58682812D01*
X122543000Y-58508741D01*
X122543000Y-58331259D01*
X122577624Y-58157188D01*
X122645544Y-57993216D01*
X122744147Y-57845646D01*
X122869646Y-57720147D01*
X123017216Y-57621544D01*
X123181188Y-57553624D01*
X123330488Y-57523927D01*
X123355258Y-57519000D01*
X123532742Y-57519000D01*
X123557512Y-57523927D01*
G37*
G36*
X126097512Y-57523927D02*
G01*
X126246812Y-57553624D01*
X126410784Y-57621544D01*
X126558354Y-57720147D01*
X126683853Y-57845646D01*
X126782456Y-57993216D01*
X126850376Y-58157188D01*
X126885000Y-58331259D01*
X126885000Y-58508741D01*
X126850376Y-58682812D01*
X126782456Y-58846784D01*
X126683853Y-58994354D01*
X126558354Y-59119853D01*
X126410784Y-59218456D01*
X126246812Y-59286376D01*
X126097512Y-59316073D01*
X126072742Y-59321000D01*
X125895258Y-59321000D01*
X125870488Y-59316073D01*
X125721188Y-59286376D01*
X125557216Y-59218456D01*
X125409646Y-59119853D01*
X125284147Y-58994354D01*
X125185544Y-58846784D01*
X125117624Y-58682812D01*
X125083000Y-58508741D01*
X125083000Y-58331259D01*
X125117624Y-58157188D01*
X125185544Y-57993216D01*
X125284147Y-57845646D01*
X125409646Y-57720147D01*
X125557216Y-57621544D01*
X125721188Y-57553624D01*
X125870488Y-57523927D01*
X125895258Y-57519000D01*
X126072742Y-57519000D01*
X126097512Y-57523927D01*
G37*
G36*
X128637512Y-57523927D02*
G01*
X128786812Y-57553624D01*
X128950784Y-57621544D01*
X129098354Y-57720147D01*
X129223853Y-57845646D01*
X129322456Y-57993216D01*
X129390376Y-58157188D01*
X129425000Y-58331259D01*
X129425000Y-58508741D01*
X129390376Y-58682812D01*
X129322456Y-58846784D01*
X129223853Y-58994354D01*
X129098354Y-59119853D01*
X128950784Y-59218456D01*
X128786812Y-59286376D01*
X128637512Y-59316073D01*
X128612742Y-59321000D01*
X128435258Y-59321000D01*
X128410488Y-59316073D01*
X128261188Y-59286376D01*
X128097216Y-59218456D01*
X127949646Y-59119853D01*
X127824147Y-58994354D01*
X127725544Y-58846784D01*
X127657624Y-58682812D01*
X127623000Y-58508741D01*
X127623000Y-58331259D01*
X127657624Y-58157188D01*
X127725544Y-57993216D01*
X127824147Y-57845646D01*
X127949646Y-57720147D01*
X128097216Y-57621544D01*
X128261188Y-57553624D01*
X128410488Y-57523927D01*
X128435258Y-57519000D01*
X128612742Y-57519000D01*
X128637512Y-57523927D01*
G37*
G36*
X186649500Y-59205000D02*
G01*
X183047500Y-59205000D01*
X183047500Y-55603000D01*
X186649500Y-55603000D01*
X186649500Y-59205000D01*
G37*
G36*
X99944019Y-54602147D02*
G01*
X100147410Y-54642604D01*
X100429674Y-54759521D01*
X100683705Y-54929259D01*
X100899741Y-55145295D01*
X101069479Y-55399326D01*
X101186396Y-55681590D01*
X101246000Y-55981240D01*
X101246000Y-56286760D01*
X101186396Y-56586410D01*
X101069479Y-56868674D01*
X100899741Y-57122705D01*
X100683705Y-57338741D01*
X100429674Y-57508479D01*
X100147410Y-57625396D01*
X99997585Y-57655198D01*
X99847761Y-57685000D01*
X99542239Y-57685000D01*
X99392415Y-57655198D01*
X99242590Y-57625396D01*
X98960326Y-57508479D01*
X98706295Y-57338741D01*
X98490259Y-57122705D01*
X98320521Y-56868674D01*
X98203604Y-56586410D01*
X98144000Y-56286760D01*
X98144000Y-55981240D01*
X98203604Y-55681590D01*
X98320521Y-55399326D01*
X98490259Y-55145295D01*
X98706295Y-54929259D01*
X98960326Y-54759521D01*
X99242590Y-54642604D01*
X99445981Y-54602147D01*
X99542239Y-54583000D01*
X99847761Y-54583000D01*
X99944019Y-54602147D01*
G37*
G36*
X107564019Y-54602147D02*
G01*
X107767410Y-54642604D01*
X108049674Y-54759521D01*
X108303705Y-54929259D01*
X108519741Y-55145295D01*
X108689479Y-55399326D01*
X108806396Y-55681590D01*
X108866000Y-55981240D01*
X108866000Y-56286760D01*
X108806396Y-56586410D01*
X108689479Y-56868674D01*
X108519741Y-57122705D01*
X108303705Y-57338741D01*
X108049674Y-57508479D01*
X107767410Y-57625396D01*
X107617585Y-57655198D01*
X107467761Y-57685000D01*
X107162239Y-57685000D01*
X107012415Y-57655198D01*
X106862590Y-57625396D01*
X106580326Y-57508479D01*
X106326295Y-57338741D01*
X106110259Y-57122705D01*
X105940521Y-56868674D01*
X105823604Y-56586410D01*
X105764000Y-56286760D01*
X105764000Y-55981240D01*
X105823604Y-55681590D01*
X105940521Y-55399326D01*
X106110259Y-55145295D01*
X106326295Y-54929259D01*
X106580326Y-54759521D01*
X106862590Y-54642604D01*
X107065981Y-54602147D01*
X107162239Y-54583000D01*
X107467761Y-54583000D01*
X107564019Y-54602147D01*
G37*
G36*
X115184019Y-54602147D02*
G01*
X115387410Y-54642604D01*
X115669674Y-54759521D01*
X115923705Y-54929259D01*
X116139741Y-55145295D01*
X116309479Y-55399326D01*
X116426396Y-55681590D01*
X116486000Y-55981240D01*
X116486000Y-56286760D01*
X116426396Y-56586410D01*
X116309479Y-56868674D01*
X116139741Y-57122705D01*
X115923705Y-57338741D01*
X115669674Y-57508479D01*
X115387410Y-57625396D01*
X115237585Y-57655198D01*
X115087761Y-57685000D01*
X114782239Y-57685000D01*
X114632415Y-57655198D01*
X114482590Y-57625396D01*
X114200326Y-57508479D01*
X113946295Y-57338741D01*
X113730259Y-57122705D01*
X113560521Y-56868674D01*
X113443604Y-56586410D01*
X113384000Y-56286760D01*
X113384000Y-55981240D01*
X113443604Y-55681590D01*
X113560521Y-55399326D01*
X113730259Y-55145295D01*
X113946295Y-54929259D01*
X114200326Y-54759521D01*
X114482590Y-54642604D01*
X114685981Y-54602147D01*
X114782239Y-54583000D01*
X115087761Y-54583000D01*
X115184019Y-54602147D01*
G37*
G36*
X181274866Y-52619695D02*
G01*
X181431960Y-52667349D01*
X181576731Y-52744731D01*
X181703628Y-52848872D01*
X181807769Y-52975769D01*
X181885151Y-53120540D01*
X181932805Y-53277634D01*
X181949500Y-53447140D01*
X181949500Y-55360860D01*
X181932805Y-55530366D01*
X181885151Y-55687460D01*
X181807769Y-55832231D01*
X181703628Y-55959128D01*
X181576731Y-56063269D01*
X181431960Y-56140651D01*
X181274866Y-56188305D01*
X181105360Y-56205000D01*
X179191640Y-56205000D01*
X179022134Y-56188305D01*
X178865040Y-56140651D01*
X178720269Y-56063269D01*
X178593372Y-55959128D01*
X178489231Y-55832231D01*
X178411849Y-55687460D01*
X178364195Y-55530366D01*
X178347500Y-55360860D01*
X178347500Y-53447140D01*
X178364195Y-53277634D01*
X178411849Y-53120540D01*
X178489231Y-52975769D01*
X178593372Y-52848872D01*
X178720269Y-52744731D01*
X178865040Y-52667349D01*
X179022134Y-52619695D01*
X179191640Y-52603000D01*
X181105360Y-52603000D01*
X181274866Y-52619695D01*
G37*
G36*
X147568228Y-53029703D02*
G01*
X147723100Y-53093853D01*
X147862481Y-53186985D01*
X147981015Y-53305519D01*
X148074147Y-53444900D01*
X148138297Y-53599772D01*
X148171000Y-53764184D01*
X148171000Y-53931816D01*
X148138297Y-54096228D01*
X148074147Y-54251100D01*
X147981015Y-54390481D01*
X147862481Y-54509015D01*
X147723100Y-54602147D01*
X147568228Y-54666297D01*
X147403816Y-54699000D01*
X147236184Y-54699000D01*
X147071772Y-54666297D01*
X146916900Y-54602147D01*
X146777519Y-54509015D01*
X146658985Y-54390481D01*
X146565853Y-54251100D01*
X146501703Y-54096228D01*
X146469000Y-53931816D01*
X146469000Y-53764184D01*
X146501703Y-53599772D01*
X146565853Y-53444900D01*
X146658985Y-53305519D01*
X146777519Y-53186985D01*
X146916900Y-53093853D01*
X147071772Y-53029703D01*
X147236184Y-52997000D01*
X147403816Y-52997000D01*
X147568228Y-53029703D01*
G37*
G36*
X142488228Y-53029703D02*
G01*
X142643100Y-53093853D01*
X142782481Y-53186985D01*
X142901015Y-53305519D01*
X142994147Y-53444900D01*
X143058297Y-53599772D01*
X143091000Y-53764184D01*
X143091000Y-53931816D01*
X143058297Y-54096228D01*
X142994147Y-54251100D01*
X142901015Y-54390481D01*
X142782481Y-54509015D01*
X142643100Y-54602147D01*
X142488228Y-54666297D01*
X142323816Y-54699000D01*
X142156184Y-54699000D01*
X141991772Y-54666297D01*
X141836900Y-54602147D01*
X141697519Y-54509015D01*
X141578985Y-54390481D01*
X141485853Y-54251100D01*
X141421703Y-54096228D01*
X141389000Y-53931816D01*
X141389000Y-53764184D01*
X141421703Y-53599772D01*
X141485853Y-53444900D01*
X141578985Y-53305519D01*
X141697519Y-53186985D01*
X141836900Y-53093853D01*
X141991772Y-53029703D01*
X142156184Y-52997000D01*
X142323816Y-52997000D01*
X142488228Y-53029703D01*
G37*
G36*
X139948228Y-53029703D02*
G01*
X140103100Y-53093853D01*
X140242481Y-53186985D01*
X140361015Y-53305519D01*
X140454147Y-53444900D01*
X140518297Y-53599772D01*
X140551000Y-53764184D01*
X140551000Y-53931816D01*
X140518297Y-54096228D01*
X140454147Y-54251100D01*
X140361015Y-54390481D01*
X140242481Y-54509015D01*
X140103100Y-54602147D01*
X139948228Y-54666297D01*
X139783816Y-54699000D01*
X139616184Y-54699000D01*
X139451772Y-54666297D01*
X139296900Y-54602147D01*
X139157519Y-54509015D01*
X139038985Y-54390481D01*
X138945853Y-54251100D01*
X138881703Y-54096228D01*
X138849000Y-53931816D01*
X138849000Y-53764184D01*
X138881703Y-53599772D01*
X138945853Y-53444900D01*
X139038985Y-53305519D01*
X139157519Y-53186985D01*
X139296900Y-53093853D01*
X139451772Y-53029703D01*
X139616184Y-52997000D01*
X139783816Y-52997000D01*
X139948228Y-53029703D01*
G37*
G36*
X145028228Y-53029703D02*
G01*
X145183100Y-53093853D01*
X145322481Y-53186985D01*
X145441015Y-53305519D01*
X145534147Y-53444900D01*
X145598297Y-53599772D01*
X145631000Y-53764184D01*
X145631000Y-53931816D01*
X145598297Y-54096228D01*
X145534147Y-54251100D01*
X145441015Y-54390481D01*
X145322481Y-54509015D01*
X145183100Y-54602147D01*
X145028228Y-54666297D01*
X144863816Y-54699000D01*
X144696184Y-54699000D01*
X144531772Y-54666297D01*
X144376900Y-54602147D01*
X144237519Y-54509015D01*
X144118985Y-54390481D01*
X144025853Y-54251100D01*
X143961703Y-54096228D01*
X143929000Y-53931816D01*
X143929000Y-53764184D01*
X143961703Y-53599772D01*
X144025853Y-53444900D01*
X144118985Y-53305519D01*
X144237519Y-53186985D01*
X144376900Y-53093853D01*
X144531772Y-53029703D01*
X144696184Y-52997000D01*
X144863816Y-52997000D01*
X145028228Y-53029703D01*
G37*
G36*
X126163564Y-52456389D02*
G01*
X126354833Y-52535615D01*
X126354835Y-52535616D01*
X126526973Y-52650635D01*
X126673365Y-52797027D01*
X126768963Y-52940099D01*
X126788385Y-52969167D01*
X126867611Y-53160436D01*
X126908000Y-53363484D01*
X126908000Y-53570516D01*
X126867611Y-53773564D01*
X126802061Y-53931815D01*
X126788384Y-53964835D01*
X126673365Y-54136973D01*
X126526973Y-54283365D01*
X126354835Y-54398384D01*
X126354834Y-54398385D01*
X126354833Y-54398385D01*
X126163564Y-54477611D01*
X125960516Y-54518000D01*
X125753484Y-54518000D01*
X125550436Y-54477611D01*
X125359167Y-54398385D01*
X125359166Y-54398385D01*
X125359165Y-54398384D01*
X125187027Y-54283365D01*
X125040635Y-54136973D01*
X124925616Y-53964835D01*
X124911939Y-53931815D01*
X124846389Y-53773564D01*
X124806000Y-53570516D01*
X124806000Y-53363484D01*
X124846389Y-53160436D01*
X124925615Y-52969167D01*
X124945038Y-52940099D01*
X125040635Y-52797027D01*
X125187027Y-52650635D01*
X125359165Y-52535616D01*
X125359167Y-52535615D01*
X125550436Y-52456389D01*
X125753484Y-52416000D01*
X125960516Y-52416000D01*
X126163564Y-52456389D01*
G37*
G36*
X123623564Y-52456389D02*
G01*
X123814833Y-52535615D01*
X123814835Y-52535616D01*
X123986973Y-52650635D01*
X124133365Y-52797027D01*
X124228963Y-52940099D01*
X124248385Y-52969167D01*
X124327611Y-53160436D01*
X124368000Y-53363484D01*
X124368000Y-53570516D01*
X124327611Y-53773564D01*
X124262061Y-53931815D01*
X124248384Y-53964835D01*
X124133365Y-54136973D01*
X123986973Y-54283365D01*
X123814835Y-54398384D01*
X123814834Y-54398385D01*
X123814833Y-54398385D01*
X123623564Y-54477611D01*
X123420516Y-54518000D01*
X123213484Y-54518000D01*
X123010436Y-54477611D01*
X122819167Y-54398385D01*
X122819166Y-54398385D01*
X122819165Y-54398384D01*
X122647027Y-54283365D01*
X122500635Y-54136973D01*
X122385616Y-53964835D01*
X122371939Y-53931815D01*
X122306389Y-53773564D01*
X122266000Y-53570516D01*
X122266000Y-53363484D01*
X122306389Y-53160436D01*
X122385615Y-52969167D01*
X122405038Y-52940099D01*
X122500635Y-52797027D01*
X122647027Y-52650635D01*
X122819165Y-52535616D01*
X122819167Y-52535615D01*
X123010436Y-52456389D01*
X123213484Y-52416000D01*
X123420516Y-52416000D01*
X123623564Y-52456389D01*
G37*
G36*
X128703564Y-52456389D02*
G01*
X128894833Y-52535615D01*
X128894835Y-52535616D01*
X129066973Y-52650635D01*
X129213365Y-52797027D01*
X129308963Y-52940099D01*
X129328385Y-52969167D01*
X129407611Y-53160436D01*
X129448000Y-53363484D01*
X129448000Y-53570516D01*
X129407611Y-53773564D01*
X129342061Y-53931815D01*
X129328384Y-53964835D01*
X129213365Y-54136973D01*
X129066973Y-54283365D01*
X128894835Y-54398384D01*
X128894834Y-54398385D01*
X128894833Y-54398385D01*
X128703564Y-54477611D01*
X128500516Y-54518000D01*
X128293484Y-54518000D01*
X128090436Y-54477611D01*
X127899167Y-54398385D01*
X127899166Y-54398385D01*
X127899165Y-54398384D01*
X127727027Y-54283365D01*
X127580635Y-54136973D01*
X127465616Y-53964835D01*
X127451939Y-53931815D01*
X127386389Y-53773564D01*
X127346000Y-53570516D01*
X127346000Y-53363484D01*
X127386389Y-53160436D01*
X127465615Y-52969167D01*
X127485038Y-52940099D01*
X127580635Y-52797027D01*
X127727027Y-52650635D01*
X127899165Y-52535616D01*
X127899167Y-52535615D01*
X128090436Y-52456389D01*
X128293484Y-52416000D01*
X128500516Y-52416000D01*
X128703564Y-52456389D01*
G37*
G36*
X186075479Y-49867293D02*
G01*
X186209125Y-49907834D01*
X186332284Y-49973664D01*
X186440240Y-50062260D01*
X186528836Y-50170216D01*
X186594666Y-50293375D01*
X186635207Y-50427021D01*
X186649500Y-50572140D01*
X186649500Y-52235860D01*
X186635207Y-52380979D01*
X186594666Y-52514625D01*
X186528836Y-52637784D01*
X186440240Y-52745740D01*
X186332284Y-52834336D01*
X186209125Y-52900166D01*
X186075479Y-52940707D01*
X185930360Y-52955000D01*
X183766640Y-52955000D01*
X183621521Y-52940707D01*
X183487875Y-52900166D01*
X183364716Y-52834336D01*
X183256760Y-52745740D01*
X183168164Y-52637784D01*
X183102334Y-52514625D01*
X183061793Y-52380979D01*
X183047500Y-52235860D01*
X183047500Y-50572140D01*
X183061793Y-50427021D01*
X183102334Y-50293375D01*
X183168164Y-50170216D01*
X183256760Y-50062260D01*
X183364716Y-49973664D01*
X183487875Y-49907834D01*
X183621521Y-49867293D01*
X183766640Y-49853000D01*
X185930360Y-49853000D01*
X186075479Y-49867293D01*
G37*
G36*
X135589674Y-51203465D02*
G01*
X135627367Y-51214899D01*
X135662103Y-51233466D01*
X135692548Y-51258452D01*
X135717534Y-51288897D01*
X135736101Y-51323633D01*
X135747535Y-51361326D01*
X135752000Y-51406661D01*
X135752000Y-52243339D01*
X135747535Y-52288674D01*
X135736101Y-52326367D01*
X135717534Y-52361103D01*
X135692548Y-52391548D01*
X135662103Y-52416534D01*
X135627367Y-52435101D01*
X135589674Y-52446535D01*
X135544339Y-52451000D01*
X134457661Y-52451000D01*
X134412326Y-52446535D01*
X134374633Y-52435101D01*
X134339897Y-52416534D01*
X134309452Y-52391548D01*
X134284466Y-52361103D01*
X134265899Y-52326367D01*
X134254465Y-52288674D01*
X134250000Y-52243339D01*
X134250000Y-51406661D01*
X134254465Y-51361326D01*
X134265899Y-51323633D01*
X134284466Y-51288897D01*
X134309452Y-51258452D01*
X134339897Y-51233466D01*
X134374633Y-51214899D01*
X134412326Y-51203465D01*
X134457661Y-51199000D01*
X135544339Y-51199000D01*
X135589674Y-51203465D01*
G37*
G36*
X132287674Y-51203465D02*
G01*
X132325367Y-51214899D01*
X132360103Y-51233466D01*
X132390548Y-51258452D01*
X132415534Y-51288897D01*
X132434101Y-51323633D01*
X132445535Y-51361326D01*
X132450000Y-51406661D01*
X132450000Y-52243339D01*
X132445535Y-52288674D01*
X132434101Y-52326367D01*
X132415534Y-52361103D01*
X132390548Y-52391548D01*
X132360103Y-52416534D01*
X132325367Y-52435101D01*
X132287674Y-52446535D01*
X132242339Y-52451000D01*
X131155661Y-52451000D01*
X131110326Y-52446535D01*
X131072633Y-52435101D01*
X131037897Y-52416534D01*
X131007452Y-52391548D01*
X130982466Y-52361103D01*
X130963899Y-52326367D01*
X130952465Y-52288674D01*
X130948000Y-52243339D01*
X130948000Y-51406661D01*
X130952465Y-51361326D01*
X130963899Y-51323633D01*
X130982466Y-51288897D01*
X131007452Y-51258452D01*
X131037897Y-51233466D01*
X131072633Y-51214899D01*
X131110326Y-51203465D01*
X131155661Y-51199000D01*
X132242339Y-51199000D01*
X132287674Y-51203465D01*
G37*
G36*
X135589674Y-49153465D02*
G01*
X135627367Y-49164899D01*
X135662103Y-49183466D01*
X135692548Y-49208452D01*
X135717534Y-49238897D01*
X135736101Y-49273633D01*
X135747535Y-49311326D01*
X135752000Y-49356661D01*
X135752000Y-50193339D01*
X135747535Y-50238674D01*
X135736101Y-50276367D01*
X135717534Y-50311103D01*
X135692548Y-50341548D01*
X135662103Y-50366534D01*
X135627367Y-50385101D01*
X135589674Y-50396535D01*
X135544339Y-50401000D01*
X134457661Y-50401000D01*
X134412326Y-50396535D01*
X134374633Y-50385101D01*
X134339897Y-50366534D01*
X134309452Y-50341548D01*
X134284466Y-50311103D01*
X134265899Y-50276367D01*
X134254465Y-50238674D01*
X134250000Y-50193339D01*
X134250000Y-49356661D01*
X134254465Y-49311326D01*
X134265899Y-49273633D01*
X134284466Y-49238897D01*
X134309452Y-49208452D01*
X134339897Y-49183466D01*
X134374633Y-49164899D01*
X134412326Y-49153465D01*
X134457661Y-49149000D01*
X135544339Y-49149000D01*
X135589674Y-49153465D01*
G37*
G36*
X132287674Y-49153465D02*
G01*
X132325367Y-49164899D01*
X132360103Y-49183466D01*
X132390548Y-49208452D01*
X132415534Y-49238897D01*
X132434101Y-49273633D01*
X132445535Y-49311326D01*
X132450000Y-49356661D01*
X132450000Y-50193339D01*
X132445535Y-50238674D01*
X132434101Y-50276367D01*
X132415534Y-50311103D01*
X132390548Y-50341548D01*
X132360103Y-50366534D01*
X132325367Y-50385101D01*
X132287674Y-50396535D01*
X132242339Y-50401000D01*
X131155661Y-50401000D01*
X131110326Y-50396535D01*
X131072633Y-50385101D01*
X131037897Y-50366534D01*
X131007452Y-50341548D01*
X130982466Y-50311103D01*
X130963899Y-50276367D01*
X130952465Y-50238674D01*
X130948000Y-50193339D01*
X130948000Y-49356661D01*
X130952465Y-49311326D01*
X130963899Y-49273633D01*
X130982466Y-49238897D01*
X131007452Y-49208452D01*
X131037897Y-49183466D01*
X131072633Y-49164899D01*
X131110326Y-49153465D01*
X131155661Y-49149000D01*
X132242339Y-49149000D01*
X132287674Y-49153465D01*
G37*
G36*
X175885760Y-47635165D02*
G01*
X176007150Y-47659311D01*
X176207520Y-47742307D01*
X176387844Y-47862795D01*
X176541205Y-48016156D01*
X176661693Y-48196480D01*
X176678276Y-48236516D01*
X176744689Y-48396850D01*
X176787000Y-48609561D01*
X176787000Y-48826439D01*
X176744689Y-49039150D01*
X176734236Y-49064385D01*
X176661693Y-49239520D01*
X176541205Y-49419844D01*
X176387844Y-49573205D01*
X176207520Y-49693693D01*
X176007150Y-49776689D01*
X175900794Y-49797845D01*
X175794440Y-49819000D01*
X175577560Y-49819000D01*
X175471205Y-49797844D01*
X175364850Y-49776689D01*
X175264666Y-49735191D01*
X175164480Y-49693693D01*
X174984156Y-49573205D01*
X174830795Y-49419844D01*
X174710307Y-49239520D01*
X174637764Y-49064385D01*
X174627311Y-49039150D01*
X174585000Y-48826439D01*
X174585000Y-48609561D01*
X174627311Y-48396850D01*
X174693724Y-48236516D01*
X174710307Y-48196480D01*
X174830795Y-48016156D01*
X174984156Y-47862795D01*
X175164480Y-47742307D01*
X175264666Y-47700809D01*
X175364850Y-47659311D01*
X175486240Y-47635165D01*
X175577560Y-47617000D01*
X175794440Y-47617000D01*
X175885760Y-47635165D01*
G37*
G36*
X168875760Y-47635165D02*
G01*
X168997150Y-47659311D01*
X169197520Y-47742307D01*
X169377844Y-47862795D01*
X169531205Y-48016156D01*
X169651693Y-48196480D01*
X169668276Y-48236516D01*
X169734689Y-48396850D01*
X169777000Y-48609561D01*
X169777000Y-48826439D01*
X169734689Y-49039150D01*
X169724236Y-49064385D01*
X169651693Y-49239520D01*
X169531205Y-49419844D01*
X169377844Y-49573205D01*
X169197520Y-49693693D01*
X168997150Y-49776689D01*
X168890794Y-49797845D01*
X168784440Y-49819000D01*
X168567560Y-49819000D01*
X168461205Y-49797844D01*
X168354850Y-49776689D01*
X168254666Y-49735191D01*
X168154480Y-49693693D01*
X167974156Y-49573205D01*
X167820795Y-49419844D01*
X167700307Y-49239520D01*
X167627764Y-49064385D01*
X167617311Y-49039150D01*
X167575000Y-48826439D01*
X167575000Y-48609561D01*
X167617311Y-48396850D01*
X167683724Y-48236516D01*
X167700307Y-48196480D01*
X167820795Y-48016156D01*
X167974156Y-47862795D01*
X168154480Y-47742307D01*
X168254666Y-47700809D01*
X168354850Y-47659311D01*
X168476240Y-47635165D01*
X168567560Y-47617000D01*
X168784440Y-47617000D01*
X168875760Y-47635165D01*
G37*
G36*
X126163564Y-47122389D02*
G01*
X126354833Y-47201615D01*
X126354835Y-47201616D01*
X126526973Y-47316635D01*
X126673365Y-47463027D01*
X126776247Y-47617000D01*
X126788385Y-47635167D01*
X126867611Y-47826436D01*
X126908000Y-48029484D01*
X126908000Y-48236516D01*
X126867611Y-48439564D01*
X126797196Y-48609561D01*
X126788384Y-48630835D01*
X126673365Y-48802973D01*
X126526973Y-48949365D01*
X126354835Y-49064384D01*
X126354834Y-49064385D01*
X126354833Y-49064385D01*
X126163564Y-49143611D01*
X125960516Y-49184000D01*
X125753484Y-49184000D01*
X125550436Y-49143611D01*
X125359167Y-49064385D01*
X125359166Y-49064385D01*
X125359165Y-49064384D01*
X125187027Y-48949365D01*
X125040635Y-48802973D01*
X124925616Y-48630835D01*
X124916804Y-48609561D01*
X124846389Y-48439564D01*
X124806000Y-48236516D01*
X124806000Y-48029484D01*
X124846389Y-47826436D01*
X124925615Y-47635167D01*
X124937754Y-47617000D01*
X125040635Y-47463027D01*
X125187027Y-47316635D01*
X125359165Y-47201616D01*
X125359167Y-47201615D01*
X125550436Y-47122389D01*
X125753484Y-47082000D01*
X125960516Y-47082000D01*
X126163564Y-47122389D01*
G37*
G36*
X128703564Y-47122389D02*
G01*
X128894833Y-47201615D01*
X128894835Y-47201616D01*
X129066973Y-47316635D01*
X129213365Y-47463027D01*
X129316247Y-47617000D01*
X129328385Y-47635167D01*
X129407611Y-47826436D01*
X129448000Y-48029484D01*
X129448000Y-48236516D01*
X129407611Y-48439564D01*
X129337196Y-48609561D01*
X129328384Y-48630835D01*
X129213365Y-48802973D01*
X129066973Y-48949365D01*
X128894835Y-49064384D01*
X128894834Y-49064385D01*
X128894833Y-49064385D01*
X128703564Y-49143611D01*
X128500516Y-49184000D01*
X128293484Y-49184000D01*
X128090436Y-49143611D01*
X127899167Y-49064385D01*
X127899166Y-49064385D01*
X127899165Y-49064384D01*
X127727027Y-48949365D01*
X127580635Y-48802973D01*
X127465616Y-48630835D01*
X127456804Y-48609561D01*
X127386389Y-48439564D01*
X127346000Y-48236516D01*
X127346000Y-48029484D01*
X127386389Y-47826436D01*
X127465615Y-47635167D01*
X127477754Y-47617000D01*
X127580635Y-47463027D01*
X127727027Y-47316635D01*
X127899165Y-47201616D01*
X127899167Y-47201615D01*
X128090436Y-47122389D01*
X128293484Y-47082000D01*
X128500516Y-47082000D01*
X128703564Y-47122389D01*
G37*
G36*
X123623564Y-47122389D02*
G01*
X123814833Y-47201615D01*
X123814835Y-47201616D01*
X123986973Y-47316635D01*
X124133365Y-47463027D01*
X124236247Y-47617000D01*
X124248385Y-47635167D01*
X124327611Y-47826436D01*
X124368000Y-48029484D01*
X124368000Y-48236516D01*
X124327611Y-48439564D01*
X124257196Y-48609561D01*
X124248384Y-48630835D01*
X124133365Y-48802973D01*
X123986973Y-48949365D01*
X123814835Y-49064384D01*
X123814834Y-49064385D01*
X123814833Y-49064385D01*
X123623564Y-49143611D01*
X123420516Y-49184000D01*
X123213484Y-49184000D01*
X123010436Y-49143611D01*
X122819167Y-49064385D01*
X122819166Y-49064385D01*
X122819165Y-49064384D01*
X122647027Y-48949365D01*
X122500635Y-48802973D01*
X122385616Y-48630835D01*
X122376804Y-48609561D01*
X122306389Y-48439564D01*
X122266000Y-48236516D01*
X122266000Y-48029484D01*
X122306389Y-47826436D01*
X122385615Y-47635167D01*
X122397754Y-47617000D01*
X122500635Y-47463027D01*
X122647027Y-47316635D01*
X122819165Y-47201616D01*
X122819167Y-47201615D01*
X123010436Y-47122389D01*
X123213484Y-47082000D01*
X123420516Y-47082000D01*
X123623564Y-47122389D01*
G37*
G36*
X135589674Y-47139465D02*
G01*
X135627367Y-47150899D01*
X135662103Y-47169466D01*
X135692548Y-47194452D01*
X135717534Y-47224897D01*
X135736101Y-47259633D01*
X135747535Y-47297326D01*
X135752000Y-47342661D01*
X135752000Y-48179339D01*
X135747535Y-48224674D01*
X135736101Y-48262367D01*
X135717534Y-48297103D01*
X135692548Y-48327548D01*
X135662103Y-48352534D01*
X135627367Y-48371101D01*
X135589674Y-48382535D01*
X135544339Y-48387000D01*
X134457661Y-48387000D01*
X134412326Y-48382535D01*
X134374633Y-48371101D01*
X134339897Y-48352534D01*
X134309452Y-48327548D01*
X134284466Y-48297103D01*
X134265899Y-48262367D01*
X134254465Y-48224674D01*
X134250000Y-48179339D01*
X134250000Y-47342661D01*
X134254465Y-47297326D01*
X134265899Y-47259633D01*
X134284466Y-47224897D01*
X134309452Y-47194452D01*
X134339897Y-47169466D01*
X134374633Y-47150899D01*
X134412326Y-47139465D01*
X134457661Y-47135000D01*
X135544339Y-47135000D01*
X135589674Y-47139465D01*
G37*
G36*
X132287674Y-47139465D02*
G01*
X132325367Y-47150899D01*
X132360103Y-47169466D01*
X132390548Y-47194452D01*
X132415534Y-47224897D01*
X132434101Y-47259633D01*
X132445535Y-47297326D01*
X132450000Y-47342661D01*
X132450000Y-48179339D01*
X132445535Y-48224674D01*
X132434101Y-48262367D01*
X132415534Y-48297103D01*
X132390548Y-48327548D01*
X132360103Y-48352534D01*
X132325367Y-48371101D01*
X132287674Y-48382535D01*
X132242339Y-48387000D01*
X131155661Y-48387000D01*
X131110326Y-48382535D01*
X131072633Y-48371101D01*
X131037897Y-48352534D01*
X131007452Y-48327548D01*
X130982466Y-48297103D01*
X130963899Y-48262367D01*
X130952465Y-48224674D01*
X130948000Y-48179339D01*
X130948000Y-47342661D01*
X130952465Y-47297326D01*
X130963899Y-47259633D01*
X130982466Y-47224897D01*
X131007452Y-47194452D01*
X131037897Y-47169466D01*
X131072633Y-47150899D01*
X131110326Y-47139465D01*
X131155661Y-47135000D01*
X132242339Y-47135000D01*
X132287674Y-47139465D01*
G37*
G36*
X112697585Y-44452802D02*
G01*
X112847410Y-44482604D01*
X113129674Y-44599521D01*
X113383705Y-44769259D01*
X113599741Y-44985295D01*
X113769479Y-45239326D01*
X113886396Y-45521590D01*
X113909493Y-45637709D01*
X113939662Y-45789374D01*
X113946000Y-45821240D01*
X113946000Y-46126760D01*
X113886396Y-46426410D01*
X113769479Y-46708674D01*
X113599741Y-46962705D01*
X113383705Y-47178741D01*
X113129674Y-47348479D01*
X112847410Y-47465396D01*
X112697585Y-47495198D01*
X112547761Y-47525000D01*
X112242239Y-47525000D01*
X112092415Y-47495198D01*
X111942590Y-47465396D01*
X111660326Y-47348479D01*
X111406295Y-47178741D01*
X111190259Y-46962705D01*
X111020521Y-46708674D01*
X110903604Y-46426410D01*
X110844000Y-46126760D01*
X110844000Y-45821240D01*
X110850339Y-45789374D01*
X110880507Y-45637709D01*
X110903604Y-45521590D01*
X111020521Y-45239326D01*
X111190259Y-44985295D01*
X111406295Y-44769259D01*
X111660326Y-44599521D01*
X111942590Y-44482604D01*
X112092415Y-44452802D01*
X112242239Y-44423000D01*
X112547761Y-44423000D01*
X112697585Y-44452802D01*
G37*
G36*
X102537585Y-44452802D02*
G01*
X102687410Y-44482604D01*
X102969674Y-44599521D01*
X103223705Y-44769259D01*
X103439741Y-44985295D01*
X103609479Y-45239326D01*
X103726396Y-45521590D01*
X103749493Y-45637709D01*
X103779662Y-45789374D01*
X103786000Y-45821240D01*
X103786000Y-46126760D01*
X103726396Y-46426410D01*
X103609479Y-46708674D01*
X103439741Y-46962705D01*
X103223705Y-47178741D01*
X102969674Y-47348479D01*
X102687410Y-47465396D01*
X102537585Y-47495198D01*
X102387761Y-47525000D01*
X102082239Y-47525000D01*
X101932415Y-47495198D01*
X101782590Y-47465396D01*
X101500326Y-47348479D01*
X101246295Y-47178741D01*
X101030259Y-46962705D01*
X100860521Y-46708674D01*
X100743604Y-46426410D01*
X100684000Y-46126760D01*
X100684000Y-45821240D01*
X100690339Y-45789374D01*
X100720507Y-45637709D01*
X100743604Y-45521590D01*
X100860521Y-45239326D01*
X101030259Y-44985295D01*
X101246295Y-44769259D01*
X101500326Y-44599521D01*
X101782590Y-44482604D01*
X101932415Y-44452802D01*
X102082239Y-44423000D01*
X102387761Y-44423000D01*
X102537585Y-44452802D01*
G37*
G36*
X174696104Y-45337585D02*
G01*
X174864626Y-45407389D01*
X175016291Y-45508728D01*
X175145272Y-45637709D01*
X175246611Y-45789374D01*
X175316415Y-45957896D01*
X175352000Y-46136797D01*
X175352000Y-46319203D01*
X175316415Y-46498104D01*
X175246611Y-46666626D01*
X175145272Y-46818291D01*
X175016291Y-46947272D01*
X174864626Y-47048611D01*
X174696104Y-47118415D01*
X174517203Y-47154000D01*
X174334797Y-47154000D01*
X174155896Y-47118415D01*
X173987374Y-47048611D01*
X173835709Y-46947272D01*
X173706728Y-46818291D01*
X173605389Y-46666626D01*
X173535585Y-46498104D01*
X173500000Y-46319203D01*
X173500000Y-46136797D01*
X173535585Y-45957896D01*
X173605389Y-45789374D01*
X173706728Y-45637709D01*
X173835709Y-45508728D01*
X173987374Y-45407389D01*
X174155896Y-45337585D01*
X174334797Y-45302000D01*
X174517203Y-45302000D01*
X174696104Y-45337585D01*
G37*
G36*
X170196104Y-45337585D02*
G01*
X170364626Y-45407389D01*
X170516291Y-45508728D01*
X170645272Y-45637709D01*
X170746611Y-45789374D01*
X170816415Y-45957896D01*
X170852000Y-46136797D01*
X170852000Y-46319203D01*
X170816415Y-46498104D01*
X170746611Y-46666626D01*
X170645272Y-46818291D01*
X170516291Y-46947272D01*
X170364626Y-47048611D01*
X170196104Y-47118415D01*
X170017203Y-47154000D01*
X169834797Y-47154000D01*
X169655896Y-47118415D01*
X169487374Y-47048611D01*
X169335709Y-46947272D01*
X169206728Y-46818291D01*
X169105389Y-46666626D01*
X169035585Y-46498104D01*
X169000000Y-46319203D01*
X169000000Y-46136797D01*
X169035585Y-45957896D01*
X169105389Y-45789374D01*
X169206728Y-45637709D01*
X169335709Y-45508728D01*
X169487374Y-45407389D01*
X169655896Y-45337585D01*
X169834797Y-45302000D01*
X170017203Y-45302000D01*
X170196104Y-45337585D01*
G37*
G36*
X142488228Y-45409703D02*
G01*
X142643100Y-45473853D01*
X142782481Y-45566985D01*
X142901015Y-45685519D01*
X142994147Y-45824900D01*
X143058297Y-45979772D01*
X143091000Y-46144184D01*
X143091000Y-46311816D01*
X143058297Y-46476228D01*
X142994147Y-46631100D01*
X142901015Y-46770481D01*
X142782481Y-46889015D01*
X142643100Y-46982147D01*
X142488228Y-47046297D01*
X142323816Y-47079000D01*
X142156184Y-47079000D01*
X141991772Y-47046297D01*
X141836900Y-46982147D01*
X141697519Y-46889015D01*
X141578985Y-46770481D01*
X141485853Y-46631100D01*
X141421703Y-46476228D01*
X141389000Y-46311816D01*
X141389000Y-46144184D01*
X141421703Y-45979772D01*
X141485853Y-45824900D01*
X141578985Y-45685519D01*
X141697519Y-45566985D01*
X141836900Y-45473853D01*
X141991772Y-45409703D01*
X142156184Y-45377000D01*
X142323816Y-45377000D01*
X142488228Y-45409703D01*
G37*
G36*
X148171000Y-47079000D02*
G01*
X146469000Y-47079000D01*
X146469000Y-45377000D01*
X148171000Y-45377000D01*
X148171000Y-47079000D01*
G37*
G36*
X145028228Y-45409703D02*
G01*
X145183100Y-45473853D01*
X145322481Y-45566985D01*
X145441015Y-45685519D01*
X145534147Y-45824900D01*
X145598297Y-45979772D01*
X145631000Y-46144184D01*
X145631000Y-46311816D01*
X145598297Y-46476228D01*
X145534147Y-46631100D01*
X145441015Y-46770481D01*
X145322481Y-46889015D01*
X145183100Y-46982147D01*
X145028228Y-47046297D01*
X144863816Y-47079000D01*
X144696184Y-47079000D01*
X144531772Y-47046297D01*
X144376900Y-46982147D01*
X144237519Y-46889015D01*
X144118985Y-46770481D01*
X144025853Y-46631100D01*
X143961703Y-46476228D01*
X143929000Y-46311816D01*
X143929000Y-46144184D01*
X143961703Y-45979772D01*
X144025853Y-45824900D01*
X144118985Y-45685519D01*
X144237519Y-45566985D01*
X144376900Y-45473853D01*
X144531772Y-45409703D01*
X144696184Y-45377000D01*
X144863816Y-45377000D01*
X145028228Y-45409703D01*
G37*
G36*
X139948228Y-45409703D02*
G01*
X140103100Y-45473853D01*
X140242481Y-45566985D01*
X140361015Y-45685519D01*
X140454147Y-45824900D01*
X140518297Y-45979772D01*
X140551000Y-46144184D01*
X140551000Y-46311816D01*
X140518297Y-46476228D01*
X140454147Y-46631100D01*
X140361015Y-46770481D01*
X140242481Y-46889015D01*
X140103100Y-46982147D01*
X139948228Y-47046297D01*
X139783816Y-47079000D01*
X139616184Y-47079000D01*
X139451772Y-47046297D01*
X139296900Y-46982147D01*
X139157519Y-46889015D01*
X139038985Y-46770481D01*
X138945853Y-46631100D01*
X138881703Y-46476228D01*
X138849000Y-46311816D01*
X138849000Y-46144184D01*
X138881703Y-45979772D01*
X138945853Y-45824900D01*
X139038985Y-45685519D01*
X139157519Y-45566985D01*
X139296900Y-45473853D01*
X139451772Y-45409703D01*
X139616184Y-45377000D01*
X139783816Y-45377000D01*
X139948228Y-45409703D01*
G37*
G36*
X132287674Y-45089465D02*
G01*
X132325367Y-45100899D01*
X132360103Y-45119466D01*
X132390548Y-45144452D01*
X132415534Y-45174897D01*
X132434101Y-45209633D01*
X132445535Y-45247326D01*
X132450000Y-45292661D01*
X132450000Y-46129339D01*
X132445535Y-46174674D01*
X132434101Y-46212367D01*
X132415534Y-46247103D01*
X132390548Y-46277548D01*
X132360103Y-46302534D01*
X132325367Y-46321101D01*
X132287674Y-46332535D01*
X132242339Y-46337000D01*
X131155661Y-46337000D01*
X131110326Y-46332535D01*
X131072633Y-46321101D01*
X131037897Y-46302534D01*
X131007452Y-46277548D01*
X130982466Y-46247103D01*
X130963899Y-46212367D01*
X130952465Y-46174674D01*
X130948000Y-46129339D01*
X130948000Y-45292661D01*
X130952465Y-45247326D01*
X130963899Y-45209633D01*
X130982466Y-45174897D01*
X131007452Y-45144452D01*
X131037897Y-45119466D01*
X131072633Y-45100899D01*
X131110326Y-45089465D01*
X131155661Y-45085000D01*
X132242339Y-45085000D01*
X132287674Y-45089465D01*
G37*
G36*
X135589674Y-45089465D02*
G01*
X135627367Y-45100899D01*
X135662103Y-45119466D01*
X135692548Y-45144452D01*
X135717534Y-45174897D01*
X135736101Y-45209633D01*
X135747535Y-45247326D01*
X135752000Y-45292661D01*
X135752000Y-46129339D01*
X135747535Y-46174674D01*
X135736101Y-46212367D01*
X135717534Y-46247103D01*
X135692548Y-46277548D01*
X135662103Y-46302534D01*
X135627367Y-46321101D01*
X135589674Y-46332535D01*
X135544339Y-46337000D01*
X134457661Y-46337000D01*
X134412326Y-46332535D01*
X134374633Y-46321101D01*
X134339897Y-46302534D01*
X134309452Y-46277548D01*
X134284466Y-46247103D01*
X134265899Y-46212367D01*
X134254465Y-46174674D01*
X134250000Y-46129339D01*
X134250000Y-45292661D01*
X134254465Y-45247326D01*
X134265899Y-45209633D01*
X134284466Y-45174897D01*
X134309452Y-45144452D01*
X134339897Y-45119466D01*
X134374633Y-45100899D01*
X134412326Y-45089465D01*
X134457661Y-45085000D01*
X135544339Y-45085000D01*
X135589674Y-45089465D01*
G37*
M02*
